<svg xmlns="http://www.w3.org/2000/svg" viewBox="3178 499 118.301 181.868">
  <defs>
    <style>
      .cls-1, .cls-13 {
        fill: #08131e;
      }

      .cls-1 {
        opacity: 0.21;
      }

      .cls-2 {
        fill: #e8a18b;
      }

      .cls-3 {
        fill: #f8c2ae;
      }

      .cls-4 {
        fill: #fff;
      }

      .cls-5 {
        fill: #e9e6dd;
      }

      .cls-6 {
        fill: #0d1a29;
      }

      .cls-7 {
        fill: #343e47;
      }

      .cls-8 {
        fill: #08131c;
      }

      .cls-9 {
        fill: #e52929;
      }

      .cls-10 {
        fill: #a48f58;
      }

      .cls-11 {
        fill: #33312a;
      }

      .cls-12 {
        fill: #122435;
      }

      .cls-14 {
        fill: #2979ff;
      }

      .cls-15 {
        fill: #eaeaea;
        font-size: 5px;
        font-family: Montserrat-Regular, Montserrat;
      }
    </style>
  </defs>
  <g id="Group_295" data-name="Group 295" transform="translate(3178 499.113)">
    <g id="Group_292" data-name="Group 292" transform="translate(6.606 1.992)">
      <g id="Group_291" data-name="Group 291">
        <g id="Group_290" data-name="Group 290">
          <g id="Group_289" data-name="Group 289">
            <path id="Path_560" data-name="Path 560" class="cls-1" d="M135.473,669.108l32.281-4.152,33.5-.856h15.388v2.491l-55.375,6.8L132.8,673.1Z" transform="translate(-104.946 -493.849)"/>
            <g id="Group_287" data-name="Group 287">
              <path id="Path_561" data-name="Path 561" class="cls-2" d="M155.7,185.532v4.645l4,3.244,4.308-3.3V183.3Z" transform="translate(-121.904 -137.811)"/>
              <path id="Path_562" data-name="Path 562" class="cls-3" d="M154.809,135.815s-5.112-.363-5.709,1.453c0,0,.078,9.523.285,10.847s2.05,3.3,4.749,4.1h1.3c2.7-.8,4.541-2.777,4.749-4.1s.285-10.847.285-10.847C159.921,135.452,154.809,135.815,154.809,135.815Z" transform="translate(-117.017 -102.627)"/>
              <g id="Group_284" data-name="Group 284">
                <path id="Path_563" data-name="Path 563" class="cls-3" d="M26.975,20.9s-1.142-4.333-1.271-4.489c-.1-.156-.493-2.906,0-3.737S30.037,8,30.634,8s1.635,1.92,1.816,2.361c.156.441-.649,6.851-.649,6.851l-.389,1.453-2.465,2.7Z" transform="translate(-25.459 -8)"/>
                <g id="Group_283" data-name="Group 283" transform="translate(0.607 10.276)">
                  <path id="Path_564" data-name="Path 564" class="cls-4" d="M27.8,50.688,33.95,47.6,44.174,79.388l12.9,11.262h3.5l4.7.882V133.1H59.717l-6.461-2.621L48.274,100.9,34.962,83.176Z" transform="translate(-27.8 -47.6)"/>
                  <path id="Path_565" data-name="Path 565" class="cls-5" d="M27.8,59.5,38.18,90.25l14.064,15.362,1.012,33.682-4.982-29.582L34.962,91.988Z" transform="translate(-27.8 -56.412)"/>
                  <path id="Path_566" data-name="Path 566" class="cls-5" d="M152.782,205.1l-.882,2.18,2.491,3.659,2.777-2.777Z" transform="translate(-119.697 -164.23)"/>
                </g>
              </g>
              <g id="Group_286" data-name="Group 286" transform="translate(38.078)">
                <path id="Path_567" data-name="Path 567" class="cls-3" d="M297.418,20.9s1.142-4.333,1.271-4.489c.1-.156.493-2.906,0-3.737S294.356,8,293.759,8s-1.635,1.92-1.816,2.361c-.156.441.649,6.851.649,6.851l.389,1.453,2.465,2.7Z" transform="translate(-260.856 -8)"/>
                <g id="Group_285" data-name="Group 285" transform="translate(0 10.276)">
                  <path id="Path_568" data-name="Path 568" class="cls-4" d="M209.67,50.688,203.52,47.6l-10.25,31.788L180.4,90.649h-3.5l-4.7.882V133.1h5.553l6.461-2.621,4.956-29.582,13.338-17.723Z" transform="translate(-172.2 -47.6)"/>
                  <path id="Path_569" data-name="Path 569" class="cls-5" d="M243.956,59.5l-10.38,30.75-14.064,15.362L218.5,139.293l4.956-29.582,13.338-17.723Z" transform="translate(-206.486 -56.412)"/>
                  <path id="Path_570" data-name="Path 570" class="cls-5" d="M176.585,205.1l.882,2.18-2.491,3.659-2.777-2.777Z" transform="translate(-172.2 -164.23)"/>
                </g>
              </g>
              <path id="Path_571" data-name="Path 571" class="cls-6" d="M125.992,369.547v12.274l-2.387,16.5L121.581,412.1l-4,30H113.1a7.139,7.139,0,0,1-3.3-1.22l2.491-44.451,2.569-29.53,6.928,2.647h4.2" transform="translate(-87.914 -273.769)"/>
            </g>
            <path id="Path_572" data-name="Path 572" class="cls-7" d="M105.359,654.1s-.8,4.749-.908,5.579-1.868,3.451-1.816,4.489-.234,1.479,0,1.531.882-1.272,2.154-1.479,2.8-1.038,3.737-1.038,3.685-.441,3.685-.441-3.3-1.972-4.126-2.517-1.375-.83-1.427-1.427-.13-4.23-.13-4.23Z" transform="translate(-82.539 -486.443)"/>
            <path id="Path_573" data-name="Path 573" class="cls-8" d="M110.97,656.541s.052,3.01.6,3.944,1.713,2.517,1.765,2.7c.052.156.389,1.92.389,2.154a14.205,14.205,0,0,1-.882,1.868s-9.342.441-9.938,0c0,0,1.583-2.517,3.347-2.569a22.682,22.682,0,0,0,2.958-.337c.337,0,2.906-.208,2.906-.208s-3.477-1.687-4.074-2.024a4.493,4.493,0,0,1-1.479-2.517c0-.649.208-3.451.208-3.451l4.463.208Z" transform="translate(-82.805 -487.924)"/>
            <path id="Path_574" data-name="Path 574" class="cls-7" d="M134.692,656.626l-1.583-.026a3.376,3.376,0,0,0,0,2.543,35.486,35.486,0,0,0,2.413,4.385Z" transform="translate(-104.996 -488.295)"/>
            <path id="Path_575" data-name="Path 575" class="cls-9" d="M168.2,216.9l-1.4,1.4.571.623.7.753L169.6,218.3Z" transform="translate(-130.124 -162.693)"/>
            <path id="Path_576" data-name="Path 576" class="cls-4" d="M156.581,222.3l1.271,1.375.415,1.92,6.383,6.876-2.206,29.5-.8.493h-7.863L153,230.63Z" transform="translate(-119.904 -166.691)"/>
            <g id="Group_288" data-name="Group 288" transform="translate(38.441 62.823)">
              <circle id="Ellipse_69" data-name="Ellipse 69" class="cls-5" cx="0.493" cy="0.493" r="0.493"/>
              <circle id="Ellipse_70" data-name="Ellipse 70" class="cls-5" cx="0.493" cy="0.493" r="0.493" transform="translate(0 6.565)"/>
              <path id="Path_577" data-name="Path 577" class="cls-5" d="M174.586,301.293a.493.493,0,1,1-.493-.493A.51.51,0,0,1,174.586,301.293Z" transform="translate(-173.6 -287.644)"/>
              <circle id="Ellipse_71" data-name="Ellipse 71" class="cls-5" cx="0.493" cy="0.493" r="0.493" transform="translate(0 19.747)"/>
              <circle id="Ellipse_72" data-name="Ellipse 72" class="cls-5" cx="0.493" cy="0.493" r="0.493" transform="translate(0 26.338)"/>
            </g>
            <path id="Path_578" data-name="Path 578" class="cls-5" d="M147.04,351.4l-.1-3.84s-2.439-4.048-2.439-4.23a4.866,4.866,0,0,0-.6-.934l2.024,6.357.337,2.335Z" transform="translate(-113.166 -255.627)"/>
            <path id="Path_579" data-name="Path 579" class="cls-5" d="M140.494,361.763,139.3,358l.311,3.425Z" transform="translate(-109.76 -267.178)"/>
            <path id="Path_580" data-name="Path 580" class="cls-5" d="M184.7,354l1.505-4.152,1.246-3.944-1.375,7.863,1.713-.441,5.449-1.868L187.58,354Z" transform="translate(-143.379 -258.218)"/>
            <path id="Path_581" data-name="Path 581" class="cls-5" d="M200.312,361.5l-1.012,3.425,1.22-.571Z" transform="translate(-154.19 -269.77)"/>
            <rect id="Rectangle_163" data-name="Rectangle 163" class="cls-10" width="5.19" height="1.583" transform="translate(35.587 95.778)"/>
            <path id="Path_582" data-name="Path 582" class="cls-10" d="M233,390.7" transform="translate(-179.145 -291.393)"/>
            <path id="Path_583" data-name="Path 583" class="cls-11" d="M157.662,122.347h0a4.214,4.214,0,0,0-.441-.493,3.709,3.709,0,0,0-.519-.363l-.96-.856-.13.259a8.345,8.345,0,0,0-2.154-.675l-.7-.519-2.284.934-.519-.519-1.609,1.713-.052.052a2.808,2.808,0,0,0-.441.493h0a14.182,14.182,0,0,0-1.453,2.8l.285,5.06.571,2.7a47.768,47.768,0,0,1,.623-5.553c.311-1.375,3.815-2.309,4.878-2.569,1.09.259,4.619,1.194,4.93,2.569a54.543,54.543,0,0,1,.623,5.553l.571-2.7.285-5.06A16.609,16.609,0,0,0,157.662,122.347Z" transform="translate(-115.017 -90.715)"/>
          </g>
        </g>
        <path id="Path_584" data-name="Path 584" class="cls-7" d="M133.3,657.8s.156,4.645,2.517,6.617Z" transform="translate(-105.316 -489.183)"/>
        <path id="Path_585" data-name="Path 585" class="cls-6" d="M173.1,370.721v12.274l2.88,16.607,1.505,13.675,4,30h4.489a7.139,7.139,0,0,0,3.3-1.22L187.4,397.708,184.232,368.1" transform="translate(-134.789 -274.658)"/>
        <path id="Path_586" data-name="Path 586" class="cls-7" d="M212.451,655.2s.8,4.749.908,5.579,1.868,3.451,1.816,4.489.234,1.479,0,1.531-.882-1.271-2.154-1.479-2.8-1.038-3.737-1.038-3.685-.441-3.685-.441,3.3-1.972,4.126-2.517,1.375-.83,1.427-1.427.13-4.23.13-4.23Z" transform="translate(-158.855 -487.258)"/>
        <path id="Path_587" data-name="Path 587" class="cls-8" d="M203.551,657.641s-.052,3.01-.6,3.944-1.713,2.517-1.765,2.7-.389,1.92-.389,2.154a16,16,0,0,0,.882,1.868s9.342.441,9.938,0c0,0-1.583-2.517-3.347-2.569a22.671,22.671,0,0,1-2.958-.337c-.311,0-2.906-.208-2.906-.208s3.477-1.687,4.074-2.024a4.493,4.493,0,0,0,1.479-2.517c0-.649-.208-3.451-.208-3.451l-4.463.208Z" transform="translate(-155.301 -488.739)"/>
        <path id="Path_588" data-name="Path 588" class="cls-7" d="M203.03,657.726l1.583-.026a3.376,3.376,0,0,1,0,2.543,35.489,35.489,0,0,1-2.413,4.385Z" transform="translate(-156.338 -489.109)"/>
        <path id="Path_589" data-name="Path 589" class="cls-7" d="M204.817,658.9s-.156,4.645-2.517,6.617Z" transform="translate(-156.412 -489.998)"/>
      </g>
      <path id="Path_590" data-name="Path 590" class="cls-12" d="M58.3,93.019H55.367l-12.9-11.262L33.233,50.8,25.5,54.692l7.759,30.853,13.312,17.723.1,18.32h0v10.795l5.5-2.543L58.3,111.573l2.854-13.909Z" transform="translate(-25.489 -39.694)"/>
      <path id="Path_591" data-name="Path 591" class="cls-13" d="M112.861,359.743h-.882l-.415-2.543-.13.078v-.026l-.234.1-2.543,1.064-1.557.856,3.737,4.671,1.557,1.271" transform="translate(-85.915 -266.586)"/>
      <path id="Path_592" data-name="Path 592" class="cls-13" d="M143.977,213.5l2.854,4.645-2.854,13.909-2.777,8.252,1.3-14.142,1.531-1.038-1.246-4.671L142.5,213.5Z" transform="translate(-111.166 -160.175)"/>
      <path id="Path_593" data-name="Path 593" class="cls-12" d="M185.391,95.241,182.9,98.9l1.246,17.438,7.162,13.26,3.373,5.008,1.22-17v-4.93l1.194-7.188,13.338-17.723,7.162-31.061L210.121,53.8l-8.926,30.179L188.323,95.241Z" transform="translate(-142.046 -41.915)"/>
      <path id="Path_594" data-name="Path 594" class="cls-13" d="M185.391,213.5l.778,5.449-.778,6.695-1.246.311,2.024.934-1.012,8.018,1.375,4.1-2.387-4.411L182.9,217.159Z" transform="translate(-142.046 -160.175)"/>
      <path id="Path_595" data-name="Path 595" class="cls-13" d="M218.451,356.536l-.882,5.475-1.635,1.453-.934-6.1.908-.363.571-3.5Z" transform="translate(-165.816 -263.846)"/>
      <path id="Path_596" data-name="Path 596" class="cls-13" d="M116.273,315.6l-3.373,1.739v1.505l3.373-1.816Z" transform="translate(-90.21 -235.781)"/>
      <path id="Path_597" data-name="Path 597" class="cls-13" d="M212,315.6l3.373,1.739v1.505L212,317.027Z" transform="translate(-163.595 -235.781)"/>
      <path id="Path_598" data-name="Path 598" class="cls-12" d="M187.7,294.8s3.036,14.194,3.5,14.739c.467.571,7.032,3.529,7.032,3.529l-2.335-5.89-4.541-9Z" transform="translate(-145.6 -220.378)"/>
      <path id="Path_599" data-name="Path 599" class="cls-12" d="M130.581,285,128.5,301.4s-1.842.908-4.074,1.894-.96-1.79-.96-1.79l3.814-7.344Z" transform="translate(-97.771 -213.121)"/>
      <path id="Path_600" data-name="Path 600" class="cls-12" d="M136.647,262.3l-.6,22.264-2.751-.571Z" transform="translate(-105.316 -196.312)"/>
      <path id="Path_601" data-name="Path 601" class="cls-12" d="M189.724,265.1l-2.024,7.707,5.268,9.757-1.038-11.418Z" transform="translate(-145.6 -198.385)"/>
      <path id="Path_602" data-name="Path 602" class="cls-12" d="M133.685,262.3l1.479,6.254-2.673,6.825-3.192-2.595Z" transform="translate(-102.354 -196.312)"/>
      <path id="Path_603" data-name="Path 603" class="cls-13" d="M146.2,259.338l1.09,9,1.816-10.042Z" transform="translate(-114.869 -193.35)"/>
      <path id="Path_604" data-name="Path 604" class="cls-6" d="M153.082,393.889s1.012-1.635,1.531-1.635,1.271.8,1.271.8v-5.553l-.156-10.406-7.629.778Z" transform="translate(-116.276 -281.322)"/>
      <path id="Path_605" data-name="Path 605" class="cls-10" d="M162.452,376.285l-.052,1.453h5.242V376l-1.349.285Z" transform="translate(-126.865 -280.508)"/>
      <path id="Path_606" data-name="Path 606" class="cls-9" d="M164.607,222.923l-.7-.623-.7.623L161,245.005l2.906,3.14,2.906-3.14Z" transform="translate(-125.829 -166.691)"/>
    </g>
    <g id="Group_293" data-name="Group 293" transform="translate(0 3.913)">
      <path id="Path_607" data-name="Path 607" class="cls-14" d="M88.59,24.923H0l2.777-4.775L0,15.4H88.59l-2.777,4.749Z" transform="translate(0 -15.425)"/>
      <text id="SUCCESS" class="cls-15" transform="translate(32 6.975)"><tspan x="0" y="0">SUCCESS</tspan></text>
    </g>
    <g id="Group_294" data-name="Group 294" transform="translate(6.069 -0.113)">
      <path id="Path_608" data-name="Path 608" class="cls-3" d="M23.391,5.744s.675,2.413,1.427,2.595c.778.182,5.242-.078,5.761-.467.493-.389.934-5.06-1.142-5.657S23.262,5.329,23.391,5.744Z" transform="translate(-23.388 -1.563)"/>
      <path id="Path_609" data-name="Path 609" class="cls-3" d="M294.914,3.472s-.675,2.413-1.427,2.595c-.778.182-5.242-.078-5.761-.467-.493-.389-.934-5.06,1.142-5.657C290.97-.6,295.044,3.056,294.914,3.472Z" transform="translate(-218.829 0.113)"/>
    </g>
  </g>
</svg>
