<svg id="Layer_1" data-name="Layer 1" xmlns="http://www.w3.org/2000/svg" viewBox="0 0 20.03 32.87"><defs><style>.cls-1{fill:#2979ff;}</style></defs><title>downloadArtboard 1svg</title><g id="Group_168" data-name="Group 168"><path id="Rectangle_63" data-name="Rectangle 63" class="cls-1" d="M7.07,0h0A.74.74,0,0,1,7.8.74V3.32a.73.73,0,0,1-.73.73h0a.73.73,0,0,1-.74-.73V.74A.74.74,0,0,1,7.07,0Z"/><path id="Path_328" data-name="Path 328" class="cls-1" d="M19.29,22.12H16.65V4.42a.74.74,0,0,0-1.47,0v5.9a.74.74,0,1,1-1.48,0h0V6.63a.74.74,0,0,0-1.47,0v5.9a.74.74,0,1,1-1.47,0h0V8.85a.74.74,0,0,0-1.48,0h0v5.9a.74.74,0,0,1-1.47,0V6.63a.74.74,0,0,0-1.48,0h0v4.8a.74.74,0,0,1-1.47,0v-7a.74.74,0,1,0-1.47,0h0V22.12H.74a.74.74,0,0,0-.53,1.25L9.5,32.66a.74.74,0,0,0,1,0l9.29-9.29a.74.74,0,0,0,0-1,.76.76,0,0,0-.52-.21ZM8.54,18.06a.74.74,0,0,1,0-1.47.74.74,0,1,1,0,1.47Z"/></g></svg>