<?xml version="1.0" standalone="no"?><!-- Generator: Gravit.io --><svg xmlns="http://www.w3.org/2000/svg" xmlns:xlink="http://www.w3.org/1999/xlink" style="isolation:isolate" viewBox="844 449 430.817 581.363" width="430.817" height="581.363"><g id="about"><rect x="1050.421" y="950.966" width="5.03" height="58.213" transform="matrix(1,0,0,1,0,0)" fill="rgb(53,53,53)"/><path d=" M 1090.762 950.966 C 1090.749 952.853 1089.223 954.378 1087.337 954.391 L 1017.782 954.391 C 1015.896 954.378 1014.37 952.853 1014.357 950.966 L 1014.357 950.966 C 1014.37 949.08 1015.896 947.554 1017.782 947.541 L 1087.337 947.541 C 1088.249 947.531 1089.126 947.888 1089.77 948.533 C 1090.415 949.178 1090.772 950.054 1090.762 950.966 Z " fill="rgb(53,53,53)"/><path d=" M 1027.093 925.394 C 1023.774 927.629 1021.349 930.963 1020.245 934.81 C 1018.319 941.23 1023.027 955.354 1032.336 955.997 C 1048.387 957.067 1050.1 948.613 1061.014 954.177 C 1071.929 959.849 1082.523 955.89 1084.128 951.287 C 1085.734 946.686 1092.796 927.104 1073.107 925.713 C 1051.276 925.177 1027.093 925.394 1027.093 925.394 Z " fill="rgb(0,97,99)"/><path d=" M 1029.553 854.444 C 1029.553 854.444 1031.909 839.784 1040.147 838.285 C 1040.147 838.285 1059.836 839.89 1059.836 839.89 C 1059.836 839.89 1068.504 847.381 1071.287 853.266 C 1073.963 859.044 1035.546 864.93 1029.553 854.444 Z " fill="rgb(112,112,112)"/><path d=" M 1039.505 812.071 C 1039.505 812.071 1047.851 813.676 1050.313 809.926 C 1052.881 806.181 1055.236 808.106 1058.339 812.173 C 1061.549 816.237 1066.899 825.014 1067.541 831.969 C 1068.037 834.193 1067.812 836.517 1066.899 838.605 C 1065.99 839.602 1064.712 840.183 1063.363 840.212 C 1061.008 840.319 1058.333 843.851 1058.333 849.629 C 1058.333 856.799 1054.802 857.547 1054.802 857.547 C 1054.802 857.547 1041.212 862.255 1040.891 850.163 C 1040.677 842.993 1041.426 841.71 1040.677 839.569 C 1039.927 837.429 1035.112 837.425 1032.436 833.474 C 1029.874 829.724 1022.062 813.781 1039.505 812.071 Z " fill="rgb(250,187,134)"/><path d=" M 1057.803 803.722 C 1057.803 803.722 1059.193 808.537 1057.803 811.32 C 1057.161 812.71 1052.345 816.671 1048.172 816.563 C 1045.66 816.499 1043.157 816.899 1040.789 817.74 L 1045.496 817.74 C 1046.268 819.584 1046.911 821.479 1047.422 823.412 C 1047.957 825.766 1045.496 825.872 1045.925 827.799 C 1046.352 829.725 1048.92 833.257 1048.92 833.257 L 1046.459 834.541 C 1046.459 834.541 1043.677 828.548 1041.751 828.121 C 1038.649 827.479 1036.401 830.688 1038.755 833.257 C 1041.538 836.146 1042.287 836.681 1041.11 844.172 C 1040.575 841.39 1032.87 838.929 1028.59 830.903 C 1024.309 822.984 1026.878 816.671 1030.302 813.782 C 1029.874 809.073 1035.438 805.435 1039.183 805.863 C 1042.929 806.291 1046.246 802.011 1046.246 802.011 C 1046.246 802.011 1045.818 804.471 1044.32 805.328 C 1045.925 805.648 1047.317 803.508 1047.317 803.081 C 1047.518 803.856 1047.361 804.681 1046.888 805.328 C 1046.888 805.328 1049.884 805.328 1050.741 803.723 C 1050.78 804.464 1050.462 805.18 1049.885 805.648 C 1051.321 805.944 1052.794 805.355 1053.63 804.151 C 1053.73 805.244 1053.066 806.262 1052.026 806.611 C 1054.487 807.04 1055.664 804.257 1055.77 803.616 C 1056.004 804.949 1055.737 806.32 1055.021 807.469 C 1056.412 807.68 1057.482 805.434 1057.803 803.722 Z " fill="rgb(54,54,54)"/><path d=" M 1088.087 891.47 C 1084.984 880.449 1078.564 856.907 1076.423 855.73 C 1074.176 854.552 1069.896 854.339 1065.295 852.947 C 1062.514 852.08 1060.127 850.261 1058.554 847.811 C 1057.376 855.939 1053.524 857.549 1049.778 857.763 C 1045.283 857.334 1042.073 855.407 1040.897 847.377 C 1039.474 850.01 1037.101 851.999 1034.262 852.942 C 1029.661 854.333 1025.381 854.655 1023.133 855.725 C 1020.886 856.903 1014.465 880.446 1011.47 891.466 C 1008.366 902.487 1007.189 905.056 1011.47 906.982 C 1014.252 908.267 1021.528 909.127 1026.13 909.657 C 1026.023 916.078 1026.023 921.749 1026.237 924.745 C 1041.004 931.059 1059.624 933.307 1073.214 924.745 C 1073.429 921.856 1073.429 916.078 1073.321 909.657 C 1077.922 909.122 1085.2 908.267 1087.982 906.982 C 1092.261 905.063 1091.088 902.492 1088.087 891.47 Z  M 1026.342 899.71 C 1024.651 899.628 1022.97 899.413 1021.312 899.068 C 1020.35 898.64 1026.983 880.984 1026.983 880.984 C 1026.983 880.984 1026.664 889.757 1026.344 899.709 L 1026.342 899.71 Z  M 1078.134 898.961 C 1076.477 899.306 1074.795 899.521 1073.104 899.603 C 1072.89 889.652 1072.462 880.876 1072.462 880.876 C 1072.462 880.876 1079.098 898.532 1078.135 898.961 L 1078.134 898.961 Z " fill="rgb(231,254,0)"/><path d=" M 1088.087 891.469 C 1084.984 880.445 1078.564 856.904 1076.42 855.724 C 1073.065 853.888 1069.556 852.348 1065.933 851.123 C 1065.398 850.909 1063.788 849.838 1063.365 849.625 C 1057.695 876.163 1060.048 927.634 1064.436 934.269 C 1069.785 931.273 1073.317 927.099 1080.379 927.634 C 1081.877 927.741 1073.531 917.789 1073.317 909.55 C 1077.918 909.015 1085.194 908.159 1087.978 906.875 C 1092.261 905.059 1091.083 902.491 1088.087 891.469 Z  M 1078.135 898.957 C 1076.478 899.302 1074.796 899.516 1073.105 899.599 C 1072.891 889.647 1072.463 880.872 1072.463 880.872 C 1072.463 880.872 1079.098 898.532 1078.135 898.957 Z " fill="rgb(54,54,54)"/><path d=" M 1066.364 849.739 C 1065.829 849.525 1063.797 849.954 1063.369 849.739 C 1061.691 857.9 1060.512 866.155 1059.837 874.46 C 1062.508 866.835 1066.373 859.683 1071.289 853.272 C 1069.682 852.518 1068.29 850.271 1066.364 849.739 Z " fill="rgb(112,112,112)"/><path d=" M 1037.69 848.987 C 1036.35 850.155 1034.878 851.16 1033.302 851.983 C 1029.832 852.938 1026.463 854.228 1023.244 855.836 C 1020.997 857.013 1014.576 880.556 1011.58 891.576 C 1008.477 902.598 1007.299 905.167 1011.58 907.092 C 1014.362 908.377 1021.639 909.237 1026.241 909.768 C 1026.133 918.008 1018.215 928.393 1020.676 933.845 C 1020.676 933.845 1022.174 926.034 1040.793 933.845 C 1046.459 919.078 1046.246 875.74 1037.69 848.987 Z  M 1026.346 899.709 C 1024.656 899.627 1022.974 899.412 1021.317 899.067 C 1020.354 898.639 1026.988 880.983 1026.988 880.983 C 1026.988 880.983 1026.663 889.757 1026.342 899.709 L 1026.346 899.709 Z " fill="rgb(54,54,54)"/><path d=" M 1037.687 848.987 C 1036.724 849.737 1034.369 849.202 1032.978 849.629 C 1031.801 849.95 1030.946 852.625 1029.983 852.947 C 1035.197 858.213 1039.533 864.283 1042.824 870.924 C 1041.644 863.497 1039.928 856.166 1037.687 848.987 L 1037.687 848.987 Z " fill="rgb(112,112,112)"/><path d=" M 1051.384 1009.611 C 1051.384 1009.611 1066.364 982.645 1073.641 971.088 C 1073.641 971.088 1087.016 948.081 1086.802 940.056 C 1086.802 940.056 1084.771 930.532 1081.452 929.462 C 1078.134 928.499 1070.644 931.388 1067.326 935.99 C 1064.008 940.698 1057.481 961.351 1050.633 981.04 L 1042.18 1005.434 C 1042.073 1005.648 1045.069 1009.611 1051.384 1009.611 Z " fill="rgb(0,106,114)"/><path d=" M 1043.571 1000.299 C 1043.571 1000.299 1037.686 1010.786 1032.549 1014.425 C 1027.413 1017.956 1022.063 1019.776 1019.708 1023.841 C 1018.959 1026.624 1040.04 1025.873 1047.317 1022.129 C 1050.634 1020.417 1052.346 1012.606 1053.951 1006.078 C 1055.556 999.442 1043.571 1000.299 1043.571 1000.299 Z " fill="rgb(38,38,38)"/><path d=" M 1058.446 999.12 C 1058.446 999.12 1047.852 1000.298 1046.029 992.593 C 1043.76 994.87 1041.651 997.301 1039.716 999.868 C 1039.716 999.868 1044.532 1007.787 1055.982 1007.359 C 1057.078 1004.703 1057.903 1001.942 1058.446 999.12 L 1058.446 999.12 Z " fill="rgb(73,73,73)"/><path d=" M 1055.022 1009.611 C 1055.022 1009.611 1040.042 982.645 1032.765 971.088 C 1032.765 971.088 1019.389 948.081 1019.604 940.056 C 1019.604 940.056 1021.635 930.532 1024.954 929.462 C 1028.271 928.499 1035.762 931.388 1039.079 935.99 C 1042.397 940.698 1048.924 961.351 1055.773 981.04 L 1064.227 1005.438 C 1064.332 1005.648 1061.229 1009.611 1055.022 1009.611 Z " fill="rgb(0,118,134)"/><path d=" M 1062.832 1000.299 C 1062.832 1000.299 1068.718 1010.786 1073.854 1014.425 C 1078.99 1017.956 1084.341 1019.776 1086.695 1023.841 C 1087.445 1026.624 1066.363 1025.873 1059.088 1022.129 C 1055.77 1020.417 1054.058 1012.606 1052.452 1006.078 C 1050.848 999.442 1062.832 1000.299 1062.832 1000.299 Z " fill="rgb(53,53,53)"/><path d=" M 1048.495 997.836 C 1048.495 997.836 1058.34 1001.366 1060.158 993.555 C 1062.94 993.555 1066.686 999.764 1066.686 999.764 C 1066.686 999.764 1061.871 1007.682 1050.421 1007.254 C 1047.531 1003.186 1048.495 997.836 1048.495 997.836 Z " fill="rgb(89,89,89)"/><path d=" M 922.224 1000.619 C 922.224 1000.619 920.405 1006.397 923.294 1015.068 C 925.326 1018.385 938.917 1023.307 938.917 1023.307 C 938.917 1023.307 941.165 1027.16 927.147 1026.41 C 919.977 1026.09 909.597 1012.82 907.565 1008.969 C 905.532 1005.117 908.315 1003.511 910.882 1002.334 C 912.556 1001.489 913.992 1000.237 915.059 998.696 C 915.059 998.696 921.26 998.372 922.224 1000.619 Z " fill="rgb(41,121,255)"/><path d=" M 891.298 940.158 C 891.298 940.158 894.616 935.878 888.515 946.253 C 882.42 956.525 947.478 938.87 948.761 942.294 C 947.049 947.429 939.666 941.973 932.067 962.95 C 927.268 975.621 921.133 987.746 913.768 999.119 L 922.544 1006.182 C 922.544 1006.182 937.845 985.957 952.185 969.264 C 966.526 952.57 974.439 938.018 967.167 932.345 C 967.167 932.345 968.023 925.817 902.747 936.198 C 892.368 937.804 891.298 940.158 891.298 940.158 Z " fill="rgb(54,54,54)"/><rect x="950.153" y="912.764" width="48.903" height="1.177" transform="matrix(1,0,0,1,0,0)" fill="rgb(48,48,48)"/><path d=" M 1014.466 865.788 C 1014.522 865.537 1014.683 865.322 1014.909 865.199 C 1015.135 865.076 1015.403 865.057 1015.644 865.146 L 1015.644 865.146 C 1015.895 865.201 1016.11 865.363 1016.232 865.588 C 1016.355 865.814 1016.375 866.082 1016.285 866.323 L 1001.732 913.835 C 1001.677 914.086 1001.515 914.301 1001.29 914.424 C 1001.064 914.547 1000.796 914.567 1000.555 914.477 L 1000.555 914.477 C 1000.304 914.422 1000.089 914.26 999.966 914.034 C 999.843 913.809 999.824 913.541 999.913 913.3 L 1014.466 865.788 Z " fill="rgb(140,140,140)"/><path d=" M 948.442 913.513 L 948.442 913.941 C 948.3 915.209 949.206 916.355 950.474 916.509 L 998.092 916.509 C 999.338 916.317 1000.224 915.197 1000.124 913.941 L 1000.124 913.513 L 948.442 913.513 Z " fill="rgb(81,81,81)"/><path d=" M 1155.074 1000.94 C 1155.074 1000.94 1153.469 1009.608 1142.771 1015.172 C 1142.771 1015.172 1141.916 1023.411 1151.866 1021.806 C 1151.866 1021.806 1163.21 1014.53 1166.315 1012.603 C 1166.315 1012.603 1165.78 1005.433 1164.71 1002.009 C 1163.64 998.587 1155.074 1000.94 1155.074 1000.94 Z " fill="rgb(38,153,251)"/><path d=" M 1115.052 1002.33 C 1115.052 1002.33 1110.876 1010.035 1099.001 1012.069 C 1099.001 1012.069 1095.683 1019.666 1105.636 1021.164 C 1105.636 1021.164 1118.584 1017.739 1122.222 1016.884 C 1125.753 1016.028 1123.935 1009.928 1123.935 1006.291 C 1123.935 1002.652 1115.052 1002.33 1115.052 1002.33 Z " fill="rgb(38,153,251)"/><path d=" M 1107.454 873.492 C 1107.454 873.492 1106.064 913.513 1107.882 934.594 C 1109.595 955.675 1112.163 986.601 1110.237 1005.541 C 1119.975 1007.146 1125.538 1005.541 1125.538 1005.541 C 1125.538 1005.541 1129.603 969.157 1129.819 951.716 C 1130.036 934.274 1134.955 908.596 1136.027 905.702 C 1139.558 917.794 1151.116 990.988 1152.934 1003.507 C 1162.565 1004.257 1165.776 1002.009 1165.776 1002.009 C 1165.776 1002.009 1165.561 964.556 1161.815 944.975 C 1158.177 925.392 1161.601 882.91 1157.214 866.863 C 1138.809 858.618 1107.454 873.492 1107.454 873.492 Z " fill="rgb(126,126,126)"/><path d=" M 1114.411 788.528 C 1110.746 789.864 1107.172 791.437 1103.71 793.235 C 1099.75 795.483 1086.803 828.656 1082.201 835.183 C 1077.6 841.711 1053.417 870.817 1053.417 870.817 L 1053.417 880.447 C 1053.417 880.447 1077.174 863.111 1091.085 846.955 C 1097.826 839.143 1106.921 824.265 1106.921 824.265 C 1110.329 842.897 1109.302 862.069 1103.926 880.231 C 1133.138 888.792 1159.678 879.053 1159.678 879.053 C 1159.678 879.053 1155.077 857.437 1155.614 816.56 L 1161.822 846.203 L 1167.494 883.549 L 1177.017 876.058 C 1177.017 876.058 1176.162 844.062 1173.057 831.864 C 1163.427 801.473 1155.08 788.846 1148.553 784.887 C 1142.25 781.308 1135.017 779.705 1127.793 780.286 C 1122.437 781.144 1114.411 788.528 1114.411 788.528 Z " fill="rgb(38,153,251)"/><path d=" M 1101.785 753 C 1101.785 753 1097.184 760.17 1092.796 759.421 C 1088.301 758.671 1088.088 761.668 1088.836 766.804 C 1089.585 771.94 1092.261 781.892 1096.862 787.136 C 1098.146 789.046 1100.027 790.475 1102.212 791.199 C 1103.533 791.259 1104.818 790.753 1105.743 789.809 C 1107.455 788.203 1111.839 788.738 1116.015 792.699 C 1121.152 797.621 1126.074 789.809 1126.074 789.809 C 1126.074 789.809 1130.568 782.532 1128.535 780.499 C 1123.505 775.362 1122.007 775.04 1121.044 773.115 C 1119.974 771.083 1123.292 767.55 1122.329 762.949 C 1121.26 758.136 1114.946 741.549 1101.785 753 Z " fill="rgb(250,187,134)"/><path d=" M 1089.372 763.488 C 1089.372 763.488 1093.331 765.307 1099.756 763.38 C 1106.926 761.236 1107.996 759.85 1108.638 763.38 C 1109.387 766.911 1110.457 767.233 1112.276 767.981 C 1114.094 768.729 1115.271 772.69 1115.271 772.69 L 1116.984 770.977 C 1116.094 769.42 1115.72 767.623 1115.914 765.841 C 1116.234 762.845 1119.124 762.631 1120.514 765.306 C 1121.905 767.981 1118.909 771.727 1122.334 774.722 C 1123.511 769.265 1125.01 758.136 1117.198 751.073 C 1109.387 744.01 1091.944 751.393 1090.018 755.996 C 1088.092 760.598 1089.799 762.635 1089.372 763.488 Z " fill="rgb(54,54,54)"/><path d=" M 1088.836 767.552 C 1088.836 767.552 1095.364 763.807 1106.707 763.164 C 1117.092 762.522 1123.188 765.625 1123.188 765.625 C 1123.188 765.625 1124.685 754.175 1118.265 749.039 C 1111.844 743.904 1098.148 744.759 1092.262 749.039 C 1086.377 753.319 1086.696 760.169 1088.836 767.552 Z " fill="rgb(53,53,53)"/><path d=" M 1108.74 763.059 C 1108.74 763.059 1096.969 760.276 1088.516 760.811 C 1088.516 760.811 1071.18 767.552 1076.53 771.619 C 1076.53 771.619 1090.656 774.615 1090.656 774.615 C 1090.12 772.569 1089.691 770.497 1089.372 768.407 C 1093.439 765.093 1105.855 763.059 1108.74 763.059 Z " fill="rgb(41,121,255)"/><path d=" M 1084.128 911.159 C 1084.13 911.671 1083.927 912.162 1083.566 912.524 C 1083.205 912.884 1082.714 913.087 1082.202 913.085 L 1018.638 913.085 C 1018.127 913.087 1017.636 912.884 1017.275 912.524 C 1016.913 912.162 1016.711 911.671 1016.713 911.159 L 1016.713 870.072 C 1016.711 869.561 1016.913 869.07 1017.275 868.708 C 1017.636 868.347 1018.127 868.144 1018.638 868.146 L 1082.201 868.146 C 1082.713 868.144 1083.204 868.347 1083.565 868.708 C 1083.926 869.07 1084.129 869.561 1084.127 870.072 L 1084.128 911.159 Z " fill="rgb(219,219,219)"/><path d=" M 1084.128 916.081 C 1084.128 916.295 1083.7 916.509 1083.273 916.509 L 1017.568 916.509 C 1017.14 916.509 1016.713 916.294 1016.713 916.081 L 1016.713 913.513 C 1016.713 913.299 1017.14 913.085 1017.568 913.085 L 1083.271 913.085 C 1083.699 913.085 1084.127 913.3 1084.127 913.513 L 1084.128 916.081 Z " fill="rgb(81,81,81)"/><path d=" M 1188.141 990.667 C 1188.141 990.667 1190.924 995.91 1189.532 1004.685 C 1188.141 1008.216 1174.015 1016.028 1174.015 1016.028 C 1174.015 1016.028 1174.015 1019.024 1187.606 1017.526 C 1196.487 1016.563 1202.159 1000.298 1203.443 996.231 C 1204.727 992.165 1201.73 991.096 1199.163 990.346 C 1197.427 989.801 1195.848 988.846 1194.559 987.564 C 1194.559 987.564 1188.782 988.313 1188.141 990.667 Z " fill="rgb(255,225,100)"/><path d=" M 1209.863 925.177 C 1209.863 925.177 1205.904 921.646 1213.501 930.527 C 1213.501 930.527 1155.821 933.309 1155.074 936.736 C 1157.535 941.443 1163.742 934.916 1174.55 953.75 C 1181.769 965.918 1189.665 977.671 1198.2 988.956 L 1188.997 995.697 C 1188.997 995.697 1172.838 976.643 1156.359 963.165 C 1139.773 949.575 1129.821 936.948 1135.92 930.317 C 1135.92 930.317 1133.995 924.222 1198.2 923.255 C 1208.365 923.144 1209.863 925.177 1209.863 925.177 Z " fill="rgb(13,31,96)"/><path d=" M 1201.088 1018.699 C 1201.088 1018.699 1164.92 1023.086 1164.064 1023.194 C 1164.064 1023.194 1162.887 1020.091 1167.167 1018.699 C 1167.167 1018.699 1197.665 1012.603 1197.665 1012.603 L 1201.088 1018.699 Z " fill="rgb(53,53,53)"/><path d=" M 1201.088 1018.699 C 1201.088 1018.699 1237.256 1023.086 1238.113 1023.194 C 1238.113 1023.194 1239.29 1020.091 1235.01 1018.699 C 1235.01 1018.699 1204.512 1012.603 1204.512 1012.603 L 1201.088 1018.699 Z " fill="rgb(53,53,53)"/><rect x="1196.38" y="963.058" width="9.416" height="56.179" transform="matrix(1,0,0,1,0,0)" fill="rgb(84,84,84)"/><rect x="1194.025" y="955.139" width="14.232" height="9.631" transform="matrix(1,0,0,1,0,0)" fill="rgb(53,53,53)"/><path d=" M 1161.388 958.029 L 1239.29 957.922 L 1262.511 863.969 L 1258.334 862.898 L 1235.22 952.786 L 1161.599 952.893 L 1161.388 958.029 Z " fill="rgb(53,53,53)"/><path d=" M 1258.016 863.969 C 1258.016 863.969 1246.673 861.079 1244.533 879.378 C 1244.533 879.378 1236.722 932.667 1232.334 938.233 C 1227.84 943.798 1233.618 951.181 1235.224 952.786 C 1238.541 939.731 1258.016 863.969 1258.016 863.969 Z " fill="rgb(238,238,238)"/><path d=" M 1163.529 952.888 L 1235.225 952.888 C 1235.225 952.888 1234.476 944.76 1226.772 944.76 C 1226.772 944.76 1201.517 950.431 1194.241 949.147 C 1186.857 947.863 1162.779 940.8 1163.529 952.888 Z " fill="rgb(238,238,238)"/><path d=" M 1119.226 1009.18 C 1119.226 1009.18 1110.024 1016.028 1092.689 1018.596 C 1083.808 1019.559 1082.523 1020.202 1082.523 1020.202 C 1082.523 1020.202 1080.918 1024.265 1087.659 1024.696 C 1094.507 1025.124 1115.16 1025.766 1119.441 1025.551 C 1123.722 1025.337 1123.618 1022.127 1123.401 1019.456 C 1123.265 1017.655 1123.597 1015.849 1124.364 1014.213 C 1124.364 1014.213 1121.581 1008.858 1119.226 1009.18 Z " fill="rgb(255,225,100)"/><path d=" M 1229.981 924.322 C 1229.981 924.322 1236.722 934.167 1229.873 943.583 C 1229.873 943.583 1165.668 954.926 1162.034 954.926 C 1158.072 958.457 1165.776 969.478 1150.046 984.246 C 1140.558 993.359 1132.09 1003.478 1124.791 1014.423 L 1115.054 1009.286 C 1115.054 1009.286 1127.252 981.356 1136.67 962.202 C 1146.086 942.94 1151.436 932.24 1160.639 932.025 L 1202.587 923.144 C 1212.431 920.361 1229.981 924.322 1229.981 924.322 Z " fill="rgb(18,53,124)"/><path d=" M 1231.907 924.427 L 1232.013 929.778 C 1232.013 929.778 1218.423 920.468 1200.766 921.324 C 1201.367 919.971 1201.868 918.575 1202.264 917.148 L 1231.907 924.427 Z " fill="rgb(153,153,153)"/><path d=" M 1191.561 817.634 C 1191.561 817.634 1188.993 827.05 1190.705 829.833 C 1189.824 831.959 1188.75 833.999 1187.496 835.928 L 1191.134 837.854 C 1191.134 837.854 1192.524 840.85 1192.097 842.03 C 1191.298 843.545 1191.813 845.418 1193.274 846.311 C 1195.305 847.809 1203.76 846.631 1203.76 846.631 C 1203.76 846.631 1205.045 852.089 1205.686 855.513 C 1206.221 858.938 1217.242 855.833 1217.242 855.833 L 1215.852 844.383 C 1215.852 844.383 1222.593 831.327 1222.914 823.409 C 1223.235 815.597 1216.601 808.427 1208.896 808.213 C 1201.194 807.896 1192.741 812.281 1191.561 817.634 Z " fill="rgb(250,187,134)"/><path d=" M 1197.343 841.817 C 1197.343 841.817 1196.059 838.072 1194.882 837.323 C 1193.704 836.68 1191.564 837.965 1190.387 837.429 C 1189.21 836.895 1190.387 839.25 1191.137 839.575 C 1192.219 838.967 1193.52 838.889 1194.667 839.36 C 1195.828 840.131 1196.417 841.52 1196.165 842.891 C 1195.845 843.426 1194.881 844.603 1193.598 843.961 C 1192.314 843.318 1191.993 842.784 1192.1 842.035 C 1191.35 842.25 1190.815 843.64 1191.244 845.78 C 1191.779 847.813 1194.562 847.925 1194.562 847.925 L 1201.303 846.855 C 1201.409 846.739 1197.45 845.028 1197.343 841.817 Z " fill="rgb(54,54,54)"/><path d=" M 1191.247 828.441 C 1191.247 828.441 1190.927 826.409 1191.783 825.658 C 1191.783 825.658 1197.453 828.334 1199.273 827.906 C 1196.274 828.869 1191.672 827.05 1191.247 828.441 Z " fill="rgb(54,54,54)"/><path d=" M 1216.498 849.95 C 1216.498 849.95 1210.403 859.153 1206.113 855.515 C 1204.616 857.976 1197.553 870.497 1196.268 876.489 C 1194.984 882.482 1193.913 890.824 1195.626 898.64 C 1197.338 906.456 1193.816 917.045 1191.672 923.144 C 1201.517 923.144 1231.265 929.029 1235.118 933.529 C 1234.797 924.219 1234.903 915.23 1235.867 908.596 C 1237.579 897.247 1238.863 860.335 1216.498 849.95 Z " fill="rgb(255,225,100)"/><path d=" M 1229.446 905.702 C 1229.446 905.702 1223.988 878.415 1220.67 871.779 C 1217.353 865.038 1218.423 860.971 1224.523 861.721 C 1230.618 862.577 1232.976 869.319 1232.976 869.319 C 1232.976 869.319 1240.681 902.166 1238.862 911.908 C 1237.042 921.649 1219.707 916.085 1210.825 915.972 C 1201.837 915.864 1185.999 915.972 1185.999 915.972 L 1181.29 910.086 C 1185.679 907.413 1229.446 905.702 1229.446 905.702 Z " fill="rgb(250,187,134)"/><path d=" M 1223.025 857.229 C 1216.929 856.374 1214.999 864.72 1218.317 871.356 C 1219.707 874.138 1221.42 880.237 1222.918 886.336 C 1227.14 883.841 1231.846 882.273 1236.722 881.735 C 1235.01 873.71 1233.404 867.287 1233.404 867.287 C 1233.404 867.287 1229.129 858.081 1223.025 857.229 Z " fill="rgb(255,237,159)"/><path d=" M 1192.206 815.704 C 1192.206 815.704 1201.194 816.454 1205.475 817.952 C 1205.475 817.952 1206.865 822.767 1206.33 823.301 C 1205.315 824.927 1205.4 827.008 1206.545 828.545 C 1207.504 829.67 1207.967 831.137 1207.83 832.608 L 1209.649 832.608 C 1209.649 832.608 1209.97 827.043 1213.18 827.901 C 1216.498 828.756 1214.677 832.288 1214.677 834.642 C 1214.677 837.103 1214.785 843.202 1215.748 844.273 C 1217.78 841.169 1223.453 829.184 1223.345 821.697 C 1223.239 814.099 1216.39 808.106 1209.01 807.571 C 1201.516 807.04 1193.383 811.855 1192.206 815.704 Z " fill="rgb(54,54,54)"/><path d=" M 1163.529 877.986 C 1161.246 875.929 1159.233 873.592 1157.536 871.03 C 1155.391 867.499 1154.434 865.787 1154.434 865.787 C 1154.434 865.787 1147.692 862.469 1145.98 861.827 C 1144.375 861.185 1135.708 863.005 1133.032 862.79 C 1132.389 864.288 1136.349 864.288 1138.382 864.181 C 1140.415 864.074 1143.197 864.181 1143.197 864.181 L 1138.81 865.786 C 1138.046 867.164 1137.189 868.487 1136.241 869.746 C 1136.67 870.495 1137.739 870.495 1139.56 867.714 C 1141.271 866.751 1145.124 867.286 1145.124 867.286 C 1145.124 867.286 1141.807 868.141 1141.061 868.463 C 1140.056 869.275 1139.157 870.21 1138.385 871.245 C 1138.385 871.245 1138.278 872.851 1141.703 869.961 C 1143.628 868.356 1144.806 869.747 1147.589 872.637 C 1150.371 875.527 1151.652 875.204 1151.652 875.204 L 1159.463 884.086 L 1163.64 878.307" fill="rgb(250,187,134)"/><path d=" M 1207.723 912.117 C 1207.732 912.517 1207.576 912.903 1207.294 913.185 C 1207.011 913.468 1206.626 913.623 1206.225 913.615 L 1154.432 913.615 C 1154.033 913.623 1153.646 913.468 1153.364 913.185 C 1153.081 912.903 1152.926 912.517 1152.934 912.117 L 1152.934 878.735 C 1152.926 878.335 1153.081 877.95 1153.364 877.667 C 1153.646 877.384 1154.033 877.229 1154.432 877.238 L 1206.224 877.238 C 1206.624 877.229 1207.01 877.384 1207.292 877.667 C 1207.575 877.95 1207.73 878.335 1207.722 878.735 L 1207.723 912.117 Z " fill="rgb(219,219,219)"/><path d=" M 1207.723 916.082 C 1207.723 916.297 1207.402 916.403 1207.081 916.403 L 1153.576 916.403 Q 1152.934 916.403 1152.934 916.082 L 1152.934 914.05 C 1152.934 913.836 1153.255 913.729 1153.576 913.729 L 1207.081 913.729 Q 1207.723 913.729 1207.723 914.05 L 1207.723 916.082 Z " fill="rgb(81,81,81)"/><rect x="969.094" y="921.859" width="6.741" height="103.906" transform="matrix(1,0,0,1,0,0)" fill="rgb(214,120,56)"/><path d=" M 980.65 1025.765 C 980.655 1025.966 980.577 1026.159 980.436 1026.3 C 980.294 1026.442 980.101 1026.52 979.901 1026.514 L 965.134 1026.514 C 964.933 1026.52 964.74 1026.442 964.599 1026.3 C 964.457 1026.159 964.379 1025.966 964.385 1025.765 L 964.385 1025.765 C 964.379 1025.565 964.457 1025.371 964.599 1025.23 C 964.74 1025.087 964.933 1025.011 965.134 1025.016 L 979.901 1025.016 C 980.328 1024.908 980.65 1025.337 980.65 1025.765 L 980.65 1025.765 Z " fill="rgb(214,120,56)"/><path d=" M 905.422 1025.868 C 905.422 1025.868 941.591 1030.256 942.446 1030.363 C 942.446 1030.363 943.624 1027.26 939.343 1025.868 C 939.343 1025.868 908.846 1019.773 908.846 1019.773 L 905.422 1025.868 Z " fill="rgb(53,53,53)"/><path d=" M 905.424 1025.868 C 905.424 1025.868 869.361 1030.256 868.4 1030.363 C 868.4 1030.363 867.222 1027.26 871.502 1025.868 C 871.502 1025.868 902 1019.773 902 1019.773 L 905.424 1025.868 Z " fill="rgb(53,53,53)"/><rect x="900.715" y="970.442" width="9.416" height="56.179" transform="matrix(1,0,0,1,0,0)" fill="rgb(84,84,84)"/><rect x="898.36" y="973.331" width="14.232" height="9.631" transform="matrix(1,0,0,1,0,0)" fill="rgb(53,53,53)"/><path d=" M 945.015 976.221 L 867.22 976.113 L 844 882.16 L 848.176 881.09 L 871.291 970.977 L 944.911 971.084 L 945.015 976.221 Z " fill="rgb(53,53,53)"/><path d=" M 848.387 882.16 C 848.387 882.16 859.73 879.27 861.87 897.569 C 861.87 897.569 869.682 950.859 874.069 956.424 C 878.564 961.989 872.785 969.372 871.18 970.977 C 867.863 957.922 848.387 882.16 848.387 882.16 Z " fill="rgb(238,238,238)"/><path d=" M 942.875 971.079 L 871.18 971.079 C 871.18 971.079 871.929 962.952 879.633 962.952 C 879.633 962.952 904.887 968.622 912.163 967.34 C 919.654 966.055 943.731 958.991 942.875 971.079 Z " fill="rgb(238,238,238)"/><path d=" M 960.319 902.277 C 963.292 901.367 966.134 900.072 968.772 898.425 C 972.197 896.07 973.801 895 973.801 895 C 973.801 895 981.4 894.786 983.112 894.892 C 984.824 894.892 991.994 900.243 994.455 901.206 C 994.455 902.811 990.817 901.206 988.997 900.243 C 987.178 899.28 984.61 898.211 984.61 898.211 L 987.928 901.422 C 988.019 902.97 988.234 904.508 988.57 906.023 C 987.928 906.558 986.857 906.129 986.425 902.812 C 985.247 901.207 981.502 900.03 981.502 900.03 C 981.502 900.03 984.178 902.174 984.713 902.812 C 985.28 903.971 985.711 905.192 985.997 906.45 C 985.997 906.45 985.355 907.948 983.429 903.883 C 982.359 901.528 980.646 902.384 976.901 903.775 C 973.157 905.273 972.086 904.31 972.086 904.31 L 961.278 909.126 L 959.784 902.062" fill="rgb(229,165,118)"/><path d=" M 1006.439 1008.217 C 1006.439 1008.217 1016.284 1016.028 1035.116 1019.345 C 1044.854 1020.63 1046.138 1021.378 1046.138 1021.378 C 1046.138 1021.378 1047.851 1025.872 1040.36 1026.085 C 1032.869 1026.299 1010.29 1026.406 1005.581 1026.085 C 1000.981 1025.658 1001.087 1022.233 1001.518 1019.344 C 1001.732 1017.377 1001.437 1015.388 1000.662 1013.566 C 1000.662 1013.566 1003.87 1007.788 1006.439 1008.217 Z " fill="rgb(41,121,255)"/><path d=" M 870.645 942.298 C 870.645 942.298 864.973 954.176 873.962 963.165 C 882.951 972.154 945.337 964.45 949.189 964.021 C 954.111 967.124 946.513 973.331 966.096 986.709 C 977.882 994.981 988.751 1004.486 998.52 1015.064 L 1008.151 1007.894 C 1008.151 1007.894 991.244 986.813 977.868 967.659 C 964.491 948.397 956.894 937.696 946.939 939.087 L 900.07 936.626 C 888.944 935.13 870.645 942.298 870.645 942.298 Z " fill="rgb(54,54,54)"/><path d=" M 869.683 940.265 L 869.469 946.255 C 869.469 946.255 884.985 935.661 904.996 936.624 C 904.333 935.089 903.762 933.517 903.284 931.916 L 869.683 940.265 Z " fill="rgb(54,54,54)"/><path d=" M 962.887 900.778 C 947.263 901.528 917.509 904.738 917.509 904.738 C 917.509 904.738 900.067 879.805 897.285 871.778 C 894.396 863.752 886.049 858.83 881.983 864.501 C 877.807 870.172 881.983 880.868 881.983 880.868 C 881.983 880.868 901.994 910.724 911.518 916.931 C 920.934 923.139 928.532 918.001 941.695 915.005 C 950.255 913.079 958.923 911.046 964.383 909.87 C 964.277 908.269 962.887 901.42 962.887 900.778 Z " fill="rgb(54,54,54)"/><path d=" M 924.364 823.733 C 924.364 823.733 924.792 834.862 922.117 837.429 C 922.535 840.025 923.216 842.57 924.149 845.028 L 919.654 846.205 C 919.654 846.205 917.3 849.095 917.406 850.485 C 917.917 852.342 916.88 854.271 915.052 854.873 C 912.377 855.943 903.389 852.518 903.389 852.518 C 903.389 852.518 900.499 858.296 899.001 861.934 C 897.503 865.572 886.159 859.259 886.159 859.259 L 890.655 846.955 C 890.655 846.955 886.591 830.69 888.194 821.916 C 888.194 821.916 899.109 806.935 907.67 808.647 C 916.338 810.466 924.578 817.527 924.364 823.733 Z " fill="rgb(250,187,134)"/><path d=" M 904.567 822.769 C 904.567 822.769 906.064 826.3 912.694 826.3 C 912.694 826.3 921.576 828.547 920.613 830.259 C 921.733 829.613 922.297 828.309 922.003 827.05 C 923.855 827.815 924.893 829.8 924.464 831.758 C 925.319 831.008 926.176 827.905 925.106 825.23 C 926.069 825.23 926.711 826.835 927.138 828.547 C 927.245 827.05 925.532 817.097 918.791 812.817 C 920.823 812.709 921.574 811.104 921.36 809.392 C 921.146 810.354 919.647 814.528 914.619 809.712 C 909.59 804.897 900.387 805.536 897.176 808.642 C 897.882 806.609 899.577 805.076 901.671 804.579 C 900.387 804.364 895.144 806.398 894.288 809.929 C 894.161 808.226 894.614 806.528 895.573 805.114 C 893.711 806.446 892.504 808.509 892.256 810.785 C 889.9 810.464 885.192 812.497 884.229 818.596 C 883.267 824.805 880.591 828.227 880.053 827.584 C 881.444 828.119 883.478 826.621 884.012 825.979 C 883.263 828.975 881.868 831.65 883.263 834.647 C 884.654 837.75 887.009 842.566 884.761 845.032 C 886.283 844.116 887.155 842.416 887.009 840.644 C 887.758 842.464 886.581 845.995 887.651 847.921 C 888.613 849.953 887.115 853.057 886.26 853.806 C 888.095 853.397 889.543 851.99 890.005 850.168 C 890.54 850.168 891.182 852.95 890.22 854.021 C 891.973 852.968 893.002 851.033 892.895 848.991 C 893.537 849.205 894.18 850.275 893.645 852.522 C 894.287 852.094 899.853 848.883 898.674 843.961 C 897.604 839.038 898.354 833.795 898.889 832.618 C 899.852 833.153 899.639 836.47 898.889 838.713 C 899.959 838.285 901.243 835.61 901.137 833.256 C 902.421 833.791 902.956 836.251 902.206 837.108 C 903.181 835.503 903.452 833.569 902.956 831.758 C 902.426 830.367 907.67 830.367 904.567 822.769 Z " fill="rgb(54,54,54)"/><path d=" M 911.737 848.987 C 911.737 848.987 914.092 845.135 915.59 844.707 C 915.59 844.707 919.12 846.205 920.512 845.992 C 920.512 845.992 920.084 848.023 919.122 848.239 C 918.072 847.301 916.664 846.87 915.269 847.062 C 913.664 847.382 912.594 849.844 912.701 850.592 C 912.916 851.342 913.664 852.84 915.269 852.412 C 916.874 851.984 917.413 851.449 917.516 850.7 C 918.372 851.235 918.586 852.844 917.409 854.98 C 916.338 857.125 913.129 856.478 913.129 856.478 L 905.959 853.588 C 905.959 853.482 910.881 852.625 911.737 848.987 Z " fill="rgb(54,54,54)"/><path d=" M 922.01 835.825 C 922.01 835.825 922.865 833.68 922.224 832.614 C 921.475 831.651 915.269 834.112 913.343 833.257 C 916.338 835.075 921.902 834.22 922.01 835.825 Z " fill="rgb(54,54,54)"/><path d=" M 887.232 855.622 C 887.232 855.622 894.188 866.006 899.003 862.042 C 900.715 864.824 908.741 879.056 910.131 885.905 C 911.523 892.646 906.172 900.565 904.246 909.446 C 902.482 918.406 902.923 927.661 905.53 936.412 C 894.295 936.412 873.214 937.697 868.934 942.726 C 869.254 932.24 871.288 926.996 870.218 919.398 C 868.398 906.343 861.867 867.499 887.232 855.622 Z " fill="rgb(41,121,255)"/><path d=" M 869.254 912.23 C 869.361 913.407 869.574 914.477 869.682 915.547 C 880.533 911.355 892.564 911.394 903.389 915.655 C 903.497 914.37 903.604 913.194 903.818 912.017 C 892.903 908.056 880.276 909.233 869.254 912.23 Z " fill="rgb(54,54,54)"/><path d=" M 870.111 918.756 C 870.111 918.971 870.218 919.184 870.218 919.398 C 870.5 921.599 870.571 923.82 870.432 926.034 C 880.919 922.288 892.048 921.433 903.177 922.288 L 903.177 917.794 C 892.262 915.118 881.24 916.081 870.111 918.756 Z " fill="rgb(54,54,54)"/><path d=" M 961.816 905.166 C 964.865 904.653 967.845 903.791 970.697 902.598 C 974.335 900.778 976.156 899.922 976.156 899.922 C 976.156 899.922 983.646 900.778 985.358 901.099 C 987.07 901.422 993.384 907.627 995.743 908.911 C 995.528 910.516 992.106 908.376 990.393 907.199 C 988.68 906.021 986.329 904.631 986.329 904.631 L 989.112 908.269 C 989.003 909.836 989.003 911.409 989.112 912.977 C 988.362 913.404 987.399 912.762 987.399 909.446 C 986.437 907.734 982.905 906.021 982.905 906.021 C 982.905 906.021 985.259 908.589 985.687 909.232 C 986.073 910.449 986.325 911.705 986.437 912.977 C 986.437 912.977 985.58 914.367 984.291 910.087 C 983.542 907.626 981.724 908.161 977.871 909.124 C 974.018 909.98 973.056 909.018 973.056 909.018 L 961.602 912.226 L 961.174 905.056" fill="rgb(250,187,134)"/><path d=" M 916.551 907.948 C 916.551 907.948 899.109 883.016 896.327 874.987 C 893.437 866.962 885.091 862.039 881.025 867.712 C 876.848 873.383 881.025 884.079 881.025 884.079 C 881.025 884.079 901.036 913.934 910.56 920.141 C 919.976 926.35 927.574 921.212 940.736 918.216 C 950.688 915.968 961.711 913.4 966.418 912.33 L 965.349 903.877 C 950.58 904.419 916.551 907.948 916.551 907.948 Z " fill="rgb(54,54,54)"/><path d=" M 902.534 828.119 C 902.433 828.632 902.118 829.077 901.668 829.343 C 901.219 829.608 900.677 829.669 900.179 829.51 L 900.179 829.51 C 899.667 829.409 899.222 829.094 898.956 828.644 C 898.691 828.194 898.63 827.653 898.789 827.155 L 904.246 805.004 C 904.347 804.491 904.662 804.047 905.112 803.781 C 905.562 803.515 906.104 803.455 906.601 803.613 L 906.601 803.613 C 907.113 803.715 907.558 804.029 907.823 804.479 C 908.089 804.929 908.15 805.471 907.991 805.968 L 902.534 828.119 Z " fill="rgb(173,173,173)"/><path d=" M 905.639 833.898 C 905.104 836.077 903.447 837.805 901.292 838.431 C 899.137 839.057 896.813 838.486 895.193 836.933 C 893.573 835.38 892.905 833.081 893.44 830.902 C 893.831 829.281 894.854 827.882 896.281 827.018 C 897.708 826.154 899.42 825.896 901.038 826.301 C 904.375 827.171 906.414 830.538 905.639 833.898 Z " fill="rgb(41,121,255)"/><path d=" M 1101.035 901.422 L 1101.035 909.768 C 1101.008 912.326 1102.251 914.731 1104.352 916.189 L 1113.556 916.189 C 1115.657 914.731 1116.9 912.326 1116.873 909.768 L 1116.873 901.422 L 1101.035 901.422 Z " fill="rgb(219,219,219)"/><path d=" M 1121.473 916.618 C 1121.477 916.818 1121.401 917.011 1121.259 917.152 C 1121.117 917.295 1120.923 917.372 1120.723 917.366 L 1097.718 917.366 C 1097.517 917.372 1097.324 917.295 1097.182 917.152 C 1097.041 917.011 1096.963 916.818 1096.968 916.618 L 1096.968 916.618 C 1096.963 916.417 1097.041 916.223 1097.182 916.082 C 1097.324 915.94 1097.517 915.863 1097.718 915.868 L 1120.724 915.868 C 1120.924 915.863 1121.118 915.94 1121.26 916.082 C 1121.401 916.223 1121.479 916.417 1121.474 916.618 L 1121.473 916.618 Z " fill="rgb(163,163,163)"/><path d=" M 1116.017 913.62 L 1115.267 913.62 L 1115.481 912.551 C 1116.614 912.639 1117.751 912.455 1118.799 912.015 C 1119.976 911.588 1120.724 907.951 1120.297 905.92 C 1120.189 905.17 1119.976 905.064 1119.976 905.064 L 1115.375 905.064 L 1115.375 903.989 L 1119.976 903.989 C 1120.403 903.989 1121.153 904.204 1121.366 905.702 C 1121.795 907.734 1121.152 912.23 1119.119 912.978 C 1118.138 913.398 1117.083 913.617 1116.017 913.62 L 1116.017 913.62 Z " fill="rgb(219,219,219)"/><path d=" M 990.816 901.635 L 990.816 909.981 C 990.789 912.539 992.031 914.944 994.134 916.402 L 1003.336 916.402 C 1005.439 914.944 1006.682 912.539 1006.654 909.981 L 1006.654 901.635 L 990.816 901.635 Z " fill="rgb(219,219,219)"/><path d=" M 1011.255 916.723 C 1011.26 916.923 1011.183 917.117 1011.041 917.259 C 1010.899 917.401 1010.706 917.477 1010.506 917.473 L 987.499 917.473 C 987.299 917.477 987.106 917.401 986.965 917.259 C 986.822 917.117 986.745 916.923 986.75 916.723 L 986.75 916.723 C 986.745 916.523 986.822 916.329 986.965 916.188 C 987.106 916.046 987.299 915.969 987.499 915.974 L 1010.507 915.974 C 1010.707 915.969 1010.901 916.046 1011.042 916.188 C 1011.184 916.329 1011.261 916.523 1011.256 916.723 L 1011.255 916.723 Z " fill="rgb(163,163,163)"/><path d=" M 1005.798 913.833 L 1005.049 913.833 L 1005.263 912.764 C 1006.396 912.852 1007.534 912.669 1008.581 912.228 C 1009.759 911.801 1010.507 908.165 1010.078 906.133 C 1009.972 905.384 1009.759 905.277 1009.759 905.277 L 1005.158 905.277 L 1005.158 904.203 L 1009.759 904.203 C 1010.186 904.203 1010.936 904.418 1011.149 905.915 C 1011.576 907.947 1010.935 912.443 1008.901 913.191 C 1007.918 913.603 1006.864 913.82 1005.798 913.833 Z " fill="rgb(219,219,219)"/><path d=" M 1241.109 1025.765 C 1241.114 1025.966 1241.037 1026.159 1240.895 1026.3 C 1240.754 1026.442 1240.56 1026.52 1240.359 1026.514 L 1225.593 1026.514 C 1225.393 1026.52 1225.199 1026.442 1225.057 1026.3 C 1224.916 1026.159 1224.839 1025.966 1224.843 1025.765 L 1224.843 1025.765 C 1224.839 1025.565 1224.916 1025.371 1225.057 1025.23 C 1225.199 1025.087 1225.393 1025.011 1225.593 1025.016 L 1240.359 1025.016 C 1240.788 1024.908 1241.109 1025.337 1241.109 1025.765 Z " fill="rgb(214,120,56)"/><rect x="1229.552" y="921.859" width="6.741" height="103.906" transform="matrix(1,0,0,1,0,0)" fill="rgb(214,120,56)"/><rect x="931.319" y="917.258" width="343.498" height="8.346" transform="matrix(1,0,0,1,0,0)" fill="rgb(255,154,85)"/><linearGradient id="_lgradient_12" x1="0%" y1="50%" x2="6.123233995736766e-15%" y2="150%"><stop offset="100%" stop-opacity="1" style="stop-color:rgb(41,121,255)"/><stop offset="100%" stop-opacity="1" style="stop-color:rgb(38,153,251)"/></linearGradient><rect x="985.789" y="449" width="1.713" height="165.246" transform="matrix(1,0,0,1,0,0)" fill="url(#_lgradient_12)"/><linearGradient id="_lgradient_13" x1="0%" y1="50%" x2="6.123233995736766e-15%" y2="150%"><stop offset="100%" stop-opacity="1" style="stop-color:rgb(41,121,255)"/><stop offset="100%" stop-opacity="1" style="stop-color:rgb(38,153,251)"/></linearGradient><path d=" M 1000.769 632.5 L 1000.769 610.243 C 1000.814 605.167 998.131 600.456 993.743 597.905 C 989.353 595.353 983.934 595.353 979.544 597.905 C 975.156 600.456 972.473 605.167 972.518 610.243 L 972.518 632.5 L 1000.769 632.5 L 1000.769 632.5 Z " fill="url(#_lgradient_13)"/><linearGradient id="_lgradient_14" x1="0%" y1="50%" x2="6.123233995736766e-15%" y2="150%"><stop offset="99.99999999999997%" stop-opacity="1" style="stop-color:rgb(41,121,255)"/><stop offset="100%" stop-opacity="1" style="stop-color:rgb(38,153,251)"/></linearGradient><rect x="1131.212" y="449" width="1.713" height="182.109" transform="matrix(1,0,0,1,0,0)" fill="url(#_lgradient_14)"/><linearGradient id="_lgradient_15" x1="0%" y1="50%" x2="6.123233995736766e-15%" y2="150%"><stop offset="100%" stop-opacity="1" style="stop-color:rgb(41,121,255)"/><stop offset="100%" stop-opacity="1" style="stop-color:rgb(38,153,251)"/></linearGradient><path d=" M 1146.086 653.367 L 1146.086 631.109 C 1146.016 623.358 1139.713 617.11 1131.961 617.11 C 1124.209 617.11 1117.905 623.358 1117.836 631.109 L 1117.836 653.367 L 1146.086 653.367 Z " fill="url(#_lgradient_15)"/><linearGradient id="_lgradient_16" x1="0%" y1="50%" x2="6.123233995736766e-15%" y2="150%"><stop offset="99.99999999999994%" stop-opacity="1" style="stop-color:rgb(41,121,255)"/><stop offset="100%" stop-opacity="1" style="stop-color:rgb(38,153,251)"/></linearGradient><rect x="1056.949" y="449" width="1.713" height="211.108" transform="matrix(1,0,0,1,0,0)" fill="url(#_lgradient_16)"/><linearGradient id="_lgradient_17" x1="0%" y1="50%" x2="6.123233995736766e-15%" y2="150%"><stop offset="100%" stop-opacity="1" style="stop-color:rgb(41,121,255)"/><stop offset="100%" stop-opacity="1" style="stop-color:rgb(38,153,251)"/></linearGradient><path d=" M 1071.93 684.827 L 1071.93 662.57 C 1071.86 654.818 1065.557 648.571 1057.804 648.571 C 1050.052 648.571 1043.748 654.818 1043.679 662.57 L 1043.679 684.827 L 1071.93 684.827 Z " fill="url(#_lgradient_17)"/></g></svg>