<svg id="Layer_1" data-name="Layer 1" xmlns="http://www.w3.org/2000/svg" viewBox="0 0 30 30"><defs><style>.cls-1{fill:#2979ff;}</style></defs><title>contactArtboard 1svg</title><g id="Group_171" data-name="Group 171"><path id="Path_519" data-name="Path 519" class="cls-1" d="M7.54,2l5.67,5.67-1.5,3.5,6.5,7.17L22.38,17l4.5,4.17,1.17,4L23.55,28H18.21L7.55,17l-6-6.66V4.85L6.71,2Z"/><g id="Group_170" data-name="Group 170"><path id="Path_515" data-name="Path 515" d="M22.5,30c-2.57,0-4.84-.32-8.83-4.3L4.3,16.33c-4-4-4.3-6.27-4.3-8.83C0,2.51,4.81,0,7.5,0A1.9,1.9,0,0,1,8.83.55l5.62,5.62A1.9,1.9,0,0,1,15,7.5a7.1,7.1,0,0,1-1.23,3.62l5.12,5.11A7,7,0,0,1,22.5,15a1.9,1.9,0,0,1,1.33.55l5.62,5.62A1.9,1.9,0,0,1,30,22.5C30,25.19,27.49,30,22.5,30ZM6.84,3.87A4,4,0,0,0,3.75,7.5c0,1.66,0,3,3.2,6.17l9.38,9.38c3.2,3.2,4.51,3.2,6.17,3.2a4,4,0,0,0,3.63-3.09L21.87,18.9a4.9,4.9,0,0,0-1.8,1.18,1.88,1.88,0,0,1-2.65,0h0l-7.5-7.5a1.88,1.88,0,0,1,0-2.65h0a4.9,4.9,0,0,0,1.18-1.8L6.84,3.87ZM30,13.13H26.25a9.39,9.39,0,0,0-9.37-9.38V0A13.14,13.14,0,0,1,30,13.13Z"/></g></g></svg>