<?xml version="1.0" standalone="no"?><!-- Generator: Gravit.io --><svg xmlns="http://www.w3.org/2000/svg" xmlns:xlink="http://www.w3.org/1999/xlink" style="isolation:isolate" viewBox="719 405.47 193.019 25.036" width="193.019" height="25.036"><g id="twitterArtboard 1svg"><path d=" M 834.982 406.572 C 836.651 407.533 853.237 424.807 853.237 424.807 C 853.237 424.807 853.188 426.981 844.318 426.981 C 835.448 426.981 834.477 425.156 833.769 424.351 C 833.061 423.545 832.954 413.453 832.954 413.453 C 832.954 413.453 833.313 405.602 834.982 406.572 Z " fill="rgb(41,121,255)"/><path d=" M 834.904 429.485 C 845.473 429.485 851.199 420.799 851.199 413.191 L 851.199 412.414 C 852.28 411.6 853.224 410.617 853.994 409.503 C 852.954 409.967 851.857 410.293 850.733 410.473 C 851.905 409.732 852.788 408.612 853.237 407.3 C 852.108 407.925 850.9 408.396 849.646 408.697 C 848.587 407.506 847.067 406.827 845.473 406.834 C 842.317 406.876 839.769 409.424 839.728 412.579 C 839.69 412.996 839.743 413.417 839.883 413.812 C 835.262 413.592 830.96 411.388 828.082 407.766 C 827.576 408.653 827.308 409.656 827.306 410.677 C 827.335 412.593 828.253 414.386 829.79 415.529 C 828.857 415.508 827.946 415.24 827.15 414.753 L 827.15 414.753 C 827.149 417.495 829.111 419.845 831.809 420.333 C 831.304 420.472 830.779 420.525 830.256 420.488 C 829.887 420.515 829.516 420.462 829.169 420.333 C 829.947 422.691 832.122 424.307 834.604 424.37 C 832.563 425.966 830.052 426.843 827.461 426.864 C 826.989 426.882 826.518 426.827 826.064 426.699 C 828.628 428.566 831.733 429.544 834.904 429.485 Z " fill="rgb(0,0,0)"/></g><g id="facebookArtboard 1svg"><path d=" M 719.002 429.864 C 719.166 427.933 727.777 405.731 727.777 405.731 C 727.777 405.731 729.775 404.891 733.482 412.884 C 737.189 420.877 735.972 422.537 735.538 423.503 C 735.104 424.468 726.059 428.812 726.059 428.812 C 726.059 428.812 718.857 431.775 719.002 429.864 Z " fill="rgb(41,121,255)"/><path d=" M 729.244 429.468 L 729.244 418.522 L 732.98 418.522 L 733.482 414.245 L 729.244 414.245 L 729.244 411.6 C 729.244 410.403 729.64 409.467 731.378 409.467 L 733.646 409.467 L 733.646 405.606 C 733.115 405.606 731.783 405.47 730.306 405.47 C 727.101 405.432 724.794 407.44 724.794 411.04 L 724.794 414.245 L 721.097 414.245 L 721.097 418.522 L 724.794 418.522 L 724.794 429.468 L 729.244 429.468 Z " fill="rgb(0,0,0)"/></g><g id="instaArtboard 1svg"><path d=" M 772.234 408.756 C 773.93 409.71 790.316 426.867 790.316 426.867 C 790.316 426.867 790.258 429.026 781.458 429.026 C 772.658 429.026 771.732 427.223 771.038 426.414 C 770.344 425.604 770.229 415.599 770.229 415.599 C 770.229 415.599 770.576 407.792 772.234 408.756 Z " fill="rgb(41,121,255)"/><path d=" M 781.111 408.149 C 782.718 408.092 784.328 408.137 785.93 408.284 C 786.704 408.273 787.473 408.41 788.195 408.688 C 789.196 409.15 789.999 409.953 790.46 410.954 C 790.738 411.676 790.876 412.445 790.865 413.219 C 790.865 414.423 791 414.819 791 418.038 C 791.057 419.646 791.012 421.255 790.865 422.857 C 790.876 423.631 790.738 424.4 790.46 425.122 C 789.999 426.123 789.196 426.926 788.195 427.387 C 787.473 427.665 786.704 427.803 785.93 427.792 C 784.725 427.792 784.33 427.927 781.111 427.927 C 779.503 427.984 777.893 427.939 776.291 427.792 C 775.518 427.803 774.749 427.665 774.026 427.387 C 773.026 426.926 772.223 426.123 771.761 425.122 C 771.483 424.4 771.346 423.631 771.356 422.857 C 771.356 421.652 771.222 421.257 771.222 418.038 C 771.165 416.43 771.21 414.821 771.356 413.219 C 771.346 412.445 771.483 411.676 771.761 410.954 C 772.002 410.457 772.328 410.007 772.725 409.623 C 773.034 409.144 773.513 408.8 774.065 408.66 C 774.787 408.381 775.556 408.244 776.33 408.255 C 777.932 408.108 779.542 408.063 781.149 408.12 M 781.149 405.99 C 779.49 405.941 777.829 405.996 776.176 406.154 C 775.188 406.155 774.208 406.334 773.284 406.684 C 772.46 406.946 771.712 407.406 771.106 408.023 C 770.498 408.616 770.041 409.347 769.776 410.154 C 769.367 411.06 769.185 412.052 769.246 413.045 C 769.098 414.699 769.053 416.36 769.111 418.019 C 769.054 419.665 769.099 421.313 769.246 422.954 C 769.247 423.941 769.427 424.921 769.776 425.845 C 770.038 426.653 770.495 427.385 771.106 427.975 C 771.701 428.588 772.435 429.047 773.246 429.315 C 774.17 429.664 775.149 429.844 776.137 429.845 C 777.778 429.991 779.426 430.036 781.072 429.98 C 782.718 430.036 784.366 429.991 786.007 429.845 C 786.995 429.844 787.975 429.664 788.899 429.315 C 790.528 428.755 791.808 427.475 792.369 425.845 C 792.722 424.905 792.901 423.909 792.899 422.905 C 792.899 421.575 793.034 421.17 793.034 417.98 C 793.09 416.334 793.045 414.686 792.899 413.045 C 792.895 412.057 792.716 411.078 792.369 410.154 C 792.102 409.347 791.646 408.617 791.038 408.023 C 790.466 407.421 789.759 406.962 788.976 406.684 C 788.052 406.334 787.072 406.155 786.084 406.154 C 784.431 406.006 782.77 405.961 781.111 406.019 M 781.111 411.888 C 779.511 411.86 777.966 412.469 776.816 413.581 C 775.666 414.693 775.006 416.217 774.981 417.816 L 774.981 418.019 C 774.981 421.404 777.725 424.149 781.111 424.149 C 784.496 424.149 787.241 421.404 787.241 418.019 C 787.241 414.633 784.496 411.888 781.111 411.888 Z  M 781.111 422.019 C 778.942 422.056 777.153 420.331 777.111 418.163 L 777.111 418.019 C 777.073 415.85 778.798 414.061 780.966 414.019 L 781.111 414.019 C 783.279 413.981 785.069 415.706 785.111 417.874 L 785.111 418.019 C 785.148 420.187 783.424 421.976 781.255 422.019 L 781.111 422.019 Z  M 787.511 410.154 C 786.702 410.154 786.046 410.809 786.046 411.619 C 786.046 412.428 786.702 413.084 787.511 413.084 C 788.32 413.084 788.976 412.428 788.976 411.619 L 788.976 411.619 C 788.971 410.812 788.318 410.159 787.511 410.154" fill="rgb(0,0,0)"/></g><g id="linkdinArtboard 1svg"><path d=" M 909.989 428.419 C 908.391 428.082 890.522 418.517 890.522 418.517 C 890.522 418.517 889.993 416.747 897.142 414.428 C 904.292 412.109 905.533 413.321 906.313 413.793 C 907.092 414.264 909.816 422.366 909.816 422.366 C 909.816 422.366 911.586 428.766 909.989 428.419 Z " fill="rgb(41,121,255)"/><path d=" M 892.187 408.616 C 892.176 410.044 891.011 411.194 889.582 411.185 C 888.154 411.176 887.003 410.012 887.01 408.583 C 887.017 407.155 888.179 406.002 889.608 406.008 C 890.297 406.008 890.957 406.283 891.442 406.773 C 891.926 407.263 892.194 407.927 892.187 408.616 Z  M 892.187 413.302 L 887 413.302 L 887 429.968 L 892.206 429.968 L 892.187 413.302 Z  M 900.501 413.302 L 895.353 413.302 L 895.353 429.968 L 900.52 429.968 L 900.52 421.221 C 900.52 416.352 906.804 415.958 906.804 421.221 L 906.804 429.968 L 912.019 429.968 L 912.019 419.383 C 912.019 411.175 902.724 411.473 900.539 415.534 L 900.539 413.302 L 900.501 413.302 Z " fill="rgb(0,0,0)"/></g></svg>