<svg id="Layer_1" data-name="Layer 1" xmlns="http://www.w3.org/2000/svg" viewBox="0 0 33.39 37.59"><defs><style>.cls-1{fill:#2979ff;}</style></defs><title>api_boxArtboard 1svg</title><g id="Group_161" data-name="Group 161"><path id="Path_26" data-name="Path 26" class="cls-1" d="M1,9.39l4.6,1L10,15.42l7.57,7.09s2.59,2.78,3.26,2.78,8.34,1.05,9.87-3.35,1.82,1,1.82,1v5L16.78,36.5,1,27.49Z"/><path id="noun_38239" data-name="noun 38239" d="M33.38,8.47v0l0-.12a0,0,0,0,0,0,0,.69.69,0,0,0-.05-.13v0a.49.49,0,0,1,0-.07l0,0,0,0a.76.76,0,0,0-.08-.11h0L33,7.76l0,0-.1-.07,0,0-.13-.07h0L17.2.11a1.19,1.19,0,0,0-1,0L.66,7.57a1.19,1.19,0,0,0-.66,1V27.81a1.18,1.18,0,0,0,.6,1l15.53,8.61h0l.13.06h0l.11,0h0l.1,0h.34l.1,0h0l.11,0h0l.13-.06h0l15.52-8.61a1.16,1.16,0,0,0,.6-1V8.62A.75.75,0,0,0,33.38,8.47ZM31.06,27.12l-13.2,7.32V30.32a1.17,1.17,0,0,0-2.33,0v4.12L2.33,27.12V10.52a6.72,6.72,0,0,1,3.59,1.87L8.27,15a5.79,5.79,0,0,0-1,1.72,4.47,4.47,0,0,0,.45,3.41l7.78-4.51a4.52,4.52,0,0,0-2.73-2.09,6.21,6.21,0,0,0-2.43.08l-.18.11L7.5,10.8A9,9,0,0,0,3.9,8.6L16.69,2.46l13,6.24-8.46,4.69A1.18,1.18,0,0,0,20.77,15a1.15,1.15,0,0,0,1.58.45h0l8.7-4.82v7H31A6.94,6.94,0,0,1,24,24.51a6.85,6.85,0,0,1-3.7-1.08,3.46,3.46,0,0,0-.79-3.69l-.88.89-1.73-1.72h0a.57.57,0,1,0-.81.81l1.72,1.73L16.35,23l-1.78-1.78h0a.58.58,0,0,0-.81,0,.57.57,0,0,0,0,.79l1.77,1.78-.89.88a3.47,3.47,0,0,0,4.18.56A9.24,9.24,0,0,0,31.06,23.6v3.52Z"/></g></svg>