<svg id="Layer_1" data-name="Layer 1" xmlns="http://www.w3.org/2000/svg" viewBox="0 0 55 55"><defs><style>.cls-1{fill:#2979ff;}.cls-2{stroke:#000;stroke-miterlimit:10;}</style></defs><title>guruArtboard 1svg</title><g id="Group_87" data-name="Group 87"><path id="Path_314" data-name="Path 314" class="cls-1" d="M14.4,1.76H38.52s3.39.17,3.39,3V19.65h9.18s2.48.48,2.35,2.56-1.08,2.49-2.35,2.92-9.18.26-9.18.26h-38S.91,24.17,1,22.21,3.61,18.47,3.87,19s9.32,0,9.32,0V2.54Z"/><path id="Path_308" data-name="Path 308" class="cls-2" d="M50.9,18.5H42.8V5A4.46,4.46,0,0,0,38.39.5H16.7a4.46,4.46,0,0,0-4.5,4.41V18.5H4.1a3.6,3.6,0,0,0,0,7.2H50.9a3.6,3.6,0,1,0,0-7.2ZM16.7,2.3H38.3A2.65,2.65,0,0,1,41,4.9v6.4H14V5a2.65,2.65,0,0,1,2.6-2.7ZM14,13.1H41v5.4H14ZM50.9,23.9H4.1a1.8,1.8,0,0,1,0-3.6H50.9a1.8,1.8,0,1,1,0,3.6Z"/><circle id="Ellipse_35" data-name="Ellipse 35" class="cls-1" cx="18.05" cy="36.05" r="5.85"/><path id="Path_309" data-name="Path 309" class="cls-2" d="M18.5,42.8a7.2,7.2,0,1,0-7.2-7.2A7.2,7.2,0,0,0,18.5,42.8Zm0-12.6a5.4,5.4,0,1,1-5.4,5.4A5.4,5.4,0,0,1,18.5,30.2Z"/><path id="Path_310" data-name="Path 310" class="cls-2" d="M11.3,35.6v-.9H7.7a4.46,4.46,0,0,0-4.5,4.41V53.6H5V39.2a2.65,2.65,0,0,1,2.6-2.7h3.7Z"/><path id="Path_316" data-name="Path 316" class="cls-1" d="M30.42,45l2.79-.43,5.17,3.61,3.92,1.78,3.7-.65-5.18,4-5.35.39-5-3.09-1.17-3.35Z"/><path id="Path_315" data-name="Path 315" class="cls-1" d="M10.05,50l6.44-1.35,5.1-4.35,3.74,1.35L25,50l-6.36,4-7.31-1.7Z"/><path id="Path_311" data-name="Path 311" class="cls-2" d="M46,48.38a7.5,7.5,0,0,1-7.38-1.08l-3.6-2.88A4.13,4.13,0,0,0,30.65,44a4.06,4.06,0,0,0-2,2.25,3.29,3.29,0,0,0,.09,2.43,9.38,9.38,0,0,0,5.85,5.4,8.81,8.81,0,0,0,3.06.45,9.65,9.65,0,0,0,5.76-1.89l3.51-2.7a1,1,0,0,0,.27-1.17A1,1,0,0,0,46,48.38Zm-3.78,2.79a7.87,7.87,0,0,1-11-1.58,8,8,0,0,1-.95-1.66,1.55,1.55,0,0,1-.09-1.08,2.26,2.26,0,0,1,1.17-1.26,2.35,2.35,0,0,1,2.43.27l3.6,2.88a9,9,0,0,0,5.4,2Z"/><path id="Path_312" data-name="Path 312" class="cls-2" d="M24.35,43.88a4.13,4.13,0,0,0-4.41.45l-3.6,2.88A7.33,7.33,0,0,1,9,48.29a.83.83,0,0,0-1.08.36,1,1,0,0,0,.27,1.17l3.51,2.7a9.58,9.58,0,0,0,5.76,1.89A12.17,12.17,0,0,0,20.48,54a9.9,9.9,0,0,0,5.85-5.4h0a3.25,3.25,0,0,0,.09-2.43A5,5,0,0,0,24.35,43.88Zm.27,4h0a7.87,7.87,0,0,1-10.31,4.19,8,8,0,0,1-1.66-.95L12,50.72a10.17,10.17,0,0,0,5.4-2L21,45.86a2.39,2.39,0,0,1,2.43-.27,2.65,2.65,0,0,1,1.17,1.26,1.15,1.15,0,0,1,0,1.08Z"/><rect id="Rectangle_56" data-name="Rectangle 56" class="cls-2" x="37.4" y="14.9" width="1.8" height="1.8"/><rect id="Rectangle_57" data-name="Rectangle 57" class="cls-2" x="33.8" y="14.9" width="1.8" height="1.8"/><rect id="Rectangle_58" data-name="Rectangle 58" class="cls-2" x="30.2" y="14.9" width="1.8" height="1.8"/><path id="Path_313" data-name="Path 313" class="cls-2" d="M41.54,30.29l-10.8,4.5a.86.86,0,0,0-.54.81.78.78,0,0,0,.54.81l10.8,4.5.72-1.62L33.44,35.6l8.82-3.69Z"/></g></svg>