<?xml version="1.0" standalone="no"?><!-- Generator: Gravit.io --><svg xmlns="http://www.w3.org/2000/svg" xmlns:xlink="http://www.w3.org/1999/xlink" style="isolation:isolate" viewBox="178 367 142.978 35.864" width="142.978" height="35.864"><g id="load_regArtboard 1svg"><g id="Group_162"><path d=" M 206.964 367.993 L 203.57 375.686 L 203.798 377.571 L 205.972 379.507 L 210.23 378.802 L 212.076 376.102 L 212.076 370.246 L 209.803 368.261 L 206.964 367.993 Z " fill="rgb(41,121,255)"/><path d=" M 203.967 383.12 L 216.573 382.981 L 217.109 384.689 L 208.662 393.106 L 206.14 393.106 L 200.304 387.21 L 203.967 383.12 Z " fill="rgb(41,121,255)"/><path d=" M 207.54 380.242 L 207.957 380.242 C 210.698 380.242 212.92 378.02 212.92 375.279 L 212.92 371.963 C 212.92 369.222 210.698 367 207.957 367 L 207.54 367 C 204.799 367 202.577 369.222 202.577 371.963 L 202.577 375.318 C 202.599 378.044 204.814 380.242 207.54 380.242 L 207.54 380.242 Z  M 204.106 371.963 C 204.111 370.067 205.644 368.53 207.54 368.519 L 207.957 368.519 C 209.855 368.53 211.391 370.065 211.401 371.963 L 211.401 375.318 C 211.391 377.216 209.855 378.752 207.957 378.763 L 207.54 378.763 C 205.644 378.752 204.111 377.214 204.106 375.318 L 204.106 371.963 Z  M 215.759 382.088 L 210.3 382.088 C 209.924 382.132 209.641 382.45 209.641 382.828 C 209.641 383.205 209.924 383.523 210.3 383.567 L 215.759 383.567 C 215.984 383.555 216.204 383.638 216.365 383.795 C 216.475 383.947 216.511 384.14 216.464 384.321 C 216.205 384.881 215.83 385.379 215.362 385.781 L 209.009 392.104 C 208.685 392.43 208.248 392.618 207.788 392.63 L 207.709 392.63 C 207.248 392.622 206.81 392.433 206.488 392.104 L 200.274 385.86 L 200.155 385.741 C 199.682 385.345 199.305 384.846 199.053 384.282 C 199.006 384.1 199.042 383.907 199.152 383.756 C 199.309 383.597 199.526 383.514 199.748 383.527 L 205.049 383.527 C 205.424 383.484 205.707 383.166 205.707 382.788 C 205.707 382.41 205.424 382.092 205.049 382.048 L 199.758 382.048 C 199.09 382.025 198.447 382.306 198.011 382.813 C 197.616 383.298 197.462 383.937 197.594 384.55 C 197.872 385.445 198.399 386.244 199.113 386.853 L 205.436 393.176 C 206.003 393.761 206.767 394.115 207.58 394.168 L 207.917 394.168 C 208.729 394.108 209.491 393.756 210.061 393.176 L 216.265 386.962 L 216.375 386.853 C 217.087 386.265 217.617 385.487 217.903 384.609 C 218.032 384 217.879 383.365 217.486 382.882 C 217.058 382.372 216.425 382.081 215.759 382.088 Z " fill="rgb(0,0,0)"/><path d=" M 225.596 375.934 L 222.191 383.636 L 222.43 385.522 L 224.603 387.458 L 228.852 386.753 L 230.698 384.053 L 230.698 378.197 L 228.425 376.212 L 225.596 375.934 Z " fill="rgb(41,121,255)"/><path d=" M 222.588 391.101 L 235.195 390.962 L 235.731 392.669 L 227.284 401.087 L 224.772 401.087 L 218.926 395.191 L 222.588 391.101 Z " fill="rgb(41,121,255)"/><path d=" M 226.162 388.222 L 226.579 388.222 C 229.32 388.222 231.542 386 231.542 383.259 L 231.542 379.904 C 231.542 377.163 229.32 374.941 226.579 374.941 L 226.162 374.941 C 223.421 374.941 221.199 377.163 221.199 379.904 L 221.199 383.299 C 221.221 386.025 223.436 388.223 226.162 388.222 L 226.162 388.222 Z  M 222.707 379.904 C 222.713 378.008 224.246 376.471 226.142 376.46 L 226.559 376.46 C 228.464 376.46 230.012 377.999 230.023 379.904 L 230.023 383.299 C 230.012 385.197 228.477 386.733 226.579 386.743 L 226.162 386.743 C 224.258 386.743 222.713 385.203 222.707 383.299 L 222.707 379.904 Z  M 234.361 390.069 L 228.902 390.069 C 228.526 390.112 228.243 390.43 228.243 390.808 C 228.243 391.186 228.526 391.504 228.902 391.548 L 234.361 391.548 C 234.586 391.536 234.806 391.618 234.967 391.776 C 235.077 391.928 235.113 392.121 235.066 392.302 C 234.812 392.876 234.436 393.388 233.964 393.801 L 227.671 400.084 C 227.348 400.412 226.91 400.601 226.45 400.61 L 226.37 400.61 C 225.91 400.603 225.471 400.414 225.149 400.084 L 218.936 393.88 L 218.737 393.801 C 218.264 393.405 217.887 392.906 217.635 392.342 C 217.59 392.159 217.631 391.966 217.744 391.816 C 217.905 391.658 218.125 391.575 218.35 391.587 L 223.7 391.587 C 224.076 391.544 224.359 391.226 224.359 390.848 C 224.359 390.47 224.076 390.152 223.7 390.108 L 218.38 390.108 C 217.711 390.085 217.069 390.366 216.633 390.873 C 216.239 391.359 216.085 391.998 216.216 392.61 C 216.517 393.464 217.045 394.219 217.744 394.794 L 224.067 401.117 C 224.631 401.706 225.397 402.061 226.212 402.109 L 226.549 402.109 C 227.362 402.056 228.126 401.702 228.693 401.117 L 234.897 394.913 L 235.006 394.794 C 235.718 394.206 236.249 393.428 236.535 392.55 C 236.661 391.94 236.504 391.305 236.108 390.823 C 235.668 390.323 235.027 390.046 234.361 390.069 Z " fill="rgb(0,0,0)"/><path d=" M 187.459 375.934 L 184.055 383.666 L 184.293 385.552 L 186.467 387.488 L 190.715 386.783 L 192.561 384.083 L 192.561 378.227 L 190.298 376.241 L 187.459 375.934 Z " fill="rgb(41,121,255)"/><path d=" M 184.461 391.101 L 197.068 390.962 L 197.594 392.669 L 189.147 401.087 L 186.635 401.087 L 180.789 395.191 L 184.461 391.101 Z " fill="rgb(41,121,255)"/><path d=" M 188.025 388.222 L 188.442 388.222 C 191.183 388.222 193.405 386 193.405 383.259 L 193.405 379.904 C 193.405 377.163 191.183 374.941 188.442 374.941 L 188.025 374.941 C 185.284 374.941 183.062 377.163 183.062 379.904 L 183.062 383.299 C 183.084 386.025 185.299 388.223 188.025 388.222 L 188.025 388.222 Z  M 184.59 379.904 C 184.596 378.004 186.135 376.465 188.035 376.46 L 188.452 376.46 C 189.371 376.452 190.256 376.811 190.91 377.457 C 191.564 378.104 191.933 378.985 191.936 379.904 L 191.936 383.299 C 191.931 385.195 190.398 386.733 188.501 386.743 L 188.085 386.743 C 187.163 386.754 186.276 386.396 185.62 385.749 C 184.964 385.102 184.593 384.22 184.59 383.299 L 184.59 379.904 Z  M 196.234 390.069 L 190.775 390.069 C 190.49 390.036 190.212 390.169 190.059 390.411 C 189.906 390.654 189.906 390.963 190.059 391.205 C 190.212 391.448 190.49 391.581 190.775 391.548 L 196.234 391.548 C 196.459 391.537 196.678 391.62 196.84 391.776 C 196.945 391.93 196.981 392.121 196.939 392.302 C 196.685 392.879 196.305 393.391 195.827 393.801 L 189.504 400.124 C 189.18 400.45 188.743 400.638 188.283 400.65 L 188.194 400.65 C 187.729 400.628 187.291 400.425 186.973 400.084 L 180.759 393.88 L 180.64 393.801 C 180.172 393.399 179.796 392.902 179.538 392.342 C 179.491 392.16 179.527 391.967 179.637 391.816 C 179.798 391.658 180.018 391.575 180.243 391.587 L 185.534 391.587 C 185.818 391.62 186.097 391.487 186.249 391.245 C 186.402 391.002 186.402 390.694 186.249 390.451 C 186.097 390.209 185.818 390.075 185.534 390.108 L 180.243 390.108 C 179.583 390.075 178.943 390.337 178.496 390.823 C 178.085 391.305 177.917 391.949 178.039 392.57 C 178.345 393.443 178.888 394.213 179.608 394.794 L 185.98 401.137 C 186.541 401.725 187.303 402.08 188.114 402.129 L 188.462 402.129 C 189.272 402.075 190.033 401.721 190.596 401.137 L 196.8 394.933 L 196.899 394.794 C 197.604 394.201 198.129 393.424 198.418 392.55 C 198.551 391.936 198.385 391.296 197.971 390.823 C 197.535 390.323 196.897 390.046 196.234 390.069 Z " fill="rgb(0,0,0)"/></g><g id="Group_164"><path d=" M 253.39 390.257 C 253.39 390.257 255.137 384.778 260.179 383.865 C 263.098 383.299 266.11 384.192 268.249 386.257" fill="none" vector-effect="non-scaling-stroke" stroke-width="4.963" stroke="rgb(38,153,251)" stroke-opacity="100" stroke-linejoin="miter" stroke-linecap="butt" stroke-miterlimit="4"/><path d=" M 269.163 385.294 L 272.736 381.721 L 272.736 390.654 L 263.802 390.654 L 267.475 387.081 C 266.031 385.863 264.203 385.195 262.313 385.195 C 260.637 385.166 258.998 385.689 257.648 386.684 C 256.26 387.636 255.243 389.039 254.769 390.654 L 252.486 389.831 C 253.132 387.737 254.46 385.92 256.258 384.669 C 260.166 381.811 265.535 382.059 269.163 385.264 L 269.163 385.294 Z " fill="rgb(0,0,0)"/></g><g id="Group_163"><rect x="292.192" y="385.493" width="21.838" height="3.97" transform="matrix(1,0,0,1,0,0)" fill="rgb(41,121,255)"/><path d=" M 289.214 388.967 L 317.007 388.967 C 317.555 388.967 318 389.412 318 389.96 L 318 398.893 C 318 399.441 317.555 399.886 317.007 399.886 L 289.214 399.886 C 288.666 399.886 288.221 399.441 288.221 398.893 L 288.221 389.96 C 288.221 389.412 288.666 388.967 289.214 388.967 Z " fill="rgb(255,255,255)"/><path d=" M 289.214 388.967 L 317.007 388.967 C 317.555 388.967 318 389.412 318 389.96 L 318 398.893 C 318 399.441 317.555 399.886 317.007 399.886 L 289.214 399.886 C 288.666 399.886 288.221 399.441 288.221 398.893 L 288.221 389.96 C 288.221 389.412 288.666 388.967 289.214 388.967 Z " fill="none" vector-effect="non-scaling-stroke" stroke-width="1.489" stroke="rgb(0,0,0)" stroke-linejoin="miter" stroke-linecap="butt" stroke-miterlimit="4"/><path d=" M 290.206 394.426 C 290.206 392.783 291.541 391.448 293.184 391.448 C 294.828 391.448 296.162 392.783 296.162 394.426 C 296.162 396.07 294.828 397.404 293.184 397.404 C 291.541 397.404 290.206 396.07 290.206 394.426 Z " fill="rgb(41,121,255)"/><path d=" M 289.214 374.077 L 317.007 374.077 C 317.555 374.077 318 374.522 318 375.07 L 318 384.004 C 318 384.552 317.555 384.996 317.007 384.996 L 289.214 384.996 C 288.666 384.996 288.221 384.552 288.221 384.004 L 288.221 375.07 C 288.221 374.522 288.666 374.077 289.214 374.077 Z " fill="rgb(255,255,255)"/><path d=" M 289.214 374.077 L 317.007 374.077 C 317.555 374.077 318 374.522 318 375.07 L 318 384.004 C 318 384.552 317.555 384.996 317.007 384.996 L 289.214 384.996 C 288.666 384.996 288.221 384.552 288.221 384.004 L 288.221 375.07 C 288.221 374.522 288.666 374.077 289.214 374.077 Z " fill="none" vector-effect="non-scaling-stroke" stroke-width="1.489" stroke="rgb(0,0,0)" stroke-linejoin="miter" stroke-linecap="butt" stroke-miterlimit="4"/><path d=" M 290.206 379.537 C 290.206 377.893 291.541 376.559 293.184 376.559 C 294.828 376.559 296.162 377.893 296.162 379.537 C 296.162 381.18 294.828 382.515 293.184 382.515 C 291.541 382.515 290.206 381.18 290.206 379.537 Z " fill="rgb(41,121,255)"/></g></g></svg>