<svg id="Layer_1" data-name="Layer 1" xmlns="http://www.w3.org/2000/svg" viewBox="0 0 1000 1000"><defs><style>.cls-1{fill:#fff;}.cls-2{fill:#2979ff;}</style></defs><title>1000px</title><circle class="cls-1" cx="500" cy="500" r="500"/><rect class="cls-2" x="215.07" y="238.11" width="117.9" height="524.45" rx="58.95" ry="58.95"/><rect class="cls-2" x="667.03" y="237.65" width="117.9" height="524.45" rx="58.95" ry="58.95"/><rect class="cls-2" x="328.03" y="191.27" width="117.9" height="436.76" rx="58.95" ry="58.95" transform="translate(-176.32 393.62) rotate(-45)"/><path class="cls-2" d="M767.39,254.63h0a59.14,59.14,0,0,0-83.37,0L511.71,426.94a1.36,1.36,0,0,0,0,1.92l39.81,39.8A75,75,0,0,1,573.05,529a1.35,1.35,0,0,0,2.31,1.07l192-192A59.15,59.15,0,0,0,767.39,254.63Z"/><path class="cls-2" d="M455.15,582.94A1.35,1.35,0,0,0,453,584V716.17a1.35,1.35,0,0,0,2.14,1.08l40.41-28.88a7.58,7.58,0,0,1,9,.11l38.21,28.75a1.36,1.36,0,0,0,2.17-1.07V584.59a1.35,1.35,0,0,0-2.14-1.1A75.41,75.41,0,0,1,455.15,582.94Z"/></svg>