<?xml version="1.0" encoding="utf-8"?>
<!-- Generator: Adobe Illustrator 22.0.0, SVG Export Plug-In . SVG Version: 6.00 Build 0)  -->
<svg version="1.0" id="Layer_1" xmlns="http://www.w3.org/2000/svg" xmlns:xlink="http://www.w3.org/1999/xlink" x="0px" y="0px"
	 viewBox="0 0 151.1 30" style="enable-background:new 0 0 151.1 30;" xml:space="preserve">
<style type="text/css">
	.st0{fill:#FFFFFF;}
	.st1{font-family:'AristaProAlternate-ExtraLight';}
	.st2{font-size:25px;}
	.st3{letter-spacing:1;}
	.st4{fill:#2979FF;}
</style>
<g transform="translate(-139 -10)">
	<text transform="matrix(1 0 0 1 176.663 31.5)" class="st0 st1 st2 st3">My Rappo</text>
	<g transform="translate(139 10)">
		<circle class="st0" cx="15" cy="15" r="15"/>
		<path class="st4" d="M8.2,7.1L8.2,7.1c1,0,1.8,0.8,1.8,1.8v12.2c0,1-0.8,1.8-1.8,1.8l0,0c-1,0-1.8-0.8-1.8-1.8V8.9
			C6.4,7.9,7.2,7.1,8.2,7.1z"/>
		<path class="st4" d="M21.8,7.1L21.8,7.1c1,0,1.8,0.8,1.8,1.8v12.2c0,1-0.8,1.8-1.8,1.8l0,0c-1,0-1.8-0.8-1.8-1.8V8.9
			C20,7.9,20.8,7.1,21.8,7.1z"/>
		<path class="st4" d="M16.2,16.9L16.2,16.9c-0.7,0.7-1.8,0.7-2.5,0L7,10.2C6.3,9.5,6.3,8.3,7,7.7l0,0C7.7,7,8.8,7,9.5,7.7l6.8,6.8
			C16.9,15.1,16.9,16.2,16.2,16.9z"/>
		<path class="st4" d="M23,7.6L23,7.6c-0.7-0.7-1.8-0.7-2.5,0l-5.2,5.2c0,0,0,0,0,0.1c0,0,0,0,0,0l1.2,1.2c0.5,0.5,0.7,1.1,0.6,1.8
			c0,0,0,0,0,0c0,0,0,0,0,0l5.8-5.8C23.7,9.4,23.7,8.3,23,7.6z"/>
		<path class="st4" d="M13.6,17.5C13.6,17.5,13.6,17.5,13.6,17.5C13.6,17.5,13.6,17.5,13.6,17.5l-0.1,4c0,0,0,0,0,0c0,0,0,0,0,0
			l1.2-0.9c0.1-0.1,0.2-0.1,0.3,0l1.1,0.9c0,0,0,0,0.1,0c0,0,0,0,0,0v-3.9c0,0,0,0,0,0c0,0,0,0,0,0C15.5,18.1,14.4,18.1,13.6,17.5z"
			/>
	</g>
</g>
</svg>
