<svg id="Layer_1" data-name="Layer 1" xmlns="http://www.w3.org/2000/svg" viewBox="0 0 500 500"><defs><style>.cls-1{fill:#fff;}.cls-2{fill:#2979ff;}</style></defs><title>500px</title><circle class="cls-1" cx="250" cy="250" r="250"/><rect class="cls-2" x="107.53" y="119.06" width="58.95" height="262.22" rx="29.48" ry="29.48"/><rect class="cls-2" x="333.51" y="118.83" width="58.95" height="262.22" rx="29.48" ry="29.48"/><rect class="cls-2" x="164.01" y="95.64" width="58.95" height="218.38" rx="29.48" ry="29.48" transform="translate(-88.16 196.81) rotate(-45)"/><path class="cls-2" d="M383.69,127.32h0a29.54,29.54,0,0,0-41.68,0l-86.15,86.15a.67.67,0,0,0,0,1l19.9,19.9a37.5,37.5,0,0,1,10.77,30.15.68.68,0,0,0,1.15.54l96-96A29.54,29.54,0,0,0,383.69,127.32Z"/><path class="cls-2" d="M227.57,291.47a.67.67,0,0,0-1.07.54v66.06h0a.67.67,0,0,0,1.07.54l20.21-14.44a3.8,3.8,0,0,1,4.49.06l19.1,14.37a.68.68,0,0,0,1.09-.53h0V292.29a.68.68,0,0,0-1.07-.55A37.7,37.7,0,0,1,227.57,291.47Z"/></svg>