<svg xmlns="http://www.w3.org/2000/svg" viewBox="2237 492 33.391 37.587">
  <defs>
    <style>
      .cls-1 {
        fill: #2979ff;
      }
    </style>
  </defs>
  <g id="Group_161" data-name="Group 161" transform="translate(1433 21)">
    <path id="Path_26" data-name="Path 26" class="cls-1" d="M702.978,415.388l4.6.958,4.407,5.077,7.568,7.089s2.586,2.778,3.257,2.778,8.335,1.054,9.867-3.353,1.82.958,1.82.958v4.982L718.785,442.5l-15.807-9.005Z" transform="translate(102 65)"/>
    <path id="noun_38239" d="M38.894,8.132l0-.03a1.2,1.2,0,0,0-.027-.125c0-.008,0-.017-.007-.024a1.034,1.034,0,0,0-.05-.137c-.006-.01-.01-.02-.015-.03s-.021-.044-.032-.066-.015-.023-.023-.035l-.023-.037a1.21,1.21,0,0,0-.077-.106l-.008-.011a1.271,1.271,0,0,0-.1-.107L38.5,7.405a1.09,1.09,0,0,0-.1-.078l-.022-.015a1.039,1.039,0,0,0-.129-.073l-.009-.005L22.716-.225a1.167,1.167,0,0,0-1.011,0L6.177,7.233a1.168,1.168,0,0,0-.662,1.052V27.469a1.168,1.168,0,0,0,.6,1.021L21.644,37.1h0a1.106,1.106,0,0,0,.128.061l.022.008c.035.013.071.025.108.035l.035.009c.033.008.068.014.1.02l.035.006a1.083,1.083,0,0,0,.136.008,1.339,1.339,0,0,0,.135-.008l.035-.006a.994.994,0,0,0,.1-.02l.036-.009c.036-.01.072-.022.107-.035l.023-.008a1.363,1.363,0,0,0,.128-.061h0L38.3,28.49a1.169,1.169,0,0,0,.6-1.021V8.283A1.458,1.458,0,0,0,38.894,8.132ZM36.572,26.78,23.377,34.1V29.984a1.167,1.167,0,0,0-2.335,0V34.1L7.849,26.781v-16.6a6.708,6.708,0,0,1,3.583,1.867l2.356,2.6a5.87,5.87,0,0,0-1.035,1.723,4.484,4.484,0,0,0,.453,3.41l7.778-4.507a4.483,4.483,0,0,0-2.733-2.089,6.142,6.142,0,0,0-2.428.071l-.178.114-2.629-2.908a8.977,8.977,0,0,0-3.6-2.2L22.21,2.122,35.2,8.359l-8.462,4.693a1.167,1.167,0,1,0,1.132,2.042l8.7-4.826V17.23H36.5a6.95,6.95,0,0,1-6.943,6.943,6.88,6.88,0,0,1-3.7-1.08,3.464,3.464,0,0,0-.787-3.69l-.889.888-1.724-1.723h0a.577.577,0,0,0-.816.817l1.723,1.723-1.5,1.5-1.774-1.774h0a.578.578,0,0,0-.817.817l1.775,1.775-.889.888a3.466,3.466,0,0,0,4.179.556,9.232,9.232,0,0,0,12.233-1.608v3.52Z" transform="translate(798.485 471.34)"/>
  </g>
</svg>
