<svg xmlns="http://www.w3.org/2000/svg" viewBox="1934.3 502.556 24.9 24.9">
  <defs>
    <style>
      .cls-1 {
        fill: #2979ff;
      }

      .cls-2 {
        fill-rule: evenodd;
      }
    </style>
  </defs>
  <g id="Group_158" data-name="Group 158" transform="translate(1433 21)">
    <path id="Path_518" data-name="Path 518" class="cls-1" d="M415.831,442.854c1.721.994,18.792,18.792,18.792,18.792s-.052,2.244-9.187,2.244-10.127-1.879-10.857-2.714-.835-11.223-.835-11.223S414.109,441.86,415.831,442.854Z" transform="translate(88.713 41.54)"/>
    <path id="Path_517" data-name="Path 517" class="cls-2" d="M12.45,2.213a38.174,38.174,0,0,1,4.98.138,6.416,6.416,0,0,1,2.352.415,4.858,4.858,0,0,1,2.352,2.352,6.416,6.416,0,0,1,.415,2.352c0,1.245.138,1.66.138,4.98a38.174,38.174,0,0,1-.138,4.98,6.416,6.416,0,0,1-.415,2.352,4.858,4.858,0,0,1-2.352,2.352,6.416,6.416,0,0,1-2.352.415c-1.245,0-1.66.138-4.98.138a38.174,38.174,0,0,1-4.98-.138,6.416,6.416,0,0,1-2.352-.415,4.858,4.858,0,0,1-2.352-2.352,6.416,6.416,0,0,1-.415-2.352c0-1.245-.138-1.66-.138-4.98a38.174,38.174,0,0,1,.138-4.98,6.416,6.416,0,0,1,.415-2.352,4.968,4.968,0,0,1,.968-1.383,2.339,2.339,0,0,1,1.383-.968A6.416,6.416,0,0,1,7.47,2.352a38.174,38.174,0,0,1,4.98-.138M12.45,0A40.873,40.873,0,0,0,7.332.138,8.54,8.54,0,0,0,4.288.692,5.415,5.415,0,0,0,2.075,2.075,5.415,5.415,0,0,0,.692,4.288,6.3,6.3,0,0,0,.138,7.332,40.873,40.873,0,0,0,0,12.45a40.873,40.873,0,0,0,.138,5.118,8.54,8.54,0,0,0,.553,3.043,5.415,5.415,0,0,0,1.383,2.213,5.415,5.415,0,0,0,2.213,1.383,8.54,8.54,0,0,0,3.043.553,40.873,40.873,0,0,0,5.118.138,40.873,40.873,0,0,0,5.118-.138,8.54,8.54,0,0,0,3.043-.553,5.8,5.8,0,0,0,3.6-3.6,8.54,8.54,0,0,0,.553-3.043c0-1.383.138-1.8.138-5.118a40.873,40.873,0,0,0-.138-5.118,8.54,8.54,0,0,0-.553-3.043,5.415,5.415,0,0,0-1.383-2.213A5.415,5.415,0,0,0,20.612.692,8.54,8.54,0,0,0,17.568.138,40.873,40.873,0,0,0,12.45,0m0,6.087A6.261,6.261,0,0,0,6.087,12.45,6.363,6.363,0,1,0,12.45,6.087m0,10.513A4.076,4.076,0,0,1,8.3,12.45,4.076,4.076,0,0,1,12.45,8.3a4.076,4.076,0,0,1,4.15,4.15,4.076,4.076,0,0,1-4.15,4.15M19.09,4.288A1.522,1.522,0,1,0,20.612,5.81,1.535,1.535,0,0,0,19.09,4.288" transform="translate(501.3 481.556)"/>
  </g>
</svg>
