<svg xmlns="http://www.w3.org/2000/svg" viewBox="2051.018 501 25.982 28.324">
  <defs>
    <style>
      .cls-1 {
        fill: #2979ff;
      }
    </style>
  </defs>
  <g id="Group_160" data-name="Group 160" transform="translate(1433 21)">
    <path id="Path_30" data-name="Path 30" class="cls-1" d="M1.784.072c1.47.849,16.053,16.053,16.053,16.053s-.045,1.917-7.848,1.917S1.338,16.437.713,15.723,0,6.136,0,6.136.313-.777,1.784.072Z" transform="matrix(-0.951, 0.309, -0.309, -0.951, 643.628, 502.812)"/>
    <path id="iconmonstr-linkedin-1" d="M5.391,3.707A2.685,2.685,0,1,1,2.707,1,2.7,2.7,0,0,1,5.391,3.707Zm.022,4.872H0V25.9H5.413Zm8.641,0H8.676V25.9h5.379V16.807c0-5.056,6.527-5.469,6.527,0V25.9h5.4V14.932c0-8.531-9.659-8.22-11.928-4.021V8.578Z" transform="translate(618.018 479)"/>
  </g>
</svg>
