<svg id="Layer_1" data-name="Layer 1" xmlns="http://www.w3.org/2000/svg" viewBox="0 0 60 54"><defs><style>.cls-1{fill:#2979ff;}</style></defs><title>feedbackArtboard 1svg</title><g id="Group_155" data-name="Group 155"><path id="Path_318" data-name="Path 318" class="cls-1" d="M14.83,12H44.22l.36,19.31-29.11.35Z"/><path id="Path_317" data-name="Path 317" d="M38.67,54a2.08,2.08,0,0,0,0-4.15h-2V44.31H55.33A4.8,4.8,0,0,0,60,39.46V4.85A4.8,4.8,0,0,0,55.33,0H4.67A4.8,4.8,0,0,0,0,4.85V39.46a4.8,4.8,0,0,0,4.67,4.85H23.33v5.54h-2a2.08,2.08,0,0,0,0,4.15M4.67,4.15H55.33a.65.65,0,0,1,.67.61v34.7a.64.64,0,0,1-.58.69H4.67a.64.64,0,0,1-.67-.6V4.85a.63.63,0,0,1,.58-.69ZM16.46,9.69a2.12,2.12,0,0,0-1.79,2.08V30.46a2.12,2.12,0,0,0,2,2.08H26a3.33,3.33,0,0,1,1.25.65,4.16,4.16,0,0,1,.77,1,2,2,0,0,0,4,0,4.16,4.16,0,0,1,.77-1A3.33,3.33,0,0,1,34,32.54h9.33a2.12,2.12,0,0,0,2-2.08V11.77a2.12,2.12,0,0,0-2-2.08H34a7.26,7.26,0,0,0-4,1.62,7.26,7.26,0,0,0-4-1.62Zm2.21,4.16H26a3,3,0,0,1,1.42.6,1.86,1.86,0,0,1,.58.78V28.82a4.94,4.94,0,0,0-2-.44H18.67Zm15.33,0h7.33V28.38H34a4.94,4.94,0,0,0-2,.44V15.23a1.86,1.86,0,0,1,.58-.78A3,3,0,0,1,34,13.85ZM27.33,44.31h5.34v5.54H27.33Z"/></g></svg>