<?xml version="1.0" standalone="no"?><!-- Generator: Gravit.io --><svg xmlns="http://www.w3.org/2000/svg" xmlns:xlink="http://www.w3.org/1999/xlink" style="isolation:isolate" viewBox="1201 456 160.325 33.255" width="160.325" height="33.255"><g id="Group"><g id="500x-01 -text"><path d=" M 1219.044 472.628 C 1219.044 472.628 1219.044 472.628 1219.044 472.628 C 1219.044 472.628 1219.044 472.628 1219.044 472.628 C 1219.044 472.628 1219.044 472.628 1219.044 472.628 C 1219.044 472.628 1219.044 472.628 1219.044 472.628 Z " fill="none"/><path d=" M 1204.733 456.044 L 1204.733 456.044 C 1206.794 456.044 1208.466 457.716 1208.466 459.777 L 1208.466 485.522 C 1208.466 487.582 1206.794 489.255 1204.733 489.255 L 1204.733 489.255 C 1202.673 489.255 1201 487.582 1201 485.522 L 1201 459.777 C 1201 457.716 1202.673 456.044 1204.733 456.044 Z " fill="rgb(255,255,255)"/><path d=" M 1233.355 456.014 L 1233.355 456.014 C 1235.415 456.014 1237.088 457.687 1237.088 459.748 L 1237.088 485.493 C 1237.088 487.553 1235.415 489.226 1233.355 489.226 L 1233.355 489.226 C 1231.294 489.226 1229.621 487.553 1229.621 485.493 L 1229.621 459.748 C 1229.621 457.687 1231.294 456.014 1233.355 456.014 Z " fill="rgb(255,255,255)"/><path d=" M 1202.108 457.128 L 1202.108 457.128 C 1203.565 455.671 1205.931 455.671 1207.388 457.128 L 1221.666 471.406 C 1223.123 472.863 1223.123 475.229 1221.666 476.686 L 1221.666 476.686 C 1220.209 478.143 1217.844 478.143 1216.387 476.686 L 1202.108 462.408 C 1200.652 460.951 1200.652 458.585 1202.108 457.128 Z " fill="rgb(255,255,255)"/><path d=" M 1235.977 457.09 L 1235.977 457.09 C 1234.517 455.637 1232.158 455.637 1230.698 457.09 L 1219.726 468.068 L 1222.307 470.649 C 1223.37 471.716 1223.865 473.222 1223.641 474.711 L 1235.977 462.375 C 1237.434 460.915 1237.434 458.55 1235.977 457.09 L 1235.977 457.09 Z " fill="rgb(255,255,255)"/><path d=" M 1216.068 477.776 L 1216.068 486.315 C 1216.068 486.37 1216.068 486.424 1216.076 486.477 L 1218.763 484.556 C 1218.934 484.434 1219.164 484.437 1219.332 484.564 L 1221.883 486.482 C 1221.883 486.428 1221.883 486.372 1221.883 486.315 L 1221.883 477.821 C 1220.158 479.125 1217.772 479.106 1216.068 477.776 Z " fill="rgb(255,255,255)"/></g><g id="Group"><g id="Group"><g transform="matrix(0.127,0,0,0.127,1241.945,462.036)"><text transform="matrix(1,0,0,1,0,158.58)" style="font-family:&quot;Comfortaa&quot;;font-weight:400;font-size:180px;font-style:normal;fill:#FFFFFF;stroke:none;">My Rappo</text></g></g></g></g></svg>