<svg id="Layer_1" data-name="Layer 1" xmlns="http://www.w3.org/2000/svg" viewBox="0 0 59.14 54"><defs><style>.cls-1{fill:#2979ff;}</style></defs><title>calArtboard 1svg</title><g id="Group_31" data-name="Group 31"><path id="Path_32" data-name="Path 32" class="cls-1" d="M1.79,17.58H57V51.84H1.09Z"/><g id="Group_30" data-name="Group 30"><path id="Path_31" data-name="Path 31" d="M10.29,0A3.21,3.21,0,0,0,7.07,3.2h0V5.14H3.21A3.26,3.26,0,0,0,0,8.36V50.78A3.26,3.26,0,0,0,3.21,54H55.93a3.25,3.25,0,0,0,3.21-3.22V8.36a3.26,3.26,0,0,0-3.21-3.22H52.07V3.22a3.22,3.22,0,1,0-6.43,0V5.14H39.21V3.21a3.22,3.22,0,0,0-6.43,0V5.14H26.36V3.21a3.22,3.22,0,0,0-6.43,0h0V5.14H13.5V3.21A3.21,3.21,0,0,0,10.3,0ZM3.86,9H7.07v.64a3.22,3.22,0,1,0,6.43,0V9h6.43v.64a3.22,3.22,0,1,0,6.43,0h0V9h6.43v.64a3.22,3.22,0,1,0,6.43,0h0V9h6.43v.64a3.21,3.21,0,1,0,6.42,0h0V9h3.22v6.43H3.86Zm0,10.29H55.29V50.14H3.86Zm11.57,9a1.85,1.85,0,0,0-1.75,1.18l-.78,2.05-2.11.16A2,2,0,0,0,9,33.82a2,2,0,0,0,.7,1.34l1.61,1.42-.5,2.15c-.24,1.2,1.2,3.09,2.83,2.15l1.79-1.16,1.77,1.16a2.1,2.1,0,0,0,2.11-.06A2,2,0,0,0,20,38.73l-.5-2.15,1.61-1.42a2.08,2.08,0,0,0,.64-2.09,2,2,0,0,0-1.71-1.39L18,31.52l-.78-2.05a1.85,1.85,0,0,0-1.75-1.18Zm14.14,0a1.86,1.86,0,0,0-1.75,1.18L27,31.52l-2.11.16a2,2,0,0,0-1.08,3.48l1.6,1.42L25,38.73c-.24,1.2,1.2,3.09,2.84,2.15l1.78-1.16,1.77,1.16a2.1,2.1,0,0,0,2.11-.06,2,2,0,0,0,.72-2.09l-.5-2.15,1.61-1.42a2,2,0,0,0-1.06-3.48l-2.11-.16-.79-2.05A1.85,1.85,0,0,0,29.57,28.29Zm14.14,0A1.84,1.84,0,0,0,42,29.47l-.79,2.05-2.11.16A2,2,0,0,0,38,35.16l1.61,1.42-.5,2.15c-.25,1.2,1.2,3.09,2.83,2.15l1.79-1.16,1.76,1.16a2.1,2.1,0,0,0,2.11-.06,2,2,0,0,0,.73-2.09l-.5-2.15,1.6-1.42a2.07,2.07,0,0,0,.65-2.09,2,2,0,0,0-1.71-1.39l-2.11-.16-.78-2.05A1.87,1.87,0,0,0,43.71,28.29Z"/></g></g></svg>