<svg id="Layer_1" data-name="Layer 1" xmlns="http://www.w3.org/2000/svg" viewBox="0 0 150 60"><defs><style>.cls-1{fill:#a6ce39;}.cls-2{fill:#00accd;}.cls-3{fill:#faa619;}.cls-4{isolation:isolate;}.cls-5{fill:#fff;}</style></defs><title>tac2019_logo1</title><path class="cls-1" d="M30.38,45.73l-8.49-1c1,3.39,3.33,3.44,8.49,1"/><path class="cls-1" d="M18.13,38.26c.78,3.88,4.58,5.25,10.43,4l-10.43-4"/><path class="cls-1" d="M29.13,39.67a4.84,4.84,0,0,0-1.06-1.15l-12-8.27c0,2.51.68,4.29,2.54,5.15,3,1.38,7.45,3,10.5,4.26"/><path class="cls-2" d="M31.35,35.4c.2-.1-.34-1.94-.37-2.31L25.45,12.51c-1.67,2.28-2.75,4.36-1.76,6.64C25.78,24,29.1,30.67,31.35,35.4"/><path class="cls-2" d="M19.47,27.7c2.73,2.6,7.6,6.64,10.48,9.1a17.55,17.55,0,0,0-1.49-2.1L19,21.38c-1,2.81-1,4.93.46,6.32"/><path class="cls-2" d="M34.44,33.62a48.29,48.29,0,0,1-3.2-11.73,52.88,52.88,0,0,1-.49-9.39,13.7,13.7,0,0,1,5.19-9.93c-1.6,9.09-1.51,31-1.51,31"/><path class="cls-3" d="M34.36,50.85,30.2,52.78c2.21,1.29,3,.89,4.15-1.94"/><path class="cls-3" d="M25.55,49.33c1.94,2.3,2.77,2.24,6.36-.59l-6.36.59"/><path class="cls-3" d="M33.75,54.83c2.27.58,2.76-.75,3.18-2.15l-3.18,2.15"/><g class="cls-4"><g class="cls-4"><path class="cls-5" d="M35.08,37.88H46.33V40.7H35.08Zm3.38,3.5h4.49v9.46H38.46Z"/></g><g class="cls-4"><path class="cls-5" d="M49.37,50.84H45.2l4.63-12.37,1.91,5.15Zm5.39-1.42H50.52l.9-2.57h2.34l-3.47-9H54.5l5.17,13H55.31Z"/><path class="cls-5" d="M65,50.84H63.3l-2.6-2.59V40.47l2.6-2.59H65Zm.68-10.37V37.88h4.6l2.59,2.59v2.61H68.58V40.47Zm0,10.37V48.25h2.87V46.36h4.32v1.89l-2.59,2.59Z"/><path class="cls-5" d="M79.19,50.84H74.88V46.19l2.76-2.6h5.11V37.88h1.73l2.59,2.59v3.2l-2.59,2.59H79.19Zm0-10.62V42.1H74.88V40.47l2.6-2.59h4.59v2.33Zm.68,10.63V48.51h7.19v2.33Z"/><path class="cls-5" d="M93.49,50.84H91.77l-2.6-2.59V40.47l2.6-2.59h5v2.59H93.49Zm8.21-2.59-2.59,2.59h-5V48.25h3.23V37.88h1.73l2.59,2.59Z"/><path class="cls-5" d="M104.14,39.18l1.29-1.3h5.19v9.78H106.3V40.47h-2.16Zm0,9.07h8.63v2.59h-8.63Z"/><path class="cls-5" d="M122.76,43.4V46h-5l-2.6-2.6V40.47l2.6-2.59h3.33v2.59h-1.61V43.4Zm-1.62,4.85v2.59h-3.33l-2.6-2.59v-.87h4.32v.87Zm2.29-7.78H121.8V37.88h3.35l2.59,2.59v7.78l-2.59,2.59H121.8V48.25h1.62Z"/></g></g><g class="cls-4"><g class="cls-4"><path class="cls-5" d="M39.38,52.9h-1v-.35h2.37v.35h-1v2.85h-.42Z"/></g><g class="cls-4"><path class="cls-5" d="M41,54.68a.73.73,0,0,0,.79.8,1.5,1.5,0,0,0,.64-.12l.07.3a1.83,1.83,0,0,1-.76.15,1.07,1.07,0,0,1-1.13-1.16,1.11,1.11,0,0,1,1.08-1.24,1,1,0,0,1,.94,1.08.9.9,0,0,1,0,.19Zm1.22-.3a.59.59,0,0,0-.58-.67.69.69,0,0,0-.64.67Z"/><path class="cls-5" d="M44.79,55.67a1.53,1.53,0,0,1-.66.14A1.09,1.09,0,0,1,43,54.63a1.17,1.17,0,0,1,1.23-1.22,1.42,1.42,0,0,1,.58.12l-.09.32a1,1,0,0,0-.48-.11.8.8,0,0,0-.81.87.79.79,0,0,0,.8.86,1.19,1.19,0,0,0,.51-.11Z"/><path class="cls-5" d="M45.28,52.38h.41v1.43h0a.83.83,0,0,1,.3-.29.86.86,0,0,1,.43-.11c.31,0,.8.19.8,1v1.37h-.41V54.43c0-.37-.14-.68-.53-.68a.6.6,0,0,0-.56.41.57.57,0,0,0,0,.2v1.39h-.41Z"/><path class="cls-5" d="M47.92,54.08c0-.24,0-.43,0-.62h.37l0,.38h0a.85.85,0,0,1,.76-.43c.31,0,.81.19.81,1v1.37h-.41V54.43c0-.37-.14-.68-.53-.68a.6.6,0,0,0-.56.43.59.59,0,0,0,0,.19v1.38h-.41Z"/><path class="cls-5" d="M51,52.81a.25.25,0,0,1-.27.26.24.24,0,0,1-.25-.26.25.25,0,0,1,.26-.26A.26.26,0,0,1,51,52.81Zm-.47,2.94V53.46H51v2.29Z"/><path class="cls-5" d="M53.31,55.67a1.53,1.53,0,0,1-.66.14,1.09,1.09,0,0,1-1.14-1.17,1.17,1.17,0,0,1,1.23-1.22,1.42,1.42,0,0,1,.58.12l-.09.32a1,1,0,0,0-.48-.11.8.8,0,0,0-.81.87.79.79,0,0,0,.8.86,1.19,1.19,0,0,0,.51-.11Z"/><path class="cls-5" d="M55.41,55.2a3.83,3.83,0,0,0,0,.55h-.37l0-.29h0a.87.87,0,0,1-.7.34.66.66,0,0,1-.7-.66c0-.56.49-.86,1.38-.85v-.05a.48.48,0,0,0-.52-.53,1.13,1.13,0,0,0-.6.17l-.1-.27a1.43,1.43,0,0,1,.75-.2c.7,0,.87.48.87.94Zm-.4-.62c-.46,0-1,.07-1,.51a.37.37,0,0,0,.39.4.58.58,0,0,0,.56-.38A.71.71,0,0,0,55,55Z"/><path class="cls-5" d="M56.09,52.38h.41v3.37h-.41Z"/></g><g class="cls-4"><path class="cls-5" d="M58.75,54.74l-.33,1H58l1.09-3.2h.49l1.09,3.2h-.44l-.34-1Zm1-.32-.31-.92c-.07-.21-.12-.4-.17-.58h0c0,.19-.09.38-.16.58l-.31.92Z"/></g><g class="cls-4"><path class="cls-5" d="M63,55.42a1.31,1.31,0,0,1-.33,1,1.24,1.24,0,0,1-.84.28,1.51,1.51,0,0,1-.77-.19l.1-.32a1.33,1.33,0,0,0,.68.18c.43,0,.74-.23.74-.81v-.26h0a.83.83,0,0,1-.73.38,1,1,0,0,1-1-1.12,1.1,1.1,0,0,1,1-1.21.76.76,0,0,1,.72.39h0l0-.34H63c0,.16,0,.35,0,.63Zm-.41-1.06a.59.59,0,0,0,0-.19.6.6,0,0,0-.59-.44c-.39,0-.68.34-.68.87s.23.83.68.83a.62.62,0,0,0,.58-.43.73.73,0,0,0,0-.22Z"/></g><g class="cls-4"><path class="cls-5" d="M64.17,52.81a.25.25,0,0,1-.27.26.24.24,0,0,1-.25-.26.25.25,0,0,1,.26-.26A.26.26,0,0,1,64.17,52.81Zm-.47,2.94V53.46h.41v2.29Z"/><path class="cls-5" d="M64.81,52.38h.41v3.37h-.41Z"/><path class="cls-5" d="M66.39,52.81a.25.25,0,0,1-.27.26.24.24,0,0,1-.25-.26.25.25,0,0,1,.26-.26A.26.26,0,0,1,66.39,52.81Zm-.47,2.94V53.46h.41v2.29Z"/></g><g class="cls-4"><path class="cls-5" d="M67.54,52.79v.66h.6v.31h-.6V55c0,.29.08.45.31.45a1,1,0,0,0,.24,0l0,.31a.93.93,0,0,1-.37.06.6.6,0,0,1-.45-.17.93.93,0,0,1-.16-.6V53.77h-.36v-.31h.36V52.9Z"/></g><g class="cls-4"><path class="cls-5" d="M68.8,53.46l.5,1.35c.05.15.11.33.15.47h0c0-.13.09-.31.15-.47l.46-1.35h.44l-.63,1.63a3.57,3.57,0,0,1-.79,1.44,1.21,1.21,0,0,1-.51.27l-.1-.35a1.12,1.12,0,0,0,.37-.2,1.31,1.31,0,0,0,.35-.46.27.27,0,0,0,0-.1.29.29,0,0,0,0-.11l-.84-2.11Z"/></g><g class="cls-4"><path class="cls-5" d="M71,53.83a.28.28,0,1,1,.28.29A.28.28,0,0,1,71,53.83Zm0,1.67a.28.28,0,0,1,.29-.3.3.3,0,1,1-.29.3Z"/><path class="cls-5" d="M73.38,52.59a4.12,4.12,0,0,1,.76-.07,1.3,1.3,0,0,1,.87.23.66.66,0,0,1,.27.56.76.76,0,0,1-.54.7h0a.84.84,0,0,1,.38,1.44,1.58,1.58,0,0,1-1.1.3,4.81,4.81,0,0,1-.65,0Zm.42,1.31h.38c.43,0,.69-.23.69-.54s-.28-.52-.7-.52a1.82,1.82,0,0,0-.37,0Zm0,1.53.35,0c.43,0,.83-.16.83-.62s-.38-.62-.83-.62h-.34Z"/><path class="cls-5" d="M77.51,55.75l0-.37h0a.86.86,0,0,1-.76.43c-.45,0-.79-.27-.79-1V53.46h.42v1.27c0,.45.14.74.5.74a.6.6,0,0,0,.56-.38.69.69,0,0,0,0-.22v-1.4h.41v1.67c0,.24,0,.44,0,.63Z"/><path class="cls-5" d="M78.5,55.32a1.1,1.1,0,0,0,.55.17c.3,0,.45-.15.45-.34s-.12-.3-.43-.42-.61-.38-.61-.65a.71.71,0,0,1,.79-.67,1.16,1.16,0,0,1,.57.14l-.1.3a1,1,0,0,0-.47-.14.34.34,0,0,0-.38.32c0,.19.13.28.44.39s.6.34.6.69-.31.69-.86.69a1.31,1.31,0,0,1-.65-.16Z"/><path class="cls-5" d="M80.9,52.81a.25.25,0,0,1-.27.26.24.24,0,0,1-.25-.26.25.25,0,0,1,.26-.26A.26.26,0,0,1,80.9,52.81Zm-.47,2.94V53.46h.41v2.29Z"/><path class="cls-5" d="M81.55,54.08c0-.24,0-.43,0-.62h.37l0,.38h0a.85.85,0,0,1,.76-.43c.31,0,.81.19.81,1v1.37h-.41V54.43c0-.37-.14-.68-.53-.68a.63.63,0,0,0-.59.62v1.38h-.41Z"/><path class="cls-5" d="M84.42,54.68a.73.73,0,0,0,.79.8,1.49,1.49,0,0,0,.64-.12l.07.3a1.82,1.82,0,0,1-.76.15A1.07,1.07,0,0,1,84,54.64a1.11,1.11,0,0,1,1.08-1.24A1,1,0,0,1,86,54.48a.91.91,0,0,1,0,.19Zm1.22-.3a.59.59,0,0,0-.58-.67.69.69,0,0,0-.64.67Z"/><path class="cls-5" d="M86.5,55.32a1.1,1.1,0,0,0,.55.17c.3,0,.45-.15.45-.34s-.12-.3-.43-.42-.61-.38-.61-.65a.71.71,0,0,1,.79-.67,1.16,1.16,0,0,1,.56.14l-.1.3a.94.94,0,0,0-.47-.14.34.34,0,0,0-.38.32c0,.19.13.28.44.39s.6.34.6.69-.31.69-.86.69a1.31,1.31,0,0,1-.65-.16Z"/><path class="cls-5" d="M88.39,55.32a1.1,1.1,0,0,0,.55.17c.3,0,.45-.15.45-.34s-.12-.3-.43-.42-.61-.38-.61-.65a.71.71,0,0,1,.79-.67,1.16,1.16,0,0,1,.56.14l-.1.3a.94.94,0,0,0-.47-.14.34.34,0,0,0-.38.32c0,.19.13.28.44.39s.6.34.6.69-.31.69-.86.69a1.31,1.31,0,0,1-.65-.16Z"/></g><g class="cls-4"><path class="cls-5" d="M91.88,55.75l-1-3.2h.45l.5,1.58c.13.43.26.83.34,1.2h0c.09-.37.22-.77.36-1.19L93,52.55h.44l-1.14,3.2Z"/></g><g class="cls-4"><path class="cls-5" d="M95.27,55.2a3.9,3.9,0,0,0,0,.55h-.37l0-.29h0a.87.87,0,0,1-.7.34.66.66,0,0,1-.7-.66c0-.56.49-.86,1.38-.85v-.05a.48.48,0,0,0-.52-.53,1.13,1.13,0,0,0-.6.17l-.1-.27a1.43,1.43,0,0,1,.75-.2c.7,0,.87.48.87.94Zm-.4-.62c-.46,0-1,.07-1,.51a.37.37,0,0,0,.39.4.58.58,0,0,0,.56-.38.75.75,0,0,0,0-.13Z"/><path class="cls-5" d="M95.95,52.38h.41v3.37h-.41Z"/><path class="cls-5" d="M98.63,55.75l0-.37h0a.86.86,0,0,1-.76.43c-.45,0-.79-.27-.79-1V53.46h.42v1.27c0,.45.14.74.5.74a.6.6,0,0,0,.56-.38.69.69,0,0,0,0-.22v-1.4H99v1.67c0,.24,0,.44,0,.63Z"/></g><g class="cls-4"><path class="cls-5" d="M99.91,54.68a.73.73,0,0,0,.79.8,1.49,1.49,0,0,0,.64-.12l.07.3a1.82,1.82,0,0,1-.76.15,1.07,1.07,0,0,1-1.13-1.16,1.11,1.11,0,0,1,1.08-1.24,1,1,0,0,1,.94,1.08.91.91,0,0,1,0,.19Zm1.22-.3a.59.59,0,0,0-.58-.67.69.69,0,0,0-.64.67Z"/></g><g class="cls-4"><path class="cls-5" d="M101.79,56.33a6.45,6.45,0,0,0,.28-1.13l.47,0a6.11,6.11,0,0,1-.46,1.15Z"/></g><g class="cls-4"><path class="cls-5" d="M104.06,55.25a1.46,1.46,0,0,0,.74.21c.42,0,.67-.22.67-.55s-.17-.47-.61-.64-.84-.46-.84-.91a.92.92,0,0,1,1-.86,1.53,1.53,0,0,1,.71.15l-.11.34a1.26,1.26,0,0,0-.61-.15c-.44,0-.6.26-.6.48s.19.45.64.62.82.47.82.94-.37.92-1.12.92a1.66,1.66,0,0,1-.82-.21Z"/></g><g class="cls-4"><path class="cls-5" d="M106.93,52.79v.66h.6v.31h-.6V55c0,.29.08.45.31.45a1,1,0,0,0,.24,0l0,.31a.93.93,0,0,1-.37.06.61.61,0,0,1-.45-.17.93.93,0,0,1-.16-.6V53.77h-.36v-.31h.36V52.9Z"/><path class="cls-5" d="M109.61,55.2a3.76,3.76,0,0,0,0,.55h-.37l0-.29h0a.87.87,0,0,1-.7.34.66.66,0,0,1-.7-.66c0-.56.49-.86,1.38-.85v-.05a.48.48,0,0,0-.52-.53,1.13,1.13,0,0,0-.6.17l-.09-.27a1.43,1.43,0,0,1,.75-.2c.7,0,.87.48.87.94Zm-.4-.62c-.46,0-1,.07-1,.51a.37.37,0,0,0,.39.4.58.58,0,0,0,.56-.38.67.67,0,0,0,0-.13Z"/><path class="cls-5" d="M110.29,52.38h.41v1.44h0a.85.85,0,0,1,.78-.42,1,1,0,0,1,1,1.17,1.1,1.1,0,0,1-1,1.23.83.83,0,0,1-.77-.43h0l0,.38h-.36c0-.16,0-.39,0-.59Zm.41,2.45a.56.56,0,0,0,0,.15.64.64,0,0,0,.63.49c.44,0,.7-.36.7-.88s-.24-.85-.69-.85a.67.67,0,0,0-.63.51.84.84,0,0,0,0,.17Z"/><path class="cls-5" d="M113,52.38h.41v3.37H113Z"/></g><g class="cls-4"><path class="cls-5" d="M114.35,54.68a.73.73,0,0,0,.79.8,1.5,1.5,0,0,0,.64-.12l.07.3a1.83,1.83,0,0,1-.76.15A1.07,1.07,0,0,1,114,54.64,1.11,1.11,0,0,1,115,53.41a1,1,0,0,1,.94,1.08.89.89,0,0,1,0,.19Zm1.22-.3a.59.59,0,0,0-.58-.67.69.69,0,0,0-.64.67Z"/></g><g class="cls-4"><path class="cls-5" d="M116.23,56.33a6.54,6.54,0,0,0,.28-1.13l.46,0a6.12,6.12,0,0,1-.46,1.15Z"/></g><g class="cls-4"><path class="cls-5" d="M118.56,52.55h1.72v.34H119V54h1.21v.34H119v1.45h-.42Z"/></g><g class="cls-4"><path class="cls-5" d="M122.25,55.2a3.76,3.76,0,0,0,0,.55h-.37l0-.29h0a.87.87,0,0,1-.7.34.66.66,0,0,1-.7-.66c0-.56.49-.86,1.38-.85v-.05a.48.48,0,0,0-.52-.53,1.13,1.13,0,0,0-.6.17l-.09-.27a1.43,1.43,0,0,1,.75-.2c.7,0,.87.48.87.94Zm-.4-.62c-.46,0-1,.07-1,.51a.37.37,0,0,0,.39.4.58.58,0,0,0,.56-.38.67.67,0,0,0,0-.13Z"/><path class="cls-5" d="M122.87,55.32a1.1,1.1,0,0,0,.55.17c.3,0,.45-.15.45-.34s-.12-.3-.43-.42-.61-.38-.61-.65a.71.71,0,0,1,.79-.67,1.16,1.16,0,0,1,.57.14l-.1.3a1,1,0,0,0-.47-.14.34.34,0,0,0-.38.32c0,.19.13.28.44.39s.6.34.6.69-.31.69-.86.69a1.31,1.31,0,0,1-.65-.16Z"/><path class="cls-5" d="M125.31,52.79v.66h.6v.31h-.6V55c0,.29.08.45.31.45a1,1,0,0,0,.24,0l0,.31a.93.93,0,0,1-.37.06.6.6,0,0,1-.45-.17.93.93,0,0,1-.16-.6V53.77h-.36v-.31h.36V52.9Z"/></g></g></svg>