<svg xmlns="http://www.w3.org/2000/svg" viewBox="1782 2164 72.502 54">
  <defs>
    <style>
      .cls-1 {
        fill: #2979ff;
      }
    </style>
  </defs>
  <g id="Group_156" data-name="Group 156" transform="translate(1433 1662)">
    <path id="Path_319" data-name="Path 319" class="cls-1" d="M1815.563,1411.632l15.618-12.536.85-10.943,13.63-.848,8.255-6.483v-15.511h-65.232v46.746Z" transform="translate(-1436 -859.5)"/>
    <g id="Group_54" data-name="Group 54" transform="translate(349 502)">
      <path id="Path_52" data-name="Path 52" d="M19.538,68.76H17.824l-.53-1.628a.266.266,0,0,0-.507,0l-.528,1.628H14.545a.267.267,0,0,0-.251.183.264.264,0,0,0,.1.3l1.386,1.008-.53,1.628a.27.27,0,0,0,.1.3.263.263,0,0,0,.314,0l1.385-1.007,1.385,1.007a.267.267,0,0,0,.411-.3l-.53-1.628,1.386-1.008a.266.266,0,0,0,.1-.3A.27.27,0,0,0,19.538,68.76Z" transform="translate(-5.499 -26.915)"/>
      <path id="Path_53" data-name="Path 53" d="M33.2,68.76H31.49l-.53-1.628a.266.266,0,0,0-.507,0l-.528,1.628H28.211a.267.267,0,0,0-.251.183.264.264,0,0,0,.1.3l1.386,1.008-.531,1.627a.27.27,0,0,0,.1.3.263.263,0,0,0,.314,0l1.385-1.007,1.385,1.007a.267.267,0,0,0,.411-.3l-.53-1.628,1.386-1.008a.265.265,0,0,0-.155-.48Z" transform="translate(-8.655 -26.915)"/>
      <path id="Path_54" data-name="Path 54" d="M15.879,42.6h31.99a1.6,1.6,0,1,0,0-3.2H15.879a1.6,1.6,0,0,0,0,3.2Z" transform="translate(-5.498 -20.552)"/>
      <path id="Path_55" data-name="Path 55" d="M15.879,33.233h43.2a1.6,1.6,0,0,0,0-3.2h-43.2a1.6,1.6,0,0,0,0,3.2Z" transform="translate(-5.498 -18.388)"/>
      <path id="Path_56" data-name="Path 56" d="M40.665,47.731H15.88a1.6,1.6,0,1,0,0,3.2H40.665a1.6,1.6,0,1,0,0-3.2Z" transform="translate(-5.499 -22.476)"/>
      <path id="Path_57" data-name="Path 57" d="M32.659,56.761H15.88a1.6,1.6,0,1,0,0,3.2h16.78a1.6,1.6,0,1,0,0-3.2Z" transform="translate(-5.499 -24.562)"/>
      <path id="Path_58" data-name="Path 58" d="M71.363,14.89H6.86a4,4,0,0,0-4,4v46a4,4,0,0,0,4,4h64.5a4,4,0,0,0,4-4v-46A4,4,0,0,0,71.363,14.89Zm1.093,35.251a6.588,6.588,0,0,1-1.33,3.068,6.744,6.744,0,0,0-.431.707,2.1,2.1,0,0,0-.054.47c-.008.092-.008.208-.016.323a6.373,6.373,0,0,1-.969,3.707,6.339,6.339,0,0,1-3.168,2.053,6.129,6.129,0,0,0-.807.331,7.611,7.611,0,0,0-.523.638,6.21,6.21,0,0,1-2.976,2.4l-.123.031a4.8,4.8,0,0,1-.677.131,4.571,4.571,0,0,1-1.084.015,9.549,9.549,0,0,1-1.838-.376,5.6,5.6,0,0,0-.861-.208,5.678,5.678,0,0,0-.907.215,8.363,8.363,0,0,1-2.285.4,4.561,4.561,0,0,1-1.415-.215,6.118,6.118,0,0,1-2.953-2.392,6.426,6.426,0,0,0-.554-.654,8.066,8.066,0,0,0-.785-.315,6.259,6.259,0,0,1-3.145-2.038,5.177,5.177,0,0,1-.931-2.661l-11.41,9.12H6.86v-46h64.5v15.5l-5.352,4.283c.154.062.338.131.477.177a6.284,6.284,0,0,1,3.145,2.03,6.259,6.259,0,0,1,.992,3.653l.015.423a1.944,1.944,0,0,0,.046.423,4.44,4.44,0,0,0,.438.715,7.515,7.515,0,0,1,1.238,2.538,4.352,4.352,0,0,1,.123,1.031A3.288,3.288,0,0,1,72.456,50.141Z" transform="translate(-2.861 -14.89)"/>
      <path id="Path_59" data-name="Path 59" d="M83.142,55.679c-.023-.092-.046-.185-.077-.27a4.877,4.877,0,0,0-.484-1.03c-.07-.115-.146-.223-.223-.338-.062-.1-.123-.192-.192-.292-.139-.208-.277-.407-.385-.6a3.313,3.313,0,0,1-.277-.577,2.1,2.1,0,0,1-.085-.446,1.347,1.347,0,0,1-.022-.192c-.008-.062-.008-.131-.016-.2-.008-.153-.015-.284-.023-.415a4.7,4.7,0,0,0-.654-2.745,1.885,1.885,0,0,0-.231-.269,2.58,2.58,0,0,0-.423-.354,6.747,6.747,0,0,0-1.669-.792,6.243,6.243,0,0,1-.992-.408c-.085-.046-.161-.092-.231-.138a.008.008,0,0,1-.008-.008.814.814,0,0,1-.123-.1,1.19,1.19,0,0,1-.1-.092,8.292,8.292,0,0,1-.669-.792,4.569,4.569,0,0,0-2.1-1.792l-.008-.008a1.079,1.079,0,0,0-.146-.038c-.092-.023-.176-.038-.269-.054a3.049,3.049,0,0,0-.469-.038,2.8,2.8,0,0,0-.438.031c-.153.023-.307.046-.461.077a.011.011,0,0,1-.016,0c-.145.038-.292.069-.438.108s-.3.077-.446.123a5.388,5.388,0,0,1-1.377.277,5.171,5.171,0,0,1-1.438-.3.13.13,0,0,1-.038-.015c-.031-.008-.078-.015-.123-.031a.148.148,0,0,0-.062-.015l-.069-.023a.317.317,0,0,0-.092-.023h-.008a5.322,5.322,0,0,0-1.73-.185,1.944,1.944,0,0,0-.308.054,1.67,1.67,0,0,0-.185.054,4.643,4.643,0,0,0-2.122,1.792c-.176.231-.331.431-.477.592-.069.077-.131.146-.192.208a1.376,1.376,0,0,1-.2.177,5.219,5.219,0,0,1-1.246.569,6.139,6.139,0,0,0-1.838.915c-.092.077-.177.154-.261.238a2.611,2.611,0,0,0-.231.269,4.559,4.559,0,0,0-.654,2.661,5.706,5.706,0,0,1-.154,1.353,5.242,5.242,0,0,1-.654,1.146,4.62,4.62,0,0,0-1.061,2.577c0,.092.008.176.015.269a3,3,0,0,0,.161.722.027.027,0,0,0,.008.016,4.256,4.256,0,0,0,.27.592c.031.062.069.123.1.177.069.115.138.223.192.308.115.176.215.331.323.492.161.238.292.438.4.623a2.943,2.943,0,0,1,.238.5l.008.008a1.9,1.9,0,0,1,.054.223,4.526,4.526,0,0,1,.085.831c.008.1.008.2.015.308a4.54,4.54,0,0,0,.646,2.652,4.606,4.606,0,0,0,2.33,1.43,8.246,8.246,0,0,1,.992.408q.127.069.231.138a1.785,1.785,0,0,1,.231.2c.047.047.092.092.139.146a.554.554,0,0,1,.077.092,4.915,4.915,0,0,1,.354.431c.031.038.069.078.1.123a4.561,4.561,0,0,0,2.107,1.8,3.039,3.039,0,0,0,.877.131.749.749,0,0,0,.185-.015c.161-.008.315-.031.477-.054.077-.015.161-.023.238-.038h.016c.231-.046.454-.108.669-.161.077-.023.145-.038.215-.062.123-.038.254-.069.377-.108a5.233,5.233,0,0,1,.631-.139,2.411,2.411,0,0,1,.384-.038,5.255,5.255,0,0,1,1.338.27,8.528,8.528,0,0,0,1.154.276,2.8,2.8,0,0,0,.345.047h.039a2.606,2.606,0,0,0,.53.015.767.767,0,0,1,.131-.015.587.587,0,0,0,.115-.016,2.733,2.733,0,0,0,.346-.077l.077-.016a2.72,2.72,0,0,0,.923-.515,2.427,2.427,0,0,0,.269-.231,2.479,2.479,0,0,0,.246-.254,10.04,10.04,0,0,0,.654-.792c.139-.184.262-.345.385-.484a.87.87,0,0,1,.108-.123,2.554,2.554,0,0,1,.384-.376,5.733,5.733,0,0,1,1.246-.561,9.471,9.471,0,0,0,1.253-.523,3.614,3.614,0,0,0,.722-.515.561.561,0,0,0,.123-.115,2.826,2.826,0,0,0,.239-.277l.008-.008a4.656,4.656,0,0,0,.63-2.653c.008-.208.016-.338.016-.445a3.946,3.946,0,0,1,.138-.908,2.717,2.717,0,0,1,.115-.269,3.943,3.943,0,0,1,.238-.423c.085-.146.192-.293.292-.446A5.147,5.147,0,0,0,83.2,56.624a.046.046,0,0,0,.008-.031.973.973,0,0,0,.008-.145.685.685,0,0,0,.008-.131,2.634,2.634,0,0,0-.07-.624C83.15,55.687,83.15,55.687,83.142,55.679ZM70.084,63.738a7.428,7.428,0,0,1-5.238-2.146c-.092-.092-.176-.185-.261-.276v-.008a7.557,7.557,0,0,1-1.423-2.276,6.357,6.357,0,0,1-.215-.646c-.047-.176-.092-.346-.131-.523a7.346,7.346,0,0,1-.161-1.554,7.183,7.183,0,0,1,.446-2.545c.038-.115.084-.231.131-.338s.1-.223.154-.338a7.663,7.663,0,0,1,1.2-1.769c.077-.085.161-.17.246-.254s.169-.17.254-.246a.008.008,0,0,0,.008-.008A7.727,7.727,0,0,1,66.154,50,.008.008,0,0,0,66.162,50a7.48,7.48,0,0,1,3.923-1.107,7.262,7.262,0,0,1,3.107.684,6.126,6.126,0,0,1,1.007.554,4.31,4.31,0,0,1,.569.415,6.127,6.127,0,0,1,.523.469,7.542,7.542,0,0,1,1.492,2.076.008.008,0,0,0,.008.008,7.445,7.445,0,0,1-6.706,10.643Z" transform="translate(-15.355 -21.542)"/>
      <path id="Path_60" data-name="Path 60" d="M76.685,54.849a1.333,1.333,0,0,0-1.778.252l-3.576,4.752-1-1.018a1.329,1.329,0,0,0-1.8-.018,1.272,1.272,0,0,0-.018,1.795l2.03,2.074a1.279,1.279,0,0,0,.907.381l.079,0a1.268,1.268,0,0,0,.937-.5l4.466-5.932a1.274,1.274,0,0,0-.254-1.779Z" transform="translate(-17.944 -24.066)"/>
    </g>
  </g>
</svg>
