<?xml version="1.0" standalone="no"?><!-- Generator: Gravit.io --><svg xmlns="http://www.w3.org/2000/svg" xmlns:xlink="http://www.w3.org/1999/xlink" style="isolation:isolate" viewBox="1003 404 27.464 25.359" width="27.464" height="25.359"><g id="shareArtboard 1svg"><path d=" M 1030.16 422.187 C 1028.372 423.234 1003.408 429.359 1003.408 429.359 C 1003.408 429.359 1001.432 428.144 1006.174 419.905 C 1010.916 411.666 1013.149 411.735 1014.275 411.518 C 1015.401 411.301 1024.845 416.606 1024.845 416.606 C 1024.845 416.606 1032.007 421.16 1030.16 422.187 Z " fill="rgb(41,121,255)"/><g id="Group_60"><path d=" M 1013.465 418.73 C 1013.095 418.742 1012.736 418.599 1012.477 418.334 C 1009.821 415.677 1009.821 411.37 1012.477 408.713 L 1015.016 406.174 C 1016.7 404.361 1019.236 403.605 1021.638 404.2 C 1024.04 404.794 1025.93 406.646 1026.574 409.035 C 1027.218 411.425 1026.514 413.976 1024.736 415.697 L 1024.637 415.796 C 1024.102 416.249 1023.309 416.218 1022.811 415.725 C 1022.312 415.231 1022.273 414.439 1022.721 413.899 C 1024.285 412.301 1024.285 409.747 1022.721 408.15 L 1022.721 408.15 C 1021.1 406.607 1018.553 406.607 1016.932 408.15 L 1014.423 410.629 C 1012.834 412.228 1012.834 414.809 1014.423 416.408 C 1014.693 416.665 1014.847 417.023 1014.847 417.396 C 1014.847 417.769 1014.693 418.126 1014.423 418.384 C 1014.159 418.641 1013.804 418.783 1013.435 418.779 L 1013.465 418.73 Z  M 1011.706 425.931 C 1008.955 425.93 1006.474 424.271 1005.422 421.729 C 1004.369 419.187 1004.95 416.26 1006.895 414.314 C 1007.149 414.059 1007.494 413.916 1007.854 413.916 C 1008.213 413.916 1008.558 414.059 1008.812 414.314 C 1009.315 414.835 1009.315 415.66 1008.812 416.181 C 1008.043 416.948 1007.611 417.989 1007.611 419.075 C 1007.611 420.161 1008.043 421.203 1008.812 421.97 L 1008.812 421.97 C 1010.43 423.511 1012.973 423.511 1014.591 421.97 L 1016.902 419.658 C 1017.67 418.893 1018.102 417.853 1018.102 416.769 C 1018.102 415.684 1017.67 414.645 1016.902 413.879 L 1016.902 413.879 C 1016.533 413.334 1016.607 412.602 1017.077 412.141 C 1017.548 411.68 1018.281 411.622 1018.819 412.002 C 1021.474 414.66 1021.474 418.966 1018.819 421.624 L 1018.819 421.624 L 1016.517 423.955 C 1015.241 425.229 1013.509 425.94 1011.706 425.931 Z " fill="rgb(0,0,0)"/></g></g></svg>