<?xml version="1.0" encoding="UTF-8" standalone="no"?>
<svg
   xmlns:dc="http://purl.org/dc/elements/1.1/"
   xmlns:cc="http://creativecommons.org/ns#"
   xmlns:rdf="http://www.w3.org/1999/02/22-rdf-syntax-ns#"
   xmlns:svg="http://www.w3.org/2000/svg"
   xmlns="http://www.w3.org/2000/svg"
   xmlns:sodipodi="http://sodipodi.sourceforge.net/DTD/sodipodi-0.dtd"
   xmlns:inkscape="http://www.inkscape.org/namespaces/inkscape"
   id="Layer_1"
   data-name="Layer 1"
   viewBox="0 0 1000 1000"
   version="1.1"
   sodipodi:docname="1000px-01.svg"
   inkscape:export-filename="F:\client work\My Rappo\myrappo\public\assets\logo\transparent white\1000px-01.png"
   inkscape:export-xdpi="96"
   inkscape:export-ydpi="96"
   inkscape:version="0.92.2 (5c3e80d, 2017-08-06)">
  <metadata
     id="metadata23">
    <rdf:RDF>
      <cc:Work
         rdf:about="">
        <dc:format>image/svg+xml</dc:format>
        <dc:type
           rdf:resource="http://purl.org/dc/dcmitype/StillImage" />
      </cc:Work>
    </rdf:RDF>
  </metadata>
  <sodipodi:namedview
     pagecolor="#ffffff"
     bordercolor="#666666"
     borderopacity="1"
     objecttolerance="10"
     gridtolerance="10"
     guidetolerance="10"
     inkscape:pageopacity="0"
     inkscape:pageshadow="2"
     inkscape:window-width="690"
     inkscape:window-height="480"
     id="namedview21"
     showgrid="false"
     inkscape:zoom="0.236"
     inkscape:cx="-133.47458"
     inkscape:cy="500"
     inkscape:window-x="487"
     inkscape:window-y="322"
     inkscape:window-maximized="0"
     inkscape:current-layer="Layer_1" />
  <defs
     id="defs4">
    <style
       id="style2">.cls-1{fill:#2979ff;}.cls-2{fill:#fff;}</style>
  </defs>
  <title
     id="title6">1000px</title>
  <ellipse
     class="cls-1"
     cx="526.15057"
     cy="-472.40402"
     id="circle8"
     transform="rotate(86.919064)"
     style="fill:none"
     r="500" />
  <rect
     class="cls-2"
     x="215.07"
     y="238.11"
     width="117.9"
     height="524.45"
     rx="58.17"
     ry="58.17"
     id="rect10" />
  <rect
     class="cls-2"
     x="667.03"
     y="237.65"
     width="117.9"
     height="524.45"
     rx="58.17"
     ry="58.17"
     id="rect12" />
  <rect
     class="cls-2"
     x="328.03"
     y="191.27"
     width="117.9"
     height="436.76"
     rx="58.17"
     ry="58.17"
     transform="translate(-176.32 393.62) rotate(-45)"
     id="rect14" />
  <path
     class="cls-2"
     d="M767.39,254.63h0a59.14,59.14,0,0,0-83.37,0L510.75,427.9l40.77,40.76a75,75,0,0,1,21.06,64.15L767.39,338A59.15,59.15,0,0,0,767.39,254.63Z"
     id="path16" />
  <path
     class="cls-2"
     d="M453,581.31V716.14c0,.87,0,1.72.11,2.56l42.44-30.33a7.58,7.58,0,0,1,9,.11l40.28,30.31c.06-.87.1-1.75.1-2.65V581.92A75.38,75.38,0,0,1,453,581.31Z"
     id="path18" />
</svg>
