<svg id="Layer_1" data-name="Layer 1" xmlns="http://www.w3.org/2000/svg" viewBox="0 0 1000 1000"><defs><style>.cls-1{fill:#2979ff;}.cls-2{fill:#fff;}</style></defs><title>1000px</title><circle class="cls-1" cx="500" cy="500" r="500"/><rect class="cls-2" x="215.07" y="238.11" width="117.9" height="524.45" rx="58.17" ry="58.17"/><rect class="cls-2" x="667.03" y="237.65" width="117.9" height="524.45" rx="58.17" ry="58.17"/><rect class="cls-2" x="328.03" y="191.27" width="117.9" height="436.76" rx="58.17" ry="58.17" transform="translate(-176.32 393.62) rotate(-45)"/><path class="cls-2" d="M767.39,254.63h0a59.14,59.14,0,0,0-83.37,0L510.75,427.9l40.77,40.76a75,75,0,0,1,21.06,64.15L767.39,338A59.15,59.15,0,0,0,767.39,254.63Z"/><path class="cls-2" d="M453,581.31V716.14c0,.87,0,1.72.11,2.56l42.44-30.33a7.58,7.58,0,0,1,9,.11l40.28,30.31c.06-.87.1-1.75.1-2.65V581.92A75.38,75.38,0,0,1,453,581.31Z"/></svg>