<svg id="Layer_1" data-name="Layer 1" xmlns="http://www.w3.org/2000/svg" viewBox="0 0 500 500"><defs><style>.cls-1{fill:#2979ff;}.cls-2{fill:#fff;}</style></defs><title>500x</title><circle class="cls-1" cx="250" cy="250" r="250"/><rect class="cls-2" x="107.53" y="119.06" width="58.95" height="262.22" rx="29.48" ry="29.48"/><rect class="cls-2" x="333.51" y="118.83" width="58.95" height="262.22" rx="29.48" ry="29.48"/><rect class="cls-2" x="164.01" y="95.64" width="58.95" height="218.38" rx="29.48" ry="29.48" transform="translate(-88.16 196.81) rotate(-45)"/><path class="cls-2" d="M383.69,127.32h0a29.54,29.54,0,0,0-41.68,0L255.38,214l20.38,20.38a37.52,37.52,0,0,1,10.53,32.07l97.4-97.4A29.54,29.54,0,0,0,383.69,127.32Z"/><path class="cls-2" d="M226.5,290.65v67.42c0,.43,0,.86.06,1.28l21.22-15.17a3.8,3.8,0,0,1,4.49.06l20.14,15.15c0-.43,0-.87,0-1.32V291A37.68,37.68,0,0,1,226.5,290.65Z"/></svg>