<svg id="Layer_1" data-name="Layer 1" xmlns="http://www.w3.org/2000/svg" viewBox="0 0 30 32.73"><defs><style>.cls-1{fill:#2979ff;}</style></defs><title>locationArtboard 1svg</title><g id="Group_169" data-name="Group 169"><path id="Path_514" data-name="Path 514" class="cls-1" d="M5.72,24.21,2.07,31l25.57.36L28.85,31l-4-6.79H5.72Z"/><path id="Path_513" data-name="Path 513" d="M14.22,27a1.39,1.39,0,0,0,1.56,0c.41-.29,10.13-7.19,10.13-16.12a10.91,10.91,0,0,0-21.82,0C4.09,19.84,13.8,26.74,14.22,27ZM15,2.73a8.18,8.18,0,0,1,8.18,8.18c0,6.17-6,11.53-8.18,13.28-2.18-1.75-8.18-7.11-8.18-13.28A8.18,8.18,0,0,1,15,2.73Zm4.09,8.18A4.09,4.09,0,1,0,15,15a4.09,4.09,0,0,0,4.09-4.09Zm-5.45,0A1.36,1.36,0,1,1,15,12.27a1.35,1.35,0,0,1-1.36-1.36Zm16.2,19.8-4.1-7.5a1.34,1.34,0,0,0-1.2-.71H23.18a1.36,1.36,0,1,0-.07,2.72h.63L26.34,30H3.66l2.6-4.78h.55a1.36,1.36,0,0,0,0-2.72H5.45a1.36,1.36,0,0,0-1.2.71L.16,30.71a1.37,1.37,0,0,0,.55,1.85,1.23,1.23,0,0,0,.65.16H28.64A1.35,1.35,0,0,0,30,31.36,1.33,1.33,0,0,0,29.84,30.71Z"/></g></svg>