<svg id="Layer_1" data-name="Layer 1" xmlns="http://www.w3.org/2000/svg" viewBox="0 0 34 23.72"><defs><style>.cls-1{fill:#2699fb;}.cls-2{stroke:#000;}</style></defs><title>mailArtboard 1svg</title><g id="Group_12" data-name="Group 12"><path id="Path_10" data-name="Path 10" class="cls-1" d="M1.75,1.66,17,14.85,32.22,1.66h.86V22.78H.93V1.66Z"/><path id="Path_9" data-name="Path 9" class="cls-2" d="M33.48,22.74a.19.19,0,0,0,0-.08V1.06a.19.19,0,0,0,0-.08.5.5,0,0,0,0-.12L33.4.76a.21.21,0,0,0,0-.06s0,0,0,0l-.1-.07-.08,0a.38.38,0,0,0-.1,0L33,.51H1L.92.53a.32.32,0,0,0-.09,0L.75.61.65.68l0,0,0,.06L.53.86A.5.5,0,0,0,.51,1s0,.05,0,.08v21.6s0,.06,0,.08a.5.5,0,0,0,0,.12l.06.1,0,.06s0,0,0,0a.71.71,0,0,0,.14.1l0,0a.59.59,0,0,0,.22,0H32.94a.59.59,0,0,0,.23,0l0,0a.71.71,0,0,0,.14-.1l0,0,0-.06a.93.93,0,0,0,.05-.1A.5.5,0,0,0,33.48,22.74ZM1.61,2.27l11.1,9.59L1.61,21.45ZM17,14.1,2.55,1.61h28.9Zm-3.44-1.5,3.08,2.65.09.06.06,0a.54.54,0,0,0,.21.05h0a.5.5,0,0,0,.27-.08l.09-.06,3.08-2.65,11,9.51H2.55Zm7.73-.74,11.1-9.59V21.45Z"/></g></svg>