<svg id="Layer_1" data-name="Layer 1" xmlns="http://www.w3.org/2000/svg" viewBox="0 0 25.98 28.32"><defs><style>.cls-1{fill:#2979ff;}</style></defs><title>linkdinArtboard 1svg</title><g id="Group_160" data-name="Group 160"><path id="Path_30" data-name="Path 30" class="cls-1" d="M23.89,23.29C22.23,22.94,3.66,13,3.66,13s-.55-1.84,6.88-4.25,8.72-1.15,9.53-.66S23.71,17,23.71,17,25.55,23.65,23.89,23.29Z"/><path id="iconmonstr-linkedin-1" d="M5.39,2.71A2.69,2.69,0,1,1,2.71,0,2.68,2.68,0,0,1,5.39,2.71Zm0,4.87H0V24.9H5.41Zm8.64,0H8.68V24.9h5.37V15.81c0-5.06,6.53-5.47,6.53,0V24.9H26v-11c0-8.53-9.66-8.22-11.93-4V7.58Z"/></g></svg>