<svg xmlns="http://www.w3.org/2000/svg" viewBox="1958 2164 59.143 54">
  <defs>
    <style>
      .cls-1 {
        fill: #2979ff;
      }
    </style>
  </defs>
  <g id="Group_31" data-name="Group 31" transform="translate(849 1745)">
    <path id="Path_32" data-name="Path 32" class="cls-1" d="M1008.311,425.809h55.175v34.265h-55.878Z" transform="translate(102.482 10.771)"/>
    <g id="Group_30" data-name="Group 30" transform="translate(1109 419)">
      <path id="Path_31" data-name="Path 31" d="M14.286,960.362a3.207,3.207,0,0,0-3.214,3.214V965.5H7.214A3.251,3.251,0,0,0,4,968.719v42.428a3.251,3.251,0,0,0,3.214,3.215H59.928a3.251,3.251,0,0,0,3.214-3.215V968.719a3.251,3.251,0,0,0-3.214-3.214H56.071v-1.928a3.214,3.214,0,1,0-6.429,0V965.5H43.214v-1.928a3.214,3.214,0,1,0-6.429,0V965.5H30.357v-1.928a3.214,3.214,0,1,0-6.429,0V965.5H17.5v-1.928A3.207,3.207,0,0,0,14.286,960.362Zm-6.429,9h3.214v.643a3.214,3.214,0,1,0,6.429,0v-.643h6.429v.643a3.214,3.214,0,1,0,6.429,0v-.643h6.429v.643a3.214,3.214,0,1,0,6.429,0v-.643h6.429v.643a3.214,3.214,0,1,0,6.429,0v-.643h3.214v6.429H7.857Zm0,10.286H59.286V1010.5H7.857Zm11.571,9a1.87,1.87,0,0,0-1.748,1.185l-.783,2.049-2.109.161a1.97,1.97,0,0,0-1.085,3.476l1.607,1.426-.5,2.15c-.241,1.2,1.2,3.091,2.833,2.149l1.788-1.165,1.768,1.165a2.1,2.1,0,0,0,2.109-.06,2.012,2.012,0,0,0,.723-2.089l-.5-2.15,1.607-1.426a2.06,2.06,0,0,0,.643-2.089,2.039,2.039,0,0,0-1.708-1.386l-2.109-.161-.783-2.049A1.87,1.87,0,0,0,19.429,988.648Zm14.143,0a1.87,1.87,0,0,0-1.748,1.185l-.783,2.049-2.109.161a1.97,1.97,0,0,0-1.085,3.476l1.607,1.426-.5,2.15c-.241,1.2,1.2,3.091,2.833,2.149l1.788-1.165,1.768,1.165a2.1,2.1,0,0,0,2.109-.06,2.012,2.012,0,0,0,.723-2.089l-.5-2.15,1.607-1.426a2.06,2.06,0,0,0,.643-2.089,2.039,2.039,0,0,0-1.708-1.386l-2.109-.161-.783-2.049A1.87,1.87,0,0,0,33.571,988.648Zm14.143,0a1.87,1.87,0,0,0-1.748,1.185l-.783,2.049-2.109.161a1.97,1.97,0,0,0-1.085,3.476l1.607,1.426-.5,2.15c-.241,1.2,1.2,3.091,2.833,2.149l1.788-1.165,1.768,1.165a2.1,2.1,0,0,0,2.109-.06,2.012,2.012,0,0,0,.723-2.089l-.5-2.15,1.607-1.426a2.06,2.06,0,0,0,.643-2.089,2.039,2.039,0,0,0-1.708-1.386l-2.109-.161-.783-2.049A1.87,1.87,0,0,0,47.714,988.648Z" transform="translate(-4 -960.362)"/>
    </g>
  </g>
</svg>
