<svg xmlns="http://www.w3.org/2000/svg" viewBox="1617 2164 60 54">
  <defs>
    <style>
      .cls-1 {
        fill: #2979ff;
      }
    </style>
  </defs>
  <g id="Group_155" data-name="Group 155" transform="translate(1433 1662)">
    <path id="Path_318" data-name="Path 318" class="cls-1" d="M1814.129,1363.462h29.394l.354,19.31-29.11.345Z" transform="translate(-1615.301 -849.458)"/>
    <path id="Path_317" data-name="Path 317" d="M43.667,65a2.078,2.078,0,0,0,0-4.154h-2V55.308H60.333A4.794,4.794,0,0,0,65,50.462V15.846A4.794,4.794,0,0,0,60.333,11H9.667A4.794,4.794,0,0,0,5,15.846V50.462a4.794,4.794,0,0,0,4.667,4.846H28.333v5.538h-2a2.078,2.078,0,0,0,0,4.154M9.667,15.154H60.333a.638.638,0,0,1,.667.692V50.462a.638.638,0,0,1-.667.692H9.667A.638.638,0,0,1,9,50.462V15.846A.638.638,0,0,1,9.667,15.154Zm11.792,5.538a2.124,2.124,0,0,0-1.792,2.077V41.462a2.12,2.12,0,0,0,2,2.077H31a3.374,3.374,0,0,1,1.25.649,4.188,4.188,0,0,1,.771,1.017,1.991,1.991,0,0,0,3.958,0,4.189,4.189,0,0,1,.771-1.017A3.374,3.374,0,0,1,39,43.538h9.333a2.12,2.12,0,0,0,2-2.077V22.769a2.12,2.12,0,0,0-2-2.077H39a7.245,7.245,0,0,0-4,1.623,7.2,7.2,0,0,0-4-1.623Zm2.208,4.154H31a2.913,2.913,0,0,1,1.417.606,1.863,1.863,0,0,1,.583.779V39.817a4.871,4.871,0,0,0-2-.433H23.667Zm15.333,0h7.333V39.385H39a4.871,4.871,0,0,0-2,.433V26.231a1.863,1.863,0,0,1,.583-.779A2.914,2.914,0,0,1,39,24.846ZM32.333,55.308h5.333v5.538H32.333Z" transform="translate(179 491)"/>
  </g>
</svg>
