<svg xmlns="http://www.w3.org/2000/svg" viewBox="2130.5 2163.5 55 55">
  <defs>
    <style>
      .cls-1 {
        fill: #2979ff;
      }

      .cls-2 {
        stroke: #000;
        stroke-miterlimit: 10;
      }
    </style>
  </defs>
  <g id="Group_87" data-name="Group 87" transform="translate(1436 1674)">
    <path id="Path_314" data-name="Path 314" class="cls-1" d="M2141.955,1360.4h24.111s3.395.174,3.395,2.959v14.928h9.183s2.481.479,2.35,2.568-1.088,2.481-2.35,2.916-9.183.261-9.183.261h-38.038s-2.959-1.219-2.916-3.177,2.655-3.743,2.916-3.221,9.313,0,9.313,0v-16.451Z" transform="translate(-1433.051 -869.14)"/>
    <path id="Path_308" data-name="Path 308" class="cls-2" d="M50.9,18.5H42.8V5A4.456,4.456,0,0,0,38.3.5H16.7A4.456,4.456,0,0,0,12.2,5V18.5H4.1a3.6,3.6,0,0,0,0,7.2H50.9a3.6,3.6,0,1,0,0-7.2ZM16.7,2.3H38.3A2.652,2.652,0,0,1,41,5v6.3H14V5A2.652,2.652,0,0,1,16.7,2.3ZM14,13.1H41v5.4H14ZM50.9,23.9H4.1a1.8,1.8,0,1,1,0-3.6H50.9a1.8,1.8,0,0,1,0,3.6Z" transform="translate(694.5 489.5)"/>
    <circle id="Ellipse_35" data-name="Ellipse 35" class="cls-1" cx="5.85" cy="5.85" r="5.85" transform="translate(706.7 519.7)"/>
    <path id="Path_309" data-name="Path 309" class="cls-2" d="M19.7,45.9a7.2,7.2,0,1,0-7.2-7.2A7.221,7.221,0,0,0,19.7,45.9Zm0-12.6a5.4,5.4,0,1,1-5.4,5.4A5.416,5.416,0,0,1,19.7,33.3Z" transform="translate(693.3 486.4)"/>
    <path id="Path_310" data-name="Path 310" class="cls-2" d="M11.6,39.4v-.9H8A4.456,4.456,0,0,0,3.5,43V57.4H5.3V43A2.652,2.652,0,0,1,8,40.3h3.6Z" transform="translate(694.2 485.7)"/>
    <path id="Path_316" data-name="Path 316" class="cls-1" d="M2161.115,1408.366l2.785-.435,5.179,3.612,3.917,1.784,3.7-.653-5.179,4-5.353.392-5.048-3.09-1.175-3.351Z" transform="translate(-1436.194 -873.893)"/>
    <path id="Path_315" data-name="Path 315" class="cls-1" d="M2138.614,1413.391l6.441-1.349,5.092-4.352,3.743,1.349-.3,4.352-6.354,4.047-7.312-1.7Z" transform="translate(-1434.061 -873.869)"/>
    <path id="Path_311" data-name="Path 311" class="cls-2" d="M49.149,53.161a7.5,7.5,0,0,1-7.38-1.08l-3.6-2.88a4.132,4.132,0,0,0-4.41-.45A4.071,4.071,0,0,0,31.779,51a3.261,3.261,0,0,0,.09,2.43,9.393,9.393,0,0,0,5.85,5.4,8.7,8.7,0,0,0,3.06.45,9.6,9.6,0,0,0,5.76-1.89l3.51-2.7a.982.982,0,0,0,.27-1.17A1.021,1.021,0,0,0,49.149,53.161Zm-3.78,2.79a7.87,7.87,0,0,1-11.97-3.24,1.537,1.537,0,0,1-.09-1.08,2.285,2.285,0,0,1,1.17-1.26,2.35,2.35,0,0,1,2.43.27l3.6,2.88a9.033,9.033,0,0,0,5.4,1.98Z" transform="translate(691.391 484.719)"/>
    <path id="Path_312" data-name="Path 312" class="cls-2" d="M25.16,48.651a4.132,4.132,0,0,0-4.41.45l-3.6,2.88a7.319,7.319,0,0,1-7.38,1.08.833.833,0,0,0-1.08.36.982.982,0,0,0,.27,1.17l3.51,2.7a9.6,9.6,0,0,0,5.76,1.89,11.986,11.986,0,0,0,3.06-.45,9.9,9.9,0,0,0,5.85-5.4h0a3.249,3.249,0,0,0,.09-2.43A5.019,5.019,0,0,0,25.16,48.651Zm.27,4.05h0a7.87,7.87,0,0,1-11.97,3.24l-.63-.45a10.167,10.167,0,0,0,5.4-1.98l3.6-2.88a2.394,2.394,0,0,1,2.43-.27,2.654,2.654,0,0,1,1.17,1.26A1.133,1.133,0,0,1,25.43,52.7Z" transform="translate(693.69 484.729)"/>
    <rect id="Rectangle_56" data-name="Rectangle 56" class="cls-2" width="1.8" height="1.8" transform="translate(731.9 504.4)"/>
    <rect id="Rectangle_57" data-name="Rectangle 57" class="cls-2" width="1.8" height="1.8" transform="translate(728.3 504.4)"/>
    <rect id="Rectangle_58" data-name="Rectangle 58" class="cls-2" width="1.8" height="1.8" transform="translate(724.7 504.4)"/>
    <path id="Path_313" data-name="Path 313" class="cls-2" d="M44.84,33.6l-10.8,4.5a.865.865,0,0,0-.54.81.787.787,0,0,0,.54.81l10.8,4.5.72-1.62-8.82-3.69,8.82-3.69Z" transform="translate(691.2 486.19)"/>
  </g>
</svg>
