<svg xmlns="http://www.w3.org/2000/svg" viewBox="2299.015 1791.005 241.344 492.058">
  <defs>
    <style>
      .cls-1, .cls-14 {
        fill: #eee;
      }

      .cls-2, .cls-33, .cls-44 {
        fill: #fff;
      }

      .cls-3, .cls-5 {
        fill: #011a20;
      }

      .cls-4 {
        fill: #263136;
        stroke: #263136;
      }

      .cls-5 {
        stroke: #011a20;
      }

      .cls-6 {
        fill: #1d282c;
        stroke: #1d282c;
      }

      .cls-11, .cls-7 {
        fill: #04091d;
      }

      .cls-8 {
        stroke: #000;
      }

      .cls-9 {
        fill: #070d22;
      }

      .cls-10, .cls-13 {
        fill: #0b1010;
      }

      .cls-10 {
        stroke: #0b1010;
      }

      .cls-11 {
        stroke: #04091d;
      }

      .cls-12, .cls-16 {
        fill: #fbb686;
      }

      .cls-12 {
        stroke: #fbb686;
      }

      .cls-14 {
        stroke: #eee;
      }

      .cls-15, .cls-19 {
        fill: #f9a873;
      }

      .cls-17, .cls-23 {
        fill: #c3854e;
      }

      .cls-18 {
        fill: #d8aa80;
        stroke: #d8aa80;
      }

      .cls-19 {
        stroke: #f9a873;
      }

      .cls-20, .cls-24 {
        fill: #f9a36d;
      }

      .cls-20 {
        stroke: #f9a36d;
      }

      .cls-21 {
        fill: #e3c09f;
      }

      .cls-22, .cls-41 {
        fill: #f89c69;
      }

      .cls-22 {
        stroke: #f89c69;
      }

      .cls-23 {
        stroke: #bb804b;
      }

      .cls-25 {
        fill: #e8f6ff;
      }

      .cls-26, .cls-31, .cls-36 {
        fill: #350000;
      }

      .cls-27 {
        fill: #9e3a26;
        stroke: #9e3a26;
      }

      .cls-28 {
        fill: #aa5338;
        stroke: #a35036;
      }

      .cls-29 {
        fill: #641c05;
        stroke: #641c05;
      }

      .cls-30 {
        fill: #7a2914;
        stroke: #7a2914;
      }

      .cls-31 {
        stroke: #350000;
      }

      .cls-32, .cls-37 {
        fill: #e7a477;
      }

      .cls-33 {
        stroke: #fff;
      }

      .cls-34 {
        fill: #cce6f3;
      }

      .cls-35 {
        fill: #dd966a;
        stroke: #dd966a;
      }

      .cls-36 {
        stroke: #300;
      }

      .cls-37 {
        stroke: #e7a477;
      }

      .cls-38 {
        fill: #571803;
        stroke: #571803;
      }

      .cls-39 {
        fill: #6d2310;
      }

      .cls-40 {
        fill: #2979ff;
        stroke: #2979ff;
      }

      .cls-42 {
        fill: #222;
      }

      .cls-43 {
        fill: #191519;
      }

      .cls-44 {
        stroke: #e8f6ff;
      }
    </style>
  </defs>
  <g id="Group_82" data-name="Group 82" transform="translate(1474 1622)">
    <g id="Group_80" data-name="Group 80" transform="translate(825.015 460.112)">
      <path id="Path_69" data-name="Path 69" class="cls-1" d="M152.629,119.133V105.59a29.869,29.869,0,0,1-1.575,7.244c-7.244,20.157-37.479,34.645-72.439,33.7-32.755-.945-59.211-15.118-66.14-33.7A30.922,30.922,0,0,1,10.9,103.7v18.582c0,22.992,29.606,41.889,67.715,42.834,38.424.945,70.864-16.692,74.014-39.684a2.839,2.839,0,0,1,.315-1.575C152.944,122.6,152.629,121.022,152.629,119.133Z" transform="translate(-10.585 -60.202)"/>
      <path id="Path_70" data-name="Path 70" class="cls-2" d="M78.83,176.221c34.96.945,65.2-13.543,72.439-33.7a26.962,26.962,0,0,0,1.575-7.244V131.5c-.945-22.362-30.235-40.629-67.715-41.574C46.075,88.979,12.69,107.246,10.8,130.868v1.89a29.262,29.262,0,0,0,1.575,9.134C19.3,161.1,46.075,175.591,78.83,176.221Z" transform="translate(-10.8 -89.889)"/>
    </g>
    <g id="Group_81" data-name="Group 81" transform="translate(924 556.112)">
      <path id="Path_69-2" data-name="Path 69" class="cls-1" d="M152.629,119.133V105.59a29.869,29.869,0,0,1-1.575,7.244c-7.244,20.157-37.479,34.645-72.439,33.7-32.755-.945-59.211-15.118-66.14-33.7A30.922,30.922,0,0,1,10.9,103.7v18.582c0,22.992,29.606,41.889,67.715,42.834,38.424.945,70.864-16.692,74.014-39.684a2.839,2.839,0,0,1,.315-1.575C152.944,122.6,152.629,121.022,152.629,119.133Z" transform="translate(-10.585 -60.202)"/>
      <path id="Path_70-2" data-name="Path 70" class="cls-2" d="M78.83,176.221c34.96.945,65.2-13.543,72.439-33.7a26.962,26.962,0,0,0,1.575-7.244V131.5c-.945-22.362-30.235-40.629-67.715-41.574C46.075,88.979,12.69,107.246,10.8,130.868v1.89a29.262,29.262,0,0,0,1.575,9.134C19.3,161.1,46.075,175.591,78.83,176.221Z" transform="translate(-10.8 -89.889)"/>
    </g>
    <g id="Group_79" data-name="Group 79" transform="translate(940 235.594)">
      <path id="Path_251" data-name="Path 251" class="cls-3" d="M21.232,9.558h0A26.674,26.674,0,0,0,20,16.009v4.3c-2.458-3.994-3.072-11.366,0-14.438h0c.922-.922,1.843-2.15,2.765-3.072a9.088,9.088,0,0,0-.614,3.072C21.846,6.794,21.846,8.637,21.232,9.558Z" transform="translate(37.178 6.049)"/>
      <path id="Path_252" data-name="Path 252" class="cls-4" d="M39.31,10.752h0c-2.15,7.065.614,16.9,7.065,19.046a12.928,12.928,0,0,0,10.752-.307c0,1.843-.614,3.379-.922,5.53a17.342,17.342,0,0,1-7.373,11.673,13.753,13.753,0,0,1-6.144-1.229c.922,1.536-.307,1.229-1.229.922a16.55,16.55,0,0,1-3.994-2.15,30.843,30.843,0,0,1-6.144-4.915h0a6.611,6.611,0,0,1,0,2.458c-2.458-.922-3.994-5.53-4.915-7.68-1.229-3.072-1.843-6.451-3.072-9.216-.307.614-.307,1.843-.922,2.458-1.229-3.072-.307-7.68.307-10.752a15.232,15.232,0,0,1,2.458-6.144c.614-.922,2.458-2.458,2.458-3.686-1.843,0-3.994,1.843-5.837,1.536,1.229-2.765,5.222-4.915,7.987-6.144A71.722,71.722,0,0,1,37.467,0a12.909,12.909,0,0,1,7.987,3.686C42.382,4.915,40.539,7.373,39.31,10.752Z" transform="translate(45.211 0.247)"/>
      <path id="Path_253" data-name="Path 253" class="cls-5" d="M45.879,22.446c-3.072,1.536-6.758,1.536-10.752.307-6.144-2.15-9.216-11.981-7.065-19.046,0,2.765,2.15,5.837,2.765,7.68.307-.307.307-1.229.307-1.536a13.947,13.947,0,0,0,3.994,4.608c1.229.922,3.072,2.15,4.608,2.15a3.713,3.713,0,0,0-.922-3.072c1.229,0,2.458,1.229,3.994,1.229,1.843,0,2.458-1.229,2.15-3.072,1.843,1.229,4.3-2.15,5.222-3.072A10.356,10.356,0,0,0,51.715,3.4C55.095,11.694,52.023,19.374,45.879,22.446Z" transform="translate(56.767 7.292)"/>
      <path id="Path_254" data-name="Path 254" class="cls-6" d="M35.487,1.89C41.324-.875,49,2.2,51.461,8.341v.307a10.356,10.356,0,0,1-1.536,5.222C49,15.1,46.546,18.478,44.7,16.942c.307,1.536-.307,3.072-2.15,3.072-1.229,0-2.765-1.536-3.994-1.229a11.7,11.7,0,0,1,.922,3.072c-1.536,0-3.379-1.536-4.608-2.15a15.413,15.413,0,0,1-4.3-4.608,2.3,2.3,0,0,1-.307,1.536c-.614-2.15-2.458-5.222-2.765-7.68h0A9.723,9.723,0,0,1,33.644,2.2l.307.307c.614-.307.922-.307,1.536-.614Z" transform="translate(57.021 2.044)"/>
      <path id="Path_255" data-name="Path 255" class="cls-5" d="M47.169,49.932a18.179,18.179,0,0,1-12.288-2.765,9.335,9.335,0,0,1-2.15-1.536c-1.843-1.536-3.379-2.765-4.915-4.3l-.307-.307A30.569,30.569,0,0,1,18.6,21.67a26.675,26.675,0,0,1,1.229-6.451h0c.614-.922.614-2.765.614-3.994a9.088,9.088,0,0,1,.614-3.072L22.9,6.311c3.072-3.072,5.837-4.3,10.137-5.222A25.225,25.225,0,0,1,43.79.167a71.722,71.722,0,0,0-7.68,2.15c-2.765,1.229-6.758,3.072-7.987,6.144,1.843.307,3.686-1.843,5.837-1.536,0,1.229-1.843,2.765-2.458,3.686a21.449,21.449,0,0,0-2.458,6.144c-.614,3.072-1.229,7.68-.307,10.752.614-.614.614-1.843.922-2.458,1.229,3.072,1.843,6.144,3.072,9.216.922,2.15,2.458,6.451,4.915,7.68a6.611,6.611,0,0,0,0-2.458h0A24.056,24.056,0,0,0,43.79,44.4a16.551,16.551,0,0,0,3.994,2.15c.922.307,2.15.614,1.229-.922a13.753,13.753,0,0,0,6.144,1.229A16.774,16.774,0,0,1,47.169,49.932Z" transform="translate(38.581 0.081)"/>
      <path id="Path_256" data-name="Path 256" class="cls-7" d="M11.618,25.992c5.53,1.229,11.673,4.3,17.2,5.837-1.229,3.686-2.15,6.758-2.15,8.6A24.331,24.331,0,0,0,28.207,47.8c-5.53-3.072-14.438-7.373-20.889-12.6h0c-.307-2.765,2.15-7.68,4.3-9.216Z" transform="translate(15.15 53.819)"/>
      <path id="Path_257" data-name="Path 257" class="cls-8" d="M26.809,46.714c.307,4.3.614,11.059.614,18.125-.614-.307-1.229-.307-1.843-.614a37.313,37.313,0,0,1-6.144-2.765A15.188,15.188,0,0,1,13.6,56.545c4.608-.922,9.523-5.222,10.137-9.83,0-.307.221-.483.221-.79A5.029,5.029,0,0,0,26.809,46.714Z" transform="translate(28.221 95.764)"/>
      <path id="Path_258" data-name="Path 258" class="cls-8" d="M42.127,48.146a21.3,21.3,0,0,0,8.084,10.7c-.307.922-1.536,1.843-3.379,2.765A54.647,54.647,0,0,1,38.538,65.3a43.9,43.9,0,0,1-4.3-6.144,20.411,20.411,0,0,1-2.765,8.294A62.914,62.914,0,0,1,24.1,68.983c2.15-6.144,1.536-12.595,1.843-19.046A43.747,43.747,0,0,0,30.858,48.4c3.379-1.229,6-3.252,9.69-5.095C40.241,44.842,41.82,46.917,42.127,48.146Z" transform="translate(49.977 91.62)"/>
      <path id="Path_259" data-name="Path 259" class="cls-9" d="M29.265,49a43.9,43.9,0,0,0,4.3,6.144,47.482,47.482,0,0,1-7.065,2.15A37.594,37.594,0,0,0,29.265,49Z" transform="translate(54.949 101.773)"/>
      <path id="Path_260" data-name="Path 260" class="cls-10" d="M15.75,32.565c.922-2.458,1.843-4.915,2.765-7.065C17.286,42.4,25.581,71.579,26.5,84.789c0,0,0,1.843.307,4.608a9.47,9.47,0,0,0-3.072-.307C21.894,81.1,21.28,66.664,20.665,58.677a56.2,56.2,0,0,1-5.53-10.445A24.331,24.331,0,0,1,13.6,40.86C13.6,39.324,14.522,36.252,15.75,32.565Z" transform="translate(28.221 53.082)"/>
      <path id="Path_261" data-name="Path 261" class="cls-8" d="M35.966,21.7c.922,9.523-.922,19.353-3.379,28.876-2.458,9.83-8.6,34.406-3.072,44.543-1.536.614-3.072.922-4.915,1.536V93.891c1.536-15.36-.614-31.641.922-47.308.922-9.523,1.229-17.2,8.909-23.654C35.045,22.622,35.352,22.007,35.966,21.7Z" transform="translate(51.013 45.209)"/>
      <path id="Path_262" data-name="Path 262" class="cls-8" d="M57.716,27.371c-.307,3.686-2.15,8.294-3.379,11.673-1.843,5.53-4.608,11.059-6.758,16.589C43.892,66.077,39.9,75.908,38.67,86.967c-.307,3.072-.614,6.451-.614,9.83a62.207,62.207,0,0,1-10.445,4.3c-5.53-10.137.614-34.713,3.072-44.543,2.458-9.523,4.3-19.353,3.379-28.876,5.53-4.608,15.667-10.137,22.732-8.6,1.536,2.15,1.536,5.53.922,8.294Z" transform="translate(52.609 39.231)"/>
      <path id="Path_263" data-name="Path 263" class="cls-11" d="M52.69,22.1s.625,5.771.625,5.464c-6.589-1.5-18.484-.386-24.339,4.36.1-.082,1.366-1.454,1.228-1.339a37.554,37.554,0,0,0-2.7-11.249h1.922C38.024,17.487,48.7,15.03,52.69,22.1Z" transform="translate(57.021 35.905)"/>
      <path id="Path_264" data-name="Path 264" class="cls-12" d="M41.645,93.137c1.843,7.373,1.843,10.445,1.843,17.51,0,14.438-2.15,30.105-3.686,44.85l-.614.307c-1.229-.922-2.765-.922-5.222-.614h-.307a362.647,362.647,0,0,0-1.843-36.249C30.586,111.876,23.827,83.307,37.958,83,39.187,86.686,41.03,90.68,41.645,93.137Z" transform="translate(60.387 172.219)"/>
      <path id="Path_265" data-name="Path 265" class="cls-1" d="M51.848,53.784c4.608,15.667-.307,28.262-1.843,42.7C48.468,110,46.932,122.6,46.932,136.727a68.314,68.314,0,0,1-13.517,8.294,152.541,152.541,0,0,0,1.536-26.726L34.03,98.942c0-.922-.307-1.843-.307-2.458-.922-4.3-3.994-5.837-9.523-6.451,1.536-8.6,1.229-21.5,6.758-28.876C33.723,57.777,46.932,50.4,51.848,53.784Z" transform="translate(50.184 109.891)"/>
      <path id="Path_266" data-name="Path 266" class="cls-13" d="M30.934,126.99c.307-2.458.922-4.915,1.536-7.987h0a38.179,38.179,0,0,1,1.843-5.53c1.229-3.072,2.765-5.837,4.915-6.758h.307c2.458-.614,4.3-.307,5.222.614,3.072,2.15,1.843,7.987,1.536,11.981v.307c-.922,1.229-1.843,1.536-2.765,3.686h0a70.551,70.551,0,0,0-.614,11.673,21.762,21.762,0,0,0-4.3.307c.307-4.608-.614-10.137-1.536-14.438-1.229,3.379-1.843,12.288-2.458,14.745h0c-2.765.307-5.222.614-7.68,0C25.4,131.6,27.555,127.3,30.934,126.99Z" transform="translate(54.816 220.695)"/>
      <path id="Path_267" data-name="Path 267" class="cls-10" d="M32.638,114.286c.922-2.15.744-2.553,1.973-3.781-1.536,4.608-1.051,10.232-1.051,15.455H32.024a36.862,36.862,0,0,1,.614-11.673Z" transform="translate(66.014 229.405)"/>
      <path id="Path_268" data-name="Path 268" class="cls-14" d="M45.376,53.486A54.648,54.648,0,0,0,53.67,49.8l1.843-.475c1.843,3.686,1.973,7.078,2.959,11.139-4.915-3.072-17.4,3.775-19.854,7.154-5.837,7.373-5.53,20.275-6.758,28.876,5.222.614,8.294,2.15,9.523,6.451H38l-17.2-8.6c.922-3.072,1.536-6.758,2.15-9.216h.307a130.651,130.651,0,0,0,4.3-27.033,21.14,21.14,0,0,0,3.994-.614,62.915,62.915,0,0,0,7.373-1.536C40.461,55.022,42.918,54.408,45.376,53.486Z" transform="translate(43.139 103.431)"/>
      <path id="Path_269" data-name="Path 269" class="cls-13" d="M35.115,115.6v3.686c-1.229,1.229-3.072,1.229-4.915.614.307-1.229.307-2.458.614-3.994C32.35,115.907,33.886,115.6,35.115,115.6Z" transform="translate(62.616 239.765)"/>
      <path id="Path_270" data-name="Path 270" class="cls-15" d="M32.173,88.394A68.315,68.315,0,0,0,45.689,80.1v1.536c-.307,2.15.307,4.608,1.229,7.373-14.131.307-7.065,28.876-6.451,36.249a353.565,353.565,0,0,1,1.843,36.249c-2.15.614-3.686,3.686-4.915,6.758h-.307c1.229-12.6-8.294-58.06-12.288-76.8C27.565,90.237,29.715,89.316,32.173,88.394Z" transform="translate(51.427 166.211)"/>
      <path id="Path_271" data-name="Path 271" class="cls-10" d="M31.558,111a54.816,54.816,0,0,1,1.536,14.438,21.233,21.233,0,0,1-8.979-.933C24.729,121.74,30.636,114.379,31.558,111Z" transform="translate(60.336 230.234)"/>
      <path id="Path_272" data-name="Path 272" d="M31.317,21.486a114.4,114.4,0,0,1,14.745-3.379c.307,0,.922-.307,1.229-.307a40.331,40.331,0,0,1,2.765,11.673c-.614.307-.922.922-1.536,1.229-7.68,6.451-7.987,14.131-8.909,23.654-1.536,15.667.614,31.948-.922,47.308v2.765a35.719,35.719,0,0,1-5.53,1.229c-.614-19.046-3.379-38.4-5.53-56.524,0-5.837-.307-17.51-4.608-20.275a7.037,7.037,0,0,0-5.222-.922,79.979,79.979,0,0,1,10.445-4.915A9.483,9.483,0,0,1,31.317,21.486Z" transform="translate(36.923 37.128)"/>
      <path id="Path_273" data-name="Path 273" class="cls-16" d="M38.174,23.08c-.307,0-.922.307-1.229.307A127.483,127.483,0,0,0,22.2,26.766V24.923A16.936,16.936,0,0,0,27.422,19.7c.614-1.536.307-2.765,0-4.3A20.085,20.085,0,0,0,39.71,18.165a23.713,23.713,0,0,1,.614,4.608A4.555,4.555,0,0,0,38.174,23.08Z" transform="translate(46.04 32.155)"/>
      <path id="Path_274" data-name="Path 274" class="cls-1" d="M39.347,119.016c-8.294,1.843-16.281,1.536-21.811-3.072A162.658,162.658,0,0,0,16,95.362l10.445,5.222,21.2,11.059V67.1H51.02a5.989,5.989,0,0,1,.307,2.458l.922,19.353a152.541,152.541,0,0,1-1.536,26.726c-2.15.922-4.608,1.843-7.065,2.765A18.132,18.132,0,0,0,39.347,119.016Z" transform="translate(33.194 139.275)"/>
      <path id="Path_275" data-name="Path 275" class="cls-17" d="M20.6,65.429h0a2.322,2.322,0,0,1,.307-1.229l17.2,8.6h0v44.85L36.267,73.416C33.809,72.187,27.665,69.115,20.6,65.429Z" transform="translate(42.725 133.267)"/>
      <path id="Path_276" data-name="Path 276" class="cls-18" d="M33.018,89.184h0c2.458,0,1.536-3.686,1.536-5.222a15.419,15.419,0,0,1,.614,3.686h.307c1.843-.922,1.536-5.222.922-7.68a40.187,40.187,0,0,1,1.536-4.608h0a15.42,15.42,0,0,0-.614,3.686h0a20.743,20.743,0,0,1,.614,4.3h.307c2.15,0,1.536-5.53,1.843-7.68V75.36h0c0-.307.307-.614.307-.922H40.7c7.065,3.686,13.209,6.758,15.667,8.294l1.843,44.236-21.2-11.059c-3.686-14.131-11.673-32.563-25.8-37.785L10.9,60a14.977,14.977,0,0,0,2.15.922c3.379,1.536,9.523,4.608,16.281,7.987-.307.922-.614,1.536-.922,2.458a9.459,9.459,0,0,0-.922,3.994h0a34.256,34.256,0,0,0,1.536,9.523v.307a2.346,2.346,0,0,0,.614,1.536c2.15-.307,1.229-7.065.922-10.137.307-1.229,1.229-2.15,1.843-3.379h.307a64.993,64.993,0,0,0-.614,7.373h0C31.482,83.347,32.4,86.419,33.018,89.184Z" transform="translate(22.627 124.564)"/>
      <path id="Path_277" data-name="Path 277" class="cls-8" d="M28.537,46c0,6.451.614,12.9-1.843,19.046-1.229.307-2.765.307-3.994.614.307-6.144.307-11.981.307-18.125C25.158,46.922,27,46.614,28.537,46Z" transform="translate(47.076 95.557)"/>
      <path id="Path_278" data-name="Path 278" class="cls-16" d="M30.852,85.1c.307,9.83,3.072,19.046,2.15,28.876-1.536,14.745-11.366,32.87-8.909,47.922a8.5,8.5,0,0,0-3.994.922c.307-13.824,1.229-27.648,1.229-41.471C21.329,113.055,18.564,85.407,30.852,85.1Z" transform="translate(41.689 176.57)"/>
      <path id="Path_279" data-name="Path 279" class="cls-15" d="M22.829,24.866A67.7,67.7,0,0,1,21.6,13.807a.3.3,0,0,1,.307-.307,32.881,32.881,0,0,0,4.915,4.3,13.005,13.005,0,0,0,2.15,1.536c.307,1.536.614,3.072,0,4.3-.922,1.536-3.072,4.608-5.222,5.222A18.759,18.759,0,0,1,22.829,24.866Z" transform="translate(44.797 28.219)"/>
      <path id="Path_280" data-name="Path 280" class="cls-19" d="M24.316,172.287c-1.536,3.072-1.536,7.065-2.15,10.752-1.229,5.53-2.765,8.294-7.065,9.216.614-.922.922-1.843,1.536-2.765,1.229-2.765,2.458-5.837,3.686-8.909h0c4.915-11.673-.307-80.178-.614-96.459,0-.307.166-.886.166-1.193,5.53,4.608,13.333,5.006,21.628,3.163,0,.922-.745,2.566-.745,3.488C28.469,89.886,32,117.606,32,125.593c0,13.824-.922,27.648-1.229,41.471C27.7,167.679,25.852,169.522,24.316,172.287Z" transform="translate(31.329 172.634)"/>
      <path id="Path_281" data-name="Path 281" class="cls-8" d="M31.774,42.581C33.925,60.706,37,80.366,37.611,99.412a118.356,118.356,0,0,1-.307,18.125,41.173,41.173,0,0,1-6.144.307c0-10.137-.922-19.968-1.536-30.105-.614-12.288-.922-24.576-2.15-36.863-.614-4.915-.922-11.059-3.072-15.667-1.229-2.458-4.915-9.216-8.6-8.6a10.721,10.721,0,0,1,1.843-2.765c1.229-.922,2.765-1.843,4.3-2.765A7.655,7.655,0,0,1,27.166,22C31.16,25.071,31.467,36.745,31.774,42.581Z" transform="translate(32.779 43.681)"/>
      <path id="Path_282" data-name="Path 282" class="cls-13" d="M21.712,136.419c4.3-.922,5.837-3.686,7.065-9.216.614-3.379.614-7.68,2.15-10.752a12.8,12.8,0,0,1,6.451-5.53c1.229-.307,2.458-.614,3.994-.922h.922c4.915,10.137-.922,23.04,2.15,32.87-2.15,1.843-6.758,1.229-5.222-2.15,0-4.3-.307-8.6-.307-12.9v-.307c-3.994,2.765-11.059,11.673-11.673,16.589-.307,0-.614.307-.922.307-4.915.614-9.83.922-14.438-.614A22.268,22.268,0,0,1,12.5,135.8c2.765-.307,8.294-.922,10.752-2.458A28.544,28.544,0,0,1,21.712,136.419Z" transform="translate(24.41 228.162)"/>
      <path id="Path_284" data-name="Path 284" class="cls-20" d="M18.6,11.4V7.026a31.144,31.144,0,0,0,8.807,19.639l.449.554c-.922,1.843,1.044,4.686,1.044,6.837,0,1.229.366,6.534.98,8.07C24.966,38.132,18.6,20.617,18.6,11.4Z" transform="translate(38.581 14.958)"/>
      <path id="Path_285" data-name="Path 285" class="cls-8" d="M28.552,79.433c-3.072.614-7.987-.307-10.137-2.458-.307-.307-.614-.614-.614-.922h0v-.922c.614,0,.922.307,1.536.307,1.843.307,5.837.307,6.758-1.229.922-.922.614-4.3.614-5.837.307-4.915.307-10.445.307-15.36v-.307c1.843,0,3.994-.307,6.144-.307-.614,9.216-1.843,18.432-4.608,27.033Z" transform="translate(36.923 108.818)"/>
      <path id="Path_286" data-name="Path 286" class="cls-19" d="M23.565,73.3a14.974,14.974,0,0,1-2.15-.922c-.307,0-.614-.307-.922-.307h-.307a22.913,22.913,0,0,1-3.686-2.15c.307-.922.614-1.536.922-2.458,0-.307.307-.614.307-.922.922-1.843,1.843-3.379,2.765-4.915a2.329,2.329,0,0,0,.614-1.229c2.15,2.15,7.065,3.072,10.137,2.458-.614,2.765-1.229,6.144-2.15,9.216,0,.307-.307.614-.307.922s-.307.614-.307.922h0v.307c-.614,0-1.536-.307-2.15-.307v0A8.97,8.97,0,0,1,23.565,73.3Z" transform="translate(34.23 125.393)"/>
      <path id="Path_287" data-name="Path 287" d="M27.016,53.222c0,5.222.307,10.445-.307,15.36,0,1.229.307,4.915-.614,5.837-.922,1.536-4.915,1.536-6.758,1.536-.614,0-.922-.307-1.536-.307.922-6.758.922-15.36.922-23.347a34.263,34.263,0,0,0,8.294.922Z" transform="translate(36.923 108.61)"/>
      <path id="Path_288" data-name="Path 288" class="cls-8" d="M15.284,30.914c.307-3.072.614-5.837,1.843-7.987,3.686-.614,7.68,6.144,8.6,8.6,2.15,4.608,2.458,10.752,3.072,15.667,1.229,12.288,1.536,24.576,2.15,36.863.614,10.137,1.536,20.275,1.536,30.105a34.263,34.263,0,0,1-8.294-.922c0-7.065-.614-13.824-.614-18.125-.307-3.072-.307-4.608-.307-4.608C22.349,76.686,14.055,47.809,15.284,30.914Z" transform="translate(31.453 47.669)"/>
      <path id="Path_289" data-name="Path 289" class="cls-10" d="M28.473,115.8v-.392c-3.072,3.994-5.222,9.608-4.915,14.523-2.15,0-6,1.766-7.651,1.677C16.215,126.385,24.173,118.258,28.473,115.8Z" transform="translate(34.851 240.179)"/>
      <path id="Path_290" data-name="Path 290" class="cls-12" d="M22.265,65.207c-.307,2.15.307,7.68-1.843,7.68h-.307a18.131,18.131,0,0,1-.614-4.3h0a13.2,13.2,0,0,1,.614-3.686A5.228,5.228,0,0,0,22.265,65.207Z" transform="translate(40.446 134.717)"/>
      <path id="Path_291" data-name="Path 291" class="cls-12" d="M20.858,70.337c.614,2.458.922,6.758-.922,7.68h-.307a15.419,15.419,0,0,1-.614-3.686,26.887,26.887,0,0,1-.614-4.915h.307c0-1.536.922-3.072,1.229-4.915a21.161,21.161,0,0,1,2.458.922A30.194,30.194,0,0,0,20.858,70.337Z" transform="translate(38.166 133.888)"/>
      <path id="Path_292" data-name="Path 292" class="cls-21" d="M26.36,98.055l-14.745-7.68L11,65.8c14.131,5.222,22.118,23.654,25.8,37.785Z" transform="translate(22.834 136.582)"/>
      <path id="Path_293" data-name="Path 293" class="cls-12" d="M20.058,70.137a30.631,30.631,0,0,0,.614,4.915c0,1.536.922,5.222-1.536,5.222h0c-.614-2.765-1.536-5.837-1.536-8.6h0a29.913,29.913,0,0,1,.614-7.373c.307,0,.614.307.922.307a14.979,14.979,0,0,0,2.15.922c-.307,1.536-.922,3.072-1.229,4.608Z" transform="translate(36.509 133.474)"/>
      <path id="Path_294" data-name="Path 294" class="cls-14" d="M24.989,77.619c0,.307.307.614.307.922h0c.307.307.307.614.614.922a2.329,2.329,0,0,0-.614,1.229c-.922,1.229-2.458,2.765-3.686,4.3a82.275,82.275,0,0,1-7.373-3.686c-.307-11.059.614-21.2,3.994-30.105,1.843.922,3.994,1.843,6.144,2.765.614.307,1.229.307,1.843.614,0,7.987,0,16.589-.922,23.347C25.3,77.619,25.3,77.619,24.989,77.619Z" transform="translate(29.427 106.331)"/>
      <path id="Path_295" data-name="Path 295" class="cls-12" d="M19.172,68.822c.614,3.379,1.536,10.137-.922,10.137-.307-.614-.307-1.229-.614-1.536v-.307c-.614-2.765-1.229-6.758-1.536-9.523h0a18.759,18.759,0,0,1,.922-3.994,22.914,22.914,0,0,0,3.686,2.15C20.4,66.672,19.786,67.286,19.172,68.822Z" transform="translate(33.401 132.024)"/>
      <path id="Path_296" data-name="Path 296" class="cls-22" d="M21.559,60.671c-.922,1.536-2.908,3.2-3.83,5.044-.307-.307-.922-.307-1.229-.614C18.036,63.565,20.637,61.9,21.559,60.671Z" transform="translate(34.23 126.222)"/>
      <path id="Path_297" data-name="Path 297" class="cls-23" d="M25.96,66.814c.287.277,1.326.354,1.613.631-.287.277-.752.479-.752.756C20.5,65.149,14.759,62.652,11.6,60.987V59.6s3.159,1.387,7.754,3.607A28.776,28.776,0,0,0,25.96,66.814Z" transform="translate(24.077 123.736)"/>
      <path id="Path_298" data-name="Path 298" class="cls-16" d="M4.307,36.834c0-.922.307-1.843.307-2.458.307-1.229.614-2.15.922-3.072V31a45.831,45.831,0,0,0,6.451-.614c-.614-3.379-1.843-7.68.922-7.373.922,3.994,2.458,6.144,5.53,8.909-1.843,1.843-4.3,6.758-3.994,9.216h0c-3.686.307-6.758.614-9.83.614A7.23,7.23,0,0,1,4,39.292H4A6.764,6.764,0,0,1,4.307,36.834Z" transform="translate(8.33 47.892)"/>
      <path id="Path_299" data-name="Path 299" class="cls-24" d="M.378,26.222c-.307-.307,0-.922.922-.922h.307a106.091,106.091,0,0,0,11.673.922v.307c-.307.922-.614,1.843-.922,3.072a66.528,66.528,0,0,1-7.68-1.229C3.45,28.065,1.914,27.45.992,27.143.685,26.529.685,26.222.378,26.222Z" transform="translate(0.586 52.668)"/>
      <path id="Path_300" data-name="Path 300" class="cls-24" d="M.643,27.65c-.922-.614-.922-1.229.307-2.15a.661.661,0,0,0,.614.614,17.318,17.318,0,0,0,3.686,1.229c2.458.922,4.915.922,7.68,1.229a6.764,6.764,0,0,0-.307,2.458c-2.458-.614-5.837-1.536-6.758-1.843A13.217,13.217,0,0,1,.643,27.65Z" transform="translate(0.014 53.082)"/>
      <path id="Path_301" data-name="Path 301" class="cls-24" d="M12.2,29.986a6.764,6.764,0,0,0-.307,2.458c-2.765-1.229-5.53-2.15-8.294-3.072C2.063,28.758-.087,28.143.22,26.3a20.8,20.8,0,0,0,4.915,1.843C6.364,28.45,9.743,29.372,12.2,29.986Z" transform="translate(0.437 54.74)"/>
      <path id="Path_302" data-name="Path 302" class="cls-24" d="M9.941,28.985a4.555,4.555,0,0,0,.307,2.15,19.912,19.912,0,0,1-8.909-2.15c-1.229-1.843,3.379-.614,3.994-.614C6.255,28.678,8.713,28.678,9.941,28.985Z" transform="translate(2.389 58.199)"/>
    </g>
    <path id="Path_242" data-name="Path 242" class="cls-16" d="M71.871,63.662c-1.575-.63-9.764-5.354-11.653-5.984,2.835,2.52,9.134,6.3,11.338,9.764.315.315-.315,1.26-.63,1.26-1.575,0-11.338-6.614-12.283-7.559,2.52,2.835,7.874,7.244,9.134,9.134a1.114,1.114,0,0,1-1.26,1.26,24.973,24.973,0,0,1-2.835-1.26,24.8,24.8,0,0,1-6.3-5.354c2.835,3.15,5.984,5.984,5.984,7.244a.308.308,0,0,1-.315.315h0A19.282,19.282,0,0,1,57.7,67.756c-1.89-2.2-4.409-3.464-6.3-5.984-3.464-4.409-3.464-10.708-1.26-15.748,3.464-.945,7.874-2.835,9.449-4.724,0,0,1.26.315,1.26,2.52s-2.835,3.464-4.409,5.039c0,0,12.283,9.449,15.433,12.283C73.761,62.087,72.816,63.662,71.871,63.662Z" transform="translate(893.488 257.78)"/>
    <path id="Path_239" data-name="Path 239" class="cls-15" d="M52.424,42.8c-2.2,5.039-1.89,11.338,1.26,15.748,1.89,2.2,4.094,3.779,6.3,5.984,1.89,1.89,3.15,3.464,5.354,4.724-.63,0-1.575-.315-4.724-2.2h0a39.221,39.221,0,0,0-6.929-5.039c-2.2-1.26-3.779-3.464-5.669-4.724H47.7c0-4.094,0-10.078,2.2-13.858C50.85,43.115,51.479,43.115,52.424,42.8Z" transform="translate(891.517 261.004)"/>
    <path id="Path_240" data-name="Path 240" class="cls-25" d="M46.875,57.948c-.63-4.409,1.575-11.653,3.15-15.748,1.89.63.945.63,2.835,1.26a1.636,1.636,0,0,0-.63,1.26c-2.2,3.779-2.2,9.764-2.2,13.858v.315A9.243,9.243,0,0,1,46.875,57.948Z" transform="translate(889.508 259.715)"/>
    <path id="Path_241" data-name="Path 241" class="cls-26" d="M54.574,68.094,46.7,74.078l.315-3.779.63-.63h0c2.2-1.89,4.409-3.464,6.929-5.669Z" transform="translate(889.368 306.574)"/>
    <path id="Path_237" data-name="Path 237" class="cls-27" d="M47.99,71.284,55.864,65.3c0,6.614.315,17.952.315,21.417h0c0,5.354-.315,11.653-.315,16.692-3.464,2.2-6.929,5.354-9.764,7.244,0-13.858.315-28.031.315-41.889l2.52-1.89-.63.63Z" transform="translate(888.078 309.369)"/>
    <path id="Path_238" data-name="Path 238" class="cls-28" d="M55.649,66.464c-2.52,2.2-4.724,3.779-6.929,5.669h0l-2.52,1.89V71.5h0A106.384,106.384,0,0,1,57.538,63h.315V91.661c-.315.315-.63.63-.945.63h-.315c0-3.779-.315-14.8-.315-21.417A14.188,14.188,0,0,1,55.649,66.464Z" transform="translate(888.293 304.425)"/>
    <path id="Path_222" data-name="Path 222" class="cls-29" d="M41.5,67.959C44.964,64.809,50,62.6,54.1,60.4c4.409,2.52,8.819,5.354,13.228,7.874l-11.338,8.5h0c-4.094-2.835-9.134-5.669-13.858-8.5A.975.975,0,0,1,41.5,67.959Z" transform="translate(878.19 298.836)"/>
    <path id="Path_223" data-name="Path 223" class="cls-30" d="M55.763,115.767c-3.464-2.52-6.466-4.586-10.246-7.42C41.108,94.489,39.4,76.128,43.183,62.9c4.724,2.835,9.764,5.669,13.858,8.5h0v2.52Z" transform="translate(877.452 304.21)"/>
    <path id="Path_224" data-name="Path 224" class="cls-31" d="M42.63,65.334c.63-1.26.315-5.984-.63-6.929a5.839,5.839,0,0,0,.63-2.2h0c.315.315.945.63,1.26.945.63.63,1.575.945,2.2,1.575a46.514,46.514,0,0,1,.315,6.614v5.354h-.315A3.952,3.952,0,0,1,42.63,68.8h.315v-3.15c.315-.315,0-.315-.315-.315Z" transform="translate(879.265 289.808)"/>
    <path id="Path_225" data-name="Path 225" class="cls-32" d="M43.953,63.614a2.368,2.368,0,0,1-2.2-1.575c-.315-.945-.63-1.89,0-2.52.63-.315.945-1.575,1.575-2.52.945.63,1.26,5.354.63,6.614Z" transform="translate(877.942 291.528)"/>
    <path id="Path_187" data-name="Path 187" class="cls-33" d="M29.414,26.964c4.724,5.669,11.968,10.078,17.322,15.118a62.979,62.979,0,0,0,6.929,5.984c1.89,1.575,4.094,3.15,5.669,4.724,3.15,3.15,6.3,6.929,9.764,10.078l.315.315v.945h.315c.945.63,1.89,1.575,2.835,2.2,4.094,2.52,9.449,4.409,13.228,6.3.315,0,.315.315.63.315A19.266,19.266,0,0,0,90.2,74.522c4.409,1.89,9.134,3.464,13.543,5.039l-.315.63c-2.52,2.2-5.039,8.189-4.724,11.653C92.4,88.7,85.79,87.75,79.806,84.6c-5.669-3.15-16.378-7.874-17.322-14.488a25.574,25.574,0,0,1-3.15,2.835,45.181,45.181,0,0,1-1.26-6.929,18.049,18.049,0,0,0-3.464,3.464c-5.354-2.52-9.449-7.244-14.173-10.708C34.453,55,26.264,50.271,22.485,43.657,19.02,37.673,19.02,27.594,25.32,23.5a47.117,47.117,0,0,1,4.094,3.464Z" transform="translate(832.325 219.518)"/>
    <path id="Path_226" data-name="Path 226" class="cls-34" d="M40.7,56.584V51.545c1.89,0,3.779,0,5.039-.945a27.092,27.092,0,0,0,.315,5.039c-.315,0-.315,0-.63.315C44.164,55.954,42.275,56.9,40.7,56.584Z" transform="translate(876.471 277.771)"/>
    <path id="Path_227" data-name="Path 227" class="cls-35" d="M40.6,57.994V53.9c.63,0,1.575.315,2.2.315a24.31,24.31,0,0,1-.63,4.724A6.885,6.885,0,0,0,40.6,57.994Z" transform="translate(876.256 284.864)"/>
    <path id="Path_228" data-name="Path 228" class="cls-33" d="M40.7,46c1.89.63,4.094,1.26,5.984,1.89,0,4.094.315,7.874.315,11.653l-.945.945c-1.575.945-3.15.945-5.039.945V46.315A.308.308,0,0,1,40.7,46Z" transform="translate(876.471 267.883)"/>
    <path id="Path_229" data-name="Path 229" class="cls-36" d="M40.2,58.979c.63-.63.945-1.26,1.575-1.89V55.2c.63.315.945.63,1.575.945h0a15.808,15.808,0,0,0-.63,3.779h0l-.63.315Z" transform="translate(875.396 287.658)"/>
    <path id="Path_230" data-name="Path 230" class="cls-12" d="M40.7,57.454V53.045a9.6,9.6,0,0,0,5.039-.945c0,2.2,1.26,11.653,1.26,13.858-.315-.315-.945-.63-1.26-.945h0a5.839,5.839,0,0,1-.63,2.2,3.885,3.885,0,0,1-1.575,2.52c-.63.315-.945,0-1.26-1.89v-1.89a15.809,15.809,0,0,1,.63-3.779h0a24.311,24.311,0,0,0,.63-4.724A8.33,8.33,0,0,1,40.7,57.454Z" transform="translate(876.471 280.995)"/>
    <path id="Path_214" data-name="Path 214" class="cls-33" d="M55.577,33.182c1.89,17.322,2.835,40.944,3.15,58.266-4.094-1.89-9.134-3.779-13.228-6.3,1.26-6.929,2.2-14.488,2.835-22.047.315-3.779.315-7.559.315-11.023,0-1.26.63-4.094.315-5.039-.63-1.575-3.779-2.52-4.724-3.464.945-.945,2.2-1.26,3.15-1.89-3.15-3.779-5.354-7.559-8.189-11.338-1.575-2.52-4.094-6.3-6.3-9.134,2.2-1.26,11.653-6.3,15.433-6.614,3.779.63,5.669,4.724,6.614,9.134a52.628,52.628,0,0,1,.63,9.449Z" transform="translate(859.704 200.388)"/>
    <path id="Path_215" data-name="Path 215" class="cls-14" d="M51.016,52.271c-5.354,0-10.176-1.672-15.216-3.877V44.3c4.409,1.89,9.764,3.464,15.118,5.354v.63h-.089Z" transform="translate(865.938 264.229)"/>
    <path id="Path_231" data-name="Path 231" class="cls-37" d="M43.22,62.9c-.945.315-2.2-.945-2.52-2.2v-3.15l.63-.63.63-.315h0v1.89c.315,1.89.945,2.2,1.26,1.89a3.478,3.478,0,0,0,0,2.52Z" transform="translate(876.471 290.668)"/>
    <path id="Path_232" data-name="Path 232" class="cls-2" d="M43.894,85.315c0-17.322-.945-41.259-3.15-58.266h0A50.544,50.544,0,0,0,39.8,17.6c.945,2.2,4.409,16.063,5.039,20.787a198.987,198.987,0,0,1,1.89,30.55c0,5.984,0,12.6.945,18.267a19.265,19.265,0,0,1-3.779-1.575C44.209,85.315,43.894,85.315,43.894,85.315Z" transform="translate(874.536 206.836)"/>
    <path id="Path_243" data-name="Path 243" class="cls-8" d="M63.144,112.3a47.961,47.961,0,0,0-6.292,1.922h0c-3.464-1.575-7.244-2.835-10.708-4.094-4.409-1.26-10.078-3.464-13.543-6.929,5.354-1.26,11.023-2.2,16.378-4.409,1.26-.63,2.375-.943,3.634-1.573C53.242,103.2,57.79,110.1,63.144,112.3Z" transform="translate(859.06 377.294)"/>
    <path id="Path_233" data-name="Path 233" class="cls-32" d="M40.215,60.809A10.868,10.868,0,0,0,39.9,57.03l.63-.63,2.2,1.26-.63.63v3.15A6.529,6.529,0,0,1,40.215,60.809Z" transform="translate(874.751 290.238)"/>
    <path id="Path_234" data-name="Path 234" class="cls-38" d="M40,57.8a4.477,4.477,0,0,0,1.89.63c.63,1.26,1.575,2.52,2.52,2.2h0a2.368,2.368,0,0,0,2.2,1.575h.63v3.15h-.315a3.618,3.618,0,0,0,3.464,1.89h.315V61.894c2.2,1.26,4.409,2.835,6.614,4.094-4.409,2.2-9.134,4.409-12.6,7.559L40,70.713A86.914,86.914,0,0,0,40,57.8Z" transform="translate(874.966 293.247)"/>
    <path id="Path_235" data-name="Path 235" class="cls-39" d="M40.43,62l4.724,2.835c.315,0,.906-.641.906-.641C42.281,77.107,43.894,96.96,48.3,110.818c-2.835-1.89-5.669-4.094-8.5-5.984C40.43,90.031,40.43,73.968,40.43,62Z" transform="translate(874.536 302.275)"/>
    <path id="Path_236" data-name="Path 236" class="cls-33" d="M43.845,56.6a21.486,21.486,0,0,0,.315,3.779V73.607c0,11.968-.315,28.346-.63,42.834a13.7,13.7,0,0,1-2.2-1.89H38.491c0-16.692-.63-34.33,0-52.912C40.066,60.064,41.956,58.49,43.845,56.6Z" transform="translate(871.121 290.668)"/>
    <path id="Path_216" data-name="Path 216" class="cls-2" d="M44.629,76.79c-.315,16.063-.63,29.92-.63,32.755,0,11.338-2.2,22.677-1.89,34.33a1.1,1.1,0,0,0-.63.315l-3.779,1.89c.315-19.212.945-37.164,1.575-57.321V74.9h2.835C43.054,75.53,43.684,76.16,44.629,76.79Z" transform="translate(870.022 330.004)"/>
    <path id="Path_217" data-name="Path 217" class="cls-33" d="M39.46,87.8A159.783,159.783,0,0,0,36,66.387c0-6.929-.315-13.858,0-20.787,5.039,2.2,10.078,3.779,15.433,3.779V77.725c-.63.63-.945,1.26-1.575,1.89l-.63.63c-1.89,1.89-3.464,3.464-5.354,5.039A27.389,27.389,0,0,0,39.46,87.8Z" transform="translate(866.058 267.023)"/>
    <path id="Path_218" data-name="Path 218" class="cls-2" d="M35.4,76.036A150.345,150.345,0,0,0,36.975,52.1a159.78,159.78,0,0,1,3.464,21.417A24.98,24.98,0,0,1,35.4,76.036Z" transform="translate(865.078 280.995)"/>
    <path id="Path_188" data-name="Path 188" class="cls-33" d="M19.86,33.735C30.883,43.5,52.3,61.45,65.528,69.324c1.26,1.26,3.779,2.52,7.244,3.779V77.2c-3.15-1.26-6.3-2.835-9.449-4.409C54.19,68.379,45.686,60.191,35.607,58.3c.315,6.929,5.984,12.6,9.134,18.582-2.835-1.575-5.669-2.2-8.189-4.094,1.26,2.835,2.2,6.3,3.779,9.449a10.372,10.372,0,0,0-4.094-2.2c-2.52,14.8-1.26,31.81.63,46.928a22.733,22.733,0,0,1-6.3-2.835,45.069,45.069,0,0,1-4.724-3.464c1.575-14.8,4.094-33.07,4.094-50.707-1.26-3.464-2.52-6.929-3.464-10.393C22.694,47.278,20.175,36.884,18.6,30.9A5.659,5.659,0,0,0,19.86,33.735Z" transform="translate(828.966 235.425)"/>
    <path id="Path_219" data-name="Path 219" class="cls-40" d="M32.9,27.484a38.116,38.116,0,0,1,.315-5.984c.315.63.945.945,1.26,1.26.315-.315.63-.945.945-1.26a93.346,93.346,0,0,1,2.835,11.968c.315,1.26.315,2.2.63,3.464-1.26-3.779-3.464-9.134-5.984-9.449Z" transform="translate(859.704 215.219)"/>
    <path id="Path_203" data-name="Path 203" class="cls-8" d="M34.318,23.4c2.2.315,4.409,5.984,5.984,9.449h0A130.923,130.923,0,0,1,43.137,57.73V63.4l-.315-.315v-.63a71.82,71.82,0,0,0-7.559-16.692A104.25,104.25,0,0,1,34,35.368c-.315-3.779-1.89-7.559-1.575-11.023v.332a4.841,4.841,0,0,1,1.89-1.277Z" transform="translate(858.601 219.303)"/>
    <path id="Path_245" data-name="Path 245" d="M32.661,103.794a8.874,8.874,0,0,1,0-4.094l.315.315c5.669,5.039,23.306,13.228,26.456,11.968,2.835-1.26,4.094-1.89,6.614-2.2,0,1.26.315,2.2.315,2.835-2.835.945-5.669,2.52-8.5,2.52h0c-3.464-.315-14.8-3.779-15.748-5.354s-2.835-6.3-4.409-3.15C36.126,105.684,32.661,103.794,32.661,103.794Z" transform="translate(858.683 383.312)"/>
    <path id="Path_204" data-name="Path 204" class="cls-14" d="M32.3,16.715c.316,0,.632-.315.948-.315.316.315.632.63.632.945,2.212,2.835,4.423,6.614,6.319,9.134,2.843,4.094,5.055,7.874,8.214,11.338-.948.63-2.212.945-3.159,1.89.948.945,4.107,1.89,4.739,3.464.316.945-.316,3.779-.316,5.039,0,3.779-.316,7.559-.316,11.023-.632,7.244-1.58,14.8-2.843,22.047a9.834,9.834,0,0,1-2.843-2.2h-.316V72.462A214.052,214.052,0,0,0,40.514,47.58h0c-.316-1.26-.316-2.2-.632-3.464-.948-3.779-1.58-7.874-2.843-11.968a42.021,42.021,0,0,0-4.107-10.078h0A16.469,16.469,0,0,1,32.3,16.715Z" transform="translate(858.359 204.257)"/>
    <path id="Path_244" data-name="Path 244" d="M32.761,99c3.15,3.464,9.134,5.669,13.543,6.929,3.464,1.26,7.244,2.52,10.708,4.094h0a52.968,52.968,0,0,1,7.559-2.2,1.1,1.1,0,0,1,.63.315c.315,1.26.315,2.2.63,3.464a54.281,54.281,0,0,0-6.614,2.2c-3.15,1.26-20.787-6.929-26.456-11.968a4.258,4.258,0,0,1,0-2.835Z" transform="translate(858.898 381.808)"/>
    <path id="Path_205" data-name="Path 205" class="cls-8" d="M35.809,32.85c-1.26-1.26-3.949-4.446-4.894-5.076H30.6c.63-2.52,1.354-5.644,1.984-8.163a28.289,28.289,0,0,1,5.422,5.234,36.613,36.613,0,0,0-.477,6.079h0C37.214,31.238,36.438,32.535,35.809,32.85Z" transform="translate(854.76 211.78)"/>
    <path id="Path_220" data-name="Path 220" class="cls-16" d="M32.5,4.215c.315,0,.315-.315.63-.315C32.815,3.9,32.815,4.215,32.5,4.215Z" transform="translate(858.845 177.388)"/>
    <path id="Path_206" data-name="Path 206" class="cls-33" d="M33.834,186.486c-.63,0-.945.315-1.575.315.315-4.724-.63-38.109-.315-54.8,1.26-12.283,2.2-24.566,3.779-36.22.63-5.984.63-11.968,1.575-17.952.315-2.835,1.26-9.449,1.89-13.543,1.26-.315,2.52-.945,3.779-1.26,1.575-.63,3.464-1.575,5.039-2.2A28.753,28.753,0,0,0,52.1,58.3c-.63,18.582,0,36.22,0,52.912V125.07c-.63,20.157-.945,38.109-1.575,57.321-5.354,1.575-11.023,2.835-16.692,4.094Z" transform="translate(857.51 294.322)"/>
    <path id="Path_193" data-name="Path 193" class="cls-16" d="M41.176,44.844c-.315-.315-.63-.315-1.26-.63H39.6c-2.835-2.835-3.464-9.134-5.669-12.283-1.26-1.575-3.15-2.52-4.724-3.779l-1.89-5.669c-.63-2.52-2.2-5.039-1.89-7.874h0c3.15-.63,6.3-2.2,9.449-3.15A50.186,50.186,0,0,0,44.01,6.735a24.038,24.038,0,0,1,3.464-2.52h0A1.1,1.1,0,0,0,48.1,3.9h0a77.3,77.3,0,0,0,2.52,9.134,2.406,2.406,0,0,0-.63,1.575,6.6,6.6,0,0,0,1.26,3.464c.315.63.63.945.945,1.575a4.477,4.477,0,0,1,.63,1.89,46.3,46.3,0,0,1,0,6.614c-.315,4.094-.315,8.5-.945,12.6-.63,1.575-2.52,2.52-4.409,3.15-.315,0-.63.315-.945.315-.63.315-1.26.315-1.89.63C44.01,44.844,42.75,45.474,41.176,44.844Z" transform="translate(843.555 177.388)"/>
    <path id="Path_194" data-name="Path 194" class="cls-14" d="M25.1,56.459C30.454,52.994,37.383,51.1,43.367,48.9q-.945,4.252-1.89,9.449c-1.575.315-4.409,1.26-7.244,2.2-3.779.945-7.244,2.2-8.189,2.2A15.359,15.359,0,0,1,25.1,56.459Z" transform="translate(842.938 274.116)"/>
    <path id="Path_207" data-name="Path 207" class="cls-24" d="M27.5,16c1.89.63,3.464.945,5.354,1.575a9.2,9.2,0,0,0,2.835.63H36c.315.315.63.315,1.26.63,1.26.63,5.354.315,6.3,0-.315,1.575,0,2.2,0,4.094h0A7.85,7.85,0,0,1,40.1,27.653a22.5,22.5,0,0,1-6.107,2.34,23.968,23.968,0,0,1-4.055-6.733C28.362,21.056,28.13,18.52,27.5,16Z" transform="translate(847.097 202.397)"/>
    <path id="Path_208" data-name="Path 208" class="cls-2" d="M31.4,190.805a11.189,11.189,0,0,1-2.835,1.26c-.63-22.047,2.2-43.148,2.835-66.14.315-10.708,3.779-53.857,4.094-63.305,3.779-.945,7.559-1.575,10.708-2.52-.63,4.094-1.26,10.708-1.89,13.543-.63,5.984-.63,11.968-1.575,17.952-1.575,11.968-2.52,24.251-3.779,36.22-.315,4.409-.945,8.819-1.26,12.913C35.806,159,33.916,170.333,33.916,188.6h0A8.49,8.49,0,0,1,31.4,190.805Z" transform="translate(850.185 298.191)"/>
    <path id="Path_195" data-name="Path 195" class="cls-40" d="M26.109,14.506c3.693,1.907,10.585,10.678,13.27,10.382.384-1.182.781-1.886,1.165-3.069h.384c1.151.591,4.219,2.661,6.136,3.843h0c-.384,3.547,1.534,7.095,1.918,10.346.767,3.252.269,7.655.653,10.611-3.068-3.843-5.255-8.542-8.323-11.793-3.452-3.843-16.742-14.873-20.961-18.42Z" transform="translate(843.349 216.939)"/>
    <path id="Path_196" data-name="Path 196" class="cls-33" d="M38.77,108.26c-5.039,1.26-9.134,1.26-12.913,0-2.2-15.118-3.15-32.125-.63-46.928a17.709,17.709,0,0,1,4.094,2.2c-1.26-3.15-2.2-6.3-3.779-9.449,2.52,1.89,5.354,2.52,8.189,4.094-3.15-5.669-8.5-11.338-9.134-18.582,10.078,1.89,18.582,10.078,27.716,14.488,3.15,1.575,6.3,3.15,9.449,4.409V79.284a155.342,155.342,0,0,1-1.575,23.936,17.757,17.757,0,0,1-3.779,1.26A106.558,106.558,0,0,1,45.7,107C43.494,107.315,41.289,107.945,38.77,108.26Zm5.669-30.235c.63-3.15.945-6.614,1.89-9.449C40.66,71.1,33.416,72.67,28.061,76.134a18.409,18.409,0,0,0,.63,5.984c.945-.315,4.724-1.26,8.189-2.2C40.03,79.284,42.864,78.339,44.439,78.024Z" transform="translate(839.977 254.126)"/>
    <path id="Path_209" data-name="Path 209" class="cls-33" d="M29.014,63.335a22.5,22.5,0,0,0,12.913,0c2.52-.63,4.724-.945,6.929-1.575-.63,9.449-3.779,52.6-4.094,63.305-.63,22.992-3.464,44.093-2.835,66.14a46.047,46.047,0,0,1-6.3,1.575,24.416,24.416,0,0,1-8.189-.315h-.315a15.351,15.351,0,0,1-2.2-.945v-.315c-.315-11.338-2.52-21.1-2.52-30.55,0-10.708,1.575-22.677,3.15-35.59C23.975,111.837,21.14,71.208,22.715,60.5A22.733,22.733,0,0,0,29.014,63.335Z" transform="translate(836.82 299.051)"/>
    <path id="Path_197" data-name="Path 197" class="cls-14" d="M32.389,50.055a31.764,31.764,0,0,1-5.354-11.968c0-.63-.315-.945-.315-1.575-.945-3.464-2.2-6.929-2.52-10.393V25.8c0-.315.576-.812.576-1.127a68.639,68.639,0,0,1,3.2-6.747,82.523,82.523,0,0,0,.315,8.819v.63c2.2,2.835,4.724,5.669,7.244,8.5A89.891,89.891,0,0,1,45.3,47.85c2.52,3.779,5.039,7.559,7.559,11.653,3.15,5.354,6.3,11.023,7.559,16.692v.63c-3.464-3.15-6.3-6.614-9.764-10.078l-5.669-4.724a29.694,29.694,0,0,0-3.15-3.15c-1.26-1.26-2.835-2.52-4.094-3.779-1.89-2.2-1.26-3.15-1.575-6.3A5.5,5.5,0,0,0,32.389,50.055Z" transform="translate(841.004 206.191)"/>
    <path id="Path_198" data-name="Path 198" class="cls-41" d="M27.618,17.15a16.14,16.14,0,0,0,4.832,3.15h0a68.625,68.625,0,0,0,1.812,7.559,38.029,38.029,0,0,0,3.926,6.614,1.081,1.081,0,0,0-.906.315c-3.02.63-9.061,2.52-11.175-1.26a86.04,86.04,0,0,1-.3-8.819v-.63a40.183,40.183,0,0,0-.6-5.984c0-1.26-.3-2.52-.3-3.779A.3.3,0,0,1,25.2,14c.3.63.681.542.983,1.172l.576.515A4.6,4.6,0,0,0,27.618,17.15Z" transform="translate(843.077 198.098)"/>
    <path id="Path_248" data-name="Path 248" class="cls-8" d="M33.649,120.948c-2.2-.945-4.724-4.409-6.3-7.559L26.4,111.5h0c-.315-.63-.63-.945-.945-1.575-.315-1.575-.945-3.15-1.26-4.724a54.721,54.721,0,0,0,7.559,11.338c1.89,2.2,3.464,1.575,5.984.945,1.89-.63,4.094-.945,5.984-1.575.315.945.315,1.89.63,2.52A26.807,26.807,0,0,1,33.649,120.948Z" transform="translate(841.004 395.135)"/>
    <path id="Path_249" data-name="Path 249" d="M26.59,110.379c1.575,3.15,4.094,6.614,6.3,7.559A26.391,26.391,0,0,0,43.8,115.37a15.188,15.188,0,0,1,.743,3.2h0c-3.15,2.2-9.311,3.273-12.6,1.89-3.15-3.15-5.354-8.189-7.244-13.858a6.884,6.884,0,0,0,.945,1.575h0C25.96,109.12,25.96,109.75,26.59,110.379Z" transform="translate(842.078 398.144)"/>
    <path id="Path_199" data-name="Path 199" class="cls-42" d="M26.62,30.393c-.945-3.464-2.2-6.929-2.52-10.393A55.666,55.666,0,0,0,26.62,30.393Z" transform="translate(840.789 211.995)"/>
    <path id="Path_200" data-name="Path 200" class="cls-16" d="M26.56,19a21.7,21.7,0,0,1-3.26-6.206v-.34c.132-1.19.781-1.177,1.8-.379a31.422,31.422,0,0,1,2.956,3.437,17.07,17.07,0,0,1,1.7,4.418l-.34.34C28.4,21.629,27.58,20.7,26.56,19Z" transform="translate(839.069 193.098)"/>
    <path id="Path_246" data-name="Path 246" class="cls-8" d="M23.9,104.12a24.166,24.166,0,0,0,8.189.315,61.248,61.248,0,0,0,6.3-1.575,11.188,11.188,0,0,0,2.835-1.26A49.979,49.979,0,0,0,42.8,114.513c.63,3.15.887,6.093,1.516,8.927a16.685,16.685,0,0,1-5.3,1.466c-2.835.63-4.409,1.26-5.984-.945a54.721,54.721,0,0,1-7.559-11.338A49.3,49.3,0,0,1,23.9,104.12Z" transform="translate(840.359 387.396)"/>
    <path id="Path_247" data-name="Path 247" d="M23.8,106.494V102.4h.315a49.413,49.413,0,0,0,1.26,8.819,26.238,26.238,0,0,0,1.26,4.724c-.945-1.89-1.89-3.464-2.52-5.039A22.312,22.312,0,0,1,23.8,106.494Z" transform="translate(840.144 389.116)"/>
    <path id="Path_201" data-name="Path 201" class="cls-15" d="M34.079,20.3c1.575,1.26,3.779,2.2,4.724,3.779,2.2,3.15,2.835,9.134,5.669,12.283-.945-.315-1.89-.315-2.835-.63-1.89-.63-3.464-.945-5.354-1.575h0c-1.89-.945-3.464-1.26-5.039-3.15-.315-.315-.63-.945-.945-1.26h0a15.353,15.353,0,0,1-.945-2.2v.315c-.63-1.26-.945-2.835-1.575-4.094-.63-.63-3.779-5.669-4.409-2.835-.315-1.89,0-4.409,2.2-2.835a19,19,0,0,1,2.52,2.52,18.7,18.7,0,0,1,1.26,2.52l1.26,2.52c.63-.63,1.89-.945,2.52-1.575-.945-2.2-2.52-4.724-3.15-6.929v-.315a63.1,63.1,0,0,0-3.15-8.189.308.308,0,0,0-.315-.315h0a18.433,18.433,0,0,0,4.094-.63h0c0,2.835,1.26,5.354,1.89,7.874Z" transform="translate(838.999 184.556)"/>
    <path id="Path_189" data-name="Path 189" class="cls-43" d="M59.884,9.449A57.279,57.279,0,0,0,55.16,2.2C54.215,1.26,46.656,0,43.506,0A26.4,26.4,0,0,0,27.444,6.3a9.586,9.586,0,0,0-2.52,2.52,12.332,12.332,0,0,0-2.52,3.15c-.63,1.26-1.89,3.15-2.2,4.724,3.779,3.15,8.5,5.039,12.913,7.559a.308.308,0,0,0-.315-.315h0a18.433,18.433,0,0,0,4.094-.63c3.15-.63,6.3-2.2,9.449-3.15a50.186,50.186,0,0,0,9.134-4.724,24.038,24.038,0,0,1,3.464-2.52h0c.315,0,.315-.315.63-.315a4.348,4.348,0,0,0,.945-1.26A3.377,3.377,0,0,0,59.884,9.449Z" transform="translate(832.406 169.005)"/>
    <path id="Path_190" data-name="Path 190" class="cls-33" d="M46.656,50.135c-5.354-5.354-12.6-9.449-17.322-15.118h0a23.784,23.784,0,0,0-4.409-3.464c-1.89-1.26-3.464-2.2-4.724-2.2h0c3.779-2.835,7.559-6.3,11.653-8.819l.63-.63v.945c.315,3.779,1.575,6.929,2.52,10.393,0,.63.315.945.315,1.575,1.26,4.094,2.835,8.819,5.354,11.968a9.7,9.7,0,0,1,3.779-1.575c0,3.15-.315,4.094,1.575,6.3a48.439,48.439,0,0,0,4.094,3.779l3.15,3.15A60.973,60.973,0,0,0,46.656,50.135Z" transform="translate(832.406 211.78)"/>
    <path id="Path_191" data-name="Path 191" class="cls-33" d="M25.889,22.961c.945,0,2.835.945,4.724,2.2-6.3,3.779-6.3,14.173-2.835,20.157,3.779,6.614,11.968,11.338,17.952,15.118,4.724,3.464,9.134,8.189,14.173,10.708a35.929,35.929,0,0,1,3.464-3.464,53.407,53.407,0,0,0,1.26,6.929,25.574,25.574,0,0,0,3.15-2.835c.945,6.929,11.338,11.338,17.322,14.488s12.6,4.094,18.9,7.244c-.315-3.779,2.2-9.764,4.724-11.653l.315-.63c1.26.63,2.835.945,4.094,1.575-.315.315-.315.63-.63,1.26-1.575,3.779-3.464,11.023-3.15,15.748,0,.63.315,1.26.315,1.89-.945-.315-6.929-1.575-13.858-3.779-1.89-.63-4.094-1.26-5.984-1.89a139.942,139.942,0,0,1-15.118-5.354A29.081,29.081,0,0,1,67.462,86.9C54.234,79.023,32.818,61.07,21.794,51.307c-.63-.945-1.26-1.575-1.89-2.52-1.89-3.464-2.2-7.244-2.2-11.653.315-4.094.945-6.929,3.464-10.393,1.26-1.26,2.52-3.15,4.724-3.779-.315-.315,0-.315,0,0Z" transform="translate(827.032 217.853)"/>
    <path id="Path_221" data-name="Path 221" d="M35.32,9.169A29.809,29.809,0,0,0,33.745,3.5c-.315.315-.63.945-.945,1.26h0a77.3,77.3,0,0,0,2.52,9.134,2.406,2.406,0,0,0-.63,1.575,6.6,6.6,0,0,0,1.26,3.464c.315.63.63.945.945,1.575A81.225,81.225,0,0,1,35.32,9.169Z" transform="translate(858.49 176.528)"/>
    <path id="Path_192" data-name="Path 192" d="M36.591,21.37a64.392,64.392,0,0,0-3.214-8.356c-4.5-2.571-9.32-4.5-13.177-7.713v.321h0a53.194,53.194,0,0,0,.964,10.285c.321.964.321,1.928.643,2.571l.964,2.893h0c2.571,3.857,6.106,7.071,9,10.606a64.355,64.355,0,0,1,4.5,5.142c0-1.286-.321-2.571-.321-3.857-.964,1.286-1.607.321-2.571-1.286-1.286-1.928-2.571-3.535-3.214-5.785v-.321c-.321-1.928,0-4.5,2.25-2.893a19.393,19.393,0,0,1,2.571,2.571,19.084,19.084,0,0,1,1.286,2.571l1.286,2.571c.643-.643,1.928-.964,2.571-1.607-.964-2.571-2.571-5.142-3.535-7.713Z" transform="translate(832.288 179.948)"/>
    <path id="Path_210" data-name="Path 210" d="M37.254,6.7c-.315.315-5.354,3.15-5.354,3.15l.945,1.575Z" transform="translate(858.555 182.406)"/>
    <path id="Path_211" data-name="Path 211" d="M37.493,10.29,36.549,8.4l-9.134,2.835L27.1,12.809l.945-.945Z" transform="translate(848.237 186.061)"/>
    <path id="Path_212" data-name="Path 212" class="cls-16" d="M32,14.049s2.52-2.2,3.464-2.2a.975.975,0,0,1,1.26.63,4.7,4.7,0,0,1-1.89,1.89A4.792,4.792,0,0,1,32,14.049Z" transform="translate(858.77 193.325)"/>
    <path id="Path_202" data-name="Path 202" class="cls-2" d="M32.543,30.868l-.335-.484c-2.52-2.835-3.683-4.055-6.138-7.142,0-.315-.717-1.831-.717-2.146,2.2,3.464,8.987,1.362,12.137.732a7.745,7.745,0,0,0,2.12-.558,11.745,11.745,0,0,0,3.98-1.748l.491.492c-.63,2.52-1.26,5.354-1.89,7.874-.315,1.26-.63,2.52-.945,3.464C38.728,31.668,33.8,32.443,32.543,30.868Z" transform="translate(843.798 210.35)"/>
    <path id="Path_213" data-name="Path 213" class="cls-44" d="M34.675,18.359l.313.094c1.89,2.835,2.926,6.361,3.871,9.825a4.348,4.348,0,0,1-.945,1.26l-1.26-1.26A39.3,39.3,0,0,0,31.3,23.239,22.535,22.535,0,0,0,34.675,18.359Z" transform="translate(856.265 207.126)"/>
  </g>
</svg>
