<svg version="1.1" id="Layer_1" data-name="Layer 1" xmlns="http://www.w3.org/2000/svg" xmlns:xlink="http://www.w3.org/1999/xlink" x="0px" y="0px" viewBox="0 0 241.34 492.06" preserveAspectRatio="xMinYMin none"><defs><style>.cls-1,.cls-14{fill:#eee;}.cls-2,.cls-33,.cls-44{fill:#fff;}.cls-3,.cls-5{fill:#011a20;}.cls-4{fill:#263136;stroke:#263136;}.cls-5{stroke:#011a20;}.cls-6{fill:#1d282c;stroke:#1d282c;}.cls-11,.cls-7{fill:#04091d;}.cls-8{stroke:#000;}.cls-9{fill:#070d22;}.cls-10,.cls-13{fill:#0b1010;}.cls-10{stroke:#0b1010;}.cls-11{stroke:#04091d;}.cls-12,.cls-16{fill:#fbb686;}.cls-12{stroke:#fbb686;}.cls-14{stroke:#eee;}.cls-15,.cls-19{fill:#f9a873;}.cls-17,.cls-23{fill:#c3854e;}.cls-18{fill:#d8aa80;stroke:#d8aa80;}.cls-19{stroke:#f9a873;}.cls-20,.cls-24{fill:#f9a36d;}.cls-20{stroke:#f9a36d;}.cls-21{fill:#e3c09f;}.cls-22,.cls-41{fill:#f89c69;}.cls-22{stroke:#f89c69;}.cls-23{stroke:#bb804b;}.cls-25{fill:#e8f6ff;}.cls-26,.cls-31,.cls-36{fill:#350000;}.cls-27{fill:#9e3a26;stroke:#9e3a26;}.cls-28{fill:#aa5338;stroke:#a35036;}.cls-29{fill:#641c05;stroke:#641c05;}.cls-30{fill:#7a2914;stroke:#7a2914;}.cls-31{stroke:#350000;}.cls-32,.cls-37{fill:#e7a477;}.cls-33{stroke:#fff;}.cls-34{fill:#cce6f3;}.cls-35{fill:#dd966a;stroke:#dd966a;}.cls-36{stroke:#300;}.cls-37{stroke:#e7a477;}.cls-38{fill:#571803;stroke:#571803;}.cls-39{fill:#6d2310;}.cls-40{fill:#2979ff;stroke:#2979ff;}.cls-42{fill:#222;}.cls-43{fill:#191519;}.cls-44{stroke:#e8f6ff;}</style></defs><title>handshakeArtboard 1svg</title><g id="Group_82" data-name="Group 82"><g id="Group_80" data-name="Group 80"><path id="Path_69" data-name="Path 69" class="cls-1" d="M142,350V336.49a29.89,29.89,0,0,1-1.57,7.25C133.23,363.9,103,378.38,68,377.44c-32.75-.95-59.21-15.12-66.14-33.7A30.88,30.88,0,0,1,.32,334.6v18.59c0,23,29.6,41.89,67.71,42.83,38.42,1,70.86-16.69,74-39.68a2.89,2.89,0,0,1,.32-1.58C142.36,353.5,142,351.93,142,350Z"/><path id="Path_70" data-name="Path 70" class="cls-2" d="M68,377.44c35,.94,65.2-13.54,72.44-33.7a26.47,26.47,0,0,0,1.57-7.25v-3.77c-.94-22.36-30.23-40.63-67.71-41.58-39-.94-72.44,17.32-74.33,40.95V334a29.29,29.29,0,0,0,1.58,9.13C8.5,362.32,35.28,376.81,68,377.44Z"/></g><g id="Group_81" data-name="Group 81"><path id="Path_69-2" data-name="Path 69-2" class="cls-1" d="M241,446V432.49a29.44,29.44,0,0,1-1.58,7.25C232.21,459.9,202,474.38,167,473.44c-32.76-.95-59.22-15.12-66.14-33.7a30.57,30.57,0,0,1-1.58-9.14v18.59c0,23,29.61,41.89,67.72,42.83,38.42,1,70.86-16.69,74-39.68a2.88,2.88,0,0,1,.31-1.58C241.34,449.5,241,447.93,241,446Z"/><path id="Path_70-2" data-name="Path 70-2" class="cls-2" d="M167,473.44c35,.94,65.2-13.54,72.43-33.7a26.86,26.86,0,0,0,1.58-7.25v-3.77c-.95-22.36-30.24-40.63-67.72-41.58-39.05-.94-72.43,17.32-74.32,40.95V430a29,29,0,0,0,1.57,9.13C107.49,458.32,134.26,472.81,167,473.44Z"/></g><g id="Group_79" data-name="Group 79"><path id="Path_251" data-name="Path 251" class="cls-3" d="M173.4,82.2h0a26.67,26.67,0,0,0-1.24,6.45V93c-2.45-4-3.07-11.37,0-14.44h0c.93-.92,1.85-2.15,2.77-3.07a9.23,9.23,0,0,0-.62,3.07C174,79.43,174,81.27,173.4,82.2Z"/><path id="Path_252" data-name="Path 252" class="cls-4" d="M199.51,77.59h0c-2.15,7.06.61,16.9,7.06,19a12.9,12.9,0,0,0,10.75-.3c0,1.84-.61,3.38-.92,5.53A17.3,17.3,0,0,1,209,113.53a13.72,13.72,0,0,1-6.15-1.23c.93,1.54-.3,1.23-1.22.92a16.42,16.42,0,0,1-4-2.15,31,31,0,0,1-6.14-4.91h0a6.78,6.78,0,0,1,0,2.46c-2.46-.93-4-5.53-4.92-7.68-1.23-3.08-1.84-6.46-3.07-9.22-.31.61-.31,1.84-.92,2.46-1.23-3.07-.31-7.68.31-10.75a15.11,15.11,0,0,1,2.45-6.15c.62-.92,2.46-2.46,2.46-3.68-1.84,0-4,1.84-5.84,1.53,1.23-2.76,5.23-4.91,8-6.14a70.53,70.53,0,0,1,7.68-2.15,12.92,12.92,0,0,1,8,3.68C202.58,71.75,200.74,74.21,199.51,77.59Z"/><path id="Path_253" data-name="Path 253" class="cls-5" d="M217.63,96.33c-3.07,1.53-6.76,1.53-10.75.3-6.14-2.15-9.22-12-7.07-19,0,2.76,2.15,5.83,2.77,7.68.31-.31.31-1.23.31-1.54a13.93,13.93,0,0,0,4,4.61c1.23.92,3.07,2.15,4.61,2.15a3.74,3.74,0,0,0-.92-3.07c1.23,0,2.45,1.23,4,1.23,1.84,0,2.46-1.23,2.15-3.08,1.84,1.23,4.3-2.15,5.22-3.07a10.35,10.35,0,0,0,1.54-5.22C226.85,85.57,223.78,93.25,217.63,96.33Z"/><path id="Path_254" data-name="Path 254" class="cls-6" d="M207.49,70.52c5.84-2.76,13.52.31,16,6.45v.31a10.35,10.35,0,0,1-1.54,5.22c-.92,1.23-3.38,4.61-5.22,3.07.3,1.54-.31,3.08-2.15,3.08-1.23,0-2.77-1.54-4-1.23a11.33,11.33,0,0,1,.92,3.07c-1.53,0-3.37-1.54-4.6-2.15a15.27,15.27,0,0,1-4.3-4.61,2.31,2.31,0,0,1-.31,1.54c-.61-2.15-2.46-5.22-2.77-7.68h0a9.74,9.74,0,0,1,6.15-6.76l.31.31c.61-.31.92-.31,1.53-.61Z"/><path id="Path_255" data-name="Path 255" class="cls-5" d="M200.74,116.6a18.22,18.22,0,0,1-12.29-2.76,9.37,9.37,0,0,1-2.15-1.54c-1.85-1.54-3.38-2.76-4.92-4.3l-.3-.31a30.51,30.51,0,0,1-8.91-19.35,26.27,26.27,0,0,1,1.23-6.45h0c.61-.92.61-2.77.61-4a9,9,0,0,1,.61-3.07L176.47,73c3.07-3.07,5.83-4.3,10.13-5.22a25.13,25.13,0,0,1,10.76-.92A69.91,69.91,0,0,0,189.68,69c-2.77,1.23-6.76,3.07-8,6.14,1.84.31,3.69-1.84,5.84-1.54,0,1.23-1.85,2.77-2.46,3.69a21.64,21.64,0,0,0-2.46,6.14c-.61,3.08-1.23,7.68-.31,10.76.62-.62.62-1.85.93-2.46,1.22,3.07,1.84,6.14,3.07,9.21.92,2.15,2.46,6.46,4.91,7.68a6.31,6.31,0,0,0,0-2.45h0a24.15,24.15,0,0,0,6.15,4.91,16.36,16.36,0,0,0,4,2.15c.92.31,2.15.61,1.23-.92a13.84,13.84,0,0,0,6.14,1.23A16.66,16.66,0,0,1,200.74,116.6Z"/><path id="Path_256" data-name="Path 256" class="cls-7" d="M141.75,146.4c5.53,1.23,11.68,4.3,17.2,5.84-1.23,3.68-2.15,6.75-2.15,8.6a24.48,24.48,0,0,0,1.54,7.37c-5.53-3.07-14.44-7.38-20.89-12.6h0c-.3-2.77,2.15-7.68,4.3-9.22Z"/><path id="Path_257" data-name="Path 257" class="cls-8" d="M170,209.07c.3,4.3.61,11.06.61,18.12-.61-.31-1.23-.31-1.84-.61a37.32,37.32,0,0,1-6.15-2.77,15.07,15.07,0,0,1-5.83-4.91c4.6-.92,9.52-5.22,10.13-9.83,0-.31.22-.49.22-.79A5.07,5.07,0,0,0,170,209.07Z"/><path id="Path_258" data-name="Path 258" class="cls-8" d="M207.09,206.35a21.28,21.28,0,0,0,8.08,10.7c-.3.93-1.53,1.85-3.38,2.77a54.38,54.38,0,0,1-8.29,3.69,43.72,43.72,0,0,1-4.3-6.15,20.35,20.35,0,0,1-2.76,8.3,62,62,0,0,1-7.38,1.53c2.15-6.14,1.54-12.59,1.85-19a45,45,0,0,0,4.91-1.54c3.38-1.23,6-3.25,9.69-5.1C205.2,203.05,206.78,205.13,207.09,206.35Z"/><path id="Path_259" data-name="Path 259" class="cls-9" d="M199.2,217.36a43.48,43.48,0,0,0,4.3,6.15,49.69,49.69,0,0,1-7.07,2.15A37.49,37.49,0,0,0,199.2,217.36Z"/><path id="Path_260" data-name="Path 260" class="cls-10" d="M159,152.24c.92-2.46,1.84-4.92,2.76-7.07-1.23,16.9,7.07,46.08,8,59.29,0,0,0,1.84.3,4.61a9.34,9.34,0,0,0-3.07-.31c-1.84-8-2.45-22.43-3.07-30.41a56.45,56.45,0,0,1-5.53-10.45,24.16,24.16,0,0,1-1.53-7.37C156.81,159,157.73,155.92,159,152.24Z"/><path id="Path_261" data-name="Path 261" class="cls-8" d="M202,133.5c.93,9.52-.92,19.35-3.37,28.87-2.46,9.83-8.6,34.41-3.08,44.55-1.53.61-3.07.92-4.91,1.53v-2.76c1.53-15.36-.62-31.64.92-47.31.92-9.52,1.23-17.2,8.91-23.65C201,134.42,201.35,133.8,202,133.5Z"/><path id="Path_262" data-name="Path 262" class="cls-8" d="M225.31,133.19c-.31,3.69-2.15,8.29-3.38,11.67-1.84,5.53-4.61,11.06-6.76,16.59-3.68,10.45-7.68,20.28-8.91,31.34-.3,3.07-.61,6.45-.61,9.83a63.33,63.33,0,0,1-10.44,4.3c-5.53-10.14.61-34.72,3.07-44.55,2.46-9.52,4.3-19.35,3.38-28.87,5.53-4.61,15.66-10.14,22.73-8.6,1.53,2.15,1.53,5.53.92,8.29Z"/><path id="Path_263" data-name="Path 263" class="cls-11" d="M224.7,124.59s.62,5.77.62,5.47c-6.59-1.5-18.48-.39-24.34,4.36.1-.08,1.37-1.46,1.23-1.34a37.31,37.31,0,0,0-2.7-11.25h1.92C210,120,220.71,117.52,224.7,124.59Z"/><path id="Path_264" data-name="Path 264" class="cls-12" d="M217,331.94c1.84,7.38,1.84,10.45,1.84,17.51,0,14.44-2.15,30.11-3.69,44.85l-.61.31c-1.23-.92-2.76-.92-5.22-.61H209a362.56,362.56,0,0,0-1.84-36.25c-1.23-7.07-8-35.64,6.14-35.94C214.56,325.49,216.4,329.49,217,331.94Z"/><path id="Path_265" data-name="Path 265" class="cls-1" d="M217,230.26c4.61,15.67-.31,28.27-1.85,42.7-1.53,13.52-3.07,26.12-3.07,40.25a68.12,68.12,0,0,1-13.52,8.29,152.19,152.19,0,0,0,1.54-26.72l-.92-19.36c0-.92-.31-1.84-.31-2.46-.92-4.3-4-5.83-9.52-6.45,1.54-8.6,1.23-21.5,6.76-28.87C198.89,234.26,212.1,226.88,217,230.26Z"/><path id="Path_266" data-name="Path 266" class="cls-13" d="M200.74,414.27c.3-2.45.92-4.91,1.53-8h0a38.15,38.15,0,0,1,1.84-5.53c1.23-3.08,2.77-5.84,4.92-6.76h.31c2.45-.62,4.3-.31,5.22.61,3.07,2.15,1.84,8,1.53,12v.31c-.92,1.23-1.84,1.54-2.76,3.69h0a70,70,0,0,0-.61,11.67,21.31,21.31,0,0,0-4.3.31c.3-4.61-.62-10.14-1.54-14.44-1.23,3.38-1.84,12.29-2.46,14.74h0c-2.76.31-5.22.62-7.68,0C195.2,418.88,197.36,414.58,200.74,414.27Z"/><path id="Path_267" data-name="Path 267" class="cls-10" d="M213.64,410.28c.92-2.15.74-2.55,2-3.78-1.54,4.61-1.05,10.23-1.05,15.45H213a36.9,36.9,0,0,1,.62-11.67Z"/><path id="Path_268" data-name="Path 268" class="cls-14" d="M203.5,223.51a54.38,54.38,0,0,0,8.29-3.69l1.85-.48c1.84,3.69,2,7.08,3,11.14-4.92-3.07-17.4,3.78-19.86,7.16-5.83,7.37-5.53,20.27-6.76,28.87,5.23.62,8.3,2.15,9.53,6.45h-3.39l-17.2-8.6c.93-3.07,1.54-6.75,2.15-9.21h.31a130.28,130.28,0,0,0,4.3-27,21.62,21.62,0,0,0,4-.62,64.27,64.27,0,0,0,7.37-1.53C198.59,225,201,224.43,203.5,223.51Z"/><path id="Path_269" data-name="Path 269" class="cls-13" d="M212.72,422v3.69c-1.23,1.23-3.08,1.23-4.92.61.31-1.23.31-2.45.62-4C210,422.26,211.49,422,212.72,422Z"/><path id="Path_270" data-name="Path 270" class="cls-15" d="M198.59,321.19a68.34,68.34,0,0,0,13.51-8.29v1.54c-.31,2.15.31,4.6,1.23,7.37-14.13.31-7.06,28.87-6.45,36.25a353.83,353.83,0,0,1,1.84,36.25c-2.15.61-3.68,3.68-4.91,6.75h-.31c1.23-12.6-8.29-58.06-12.29-76.8C194,323,196.13,322.12,198.59,321.19Z"/><path id="Path_271" data-name="Path 271" class="cls-10" d="M206.88,407.82a54.88,54.88,0,0,1,1.54,14.44,21.18,21.18,0,0,1-9-.93C200.05,418.56,206,411.2,206.88,407.82Z"/><path id="Path_272" data-name="Path 272" d="M183.23,125.2A114.4,114.4,0,0,1,198,121.82c.31,0,.92-.3,1.23-.3A40.07,40.07,0,0,1,202,133.19c-.61.31-.92.92-1.53,1.23-7.68,6.45-8,14.13-8.91,23.65-1.54,15.67.61,32-.92,47.31v2.77a36.16,36.16,0,0,1-5.53,1.22c-.62-19-3.38-38.4-5.53-56.52,0-5.84-.31-17.51-4.61-20.27a7,7,0,0,0-5.22-.93,80.72,80.72,0,0,1,10.44-4.91A9.38,9.38,0,0,1,183.23,125.2Z"/><path id="Path_273" data-name="Path 273" class="cls-16" d="M199.2,121.82c-.31,0-.92.31-1.23.31a125.83,125.83,0,0,0-14.74,3.38v-1.84a17,17,0,0,0,5.22-5.23c.61-1.53.3-2.76,0-4.3a20,20,0,0,0,12.29,2.77,23.77,23.77,0,0,1,.61,4.61A4.51,4.51,0,0,0,199.2,121.82Z"/><path id="Path_274" data-name="Path 274" class="cls-1" d="M187.53,324.88c-8.3,1.84-16.28,1.54-21.81-3.07a162.82,162.82,0,0,0-1.54-20.58l10.44,5.22,21.2,11.06V273h3.38a6.05,6.05,0,0,1,.31,2.46l.92,19.35a152.25,152.25,0,0,1-1.54,26.73c-2.15.92-4.61,1.84-7.06,2.77A17.78,17.78,0,0,0,187.53,324.88Z"/><path id="Path_275" data-name="Path 275" class="cls-17" d="M178.31,265.28h0a2.27,2.27,0,0,1,.31-1.22l17.2,8.6h0v44.85L194,273.27C191.52,272,185.38,269,178.31,265.28Z"/><path id="Path_276" data-name="Path 276" class="cls-18" d="M170.63,280.34h0c2.46,0,1.54-3.69,1.54-5.23a15.39,15.39,0,0,1,.61,3.69h.31c1.84-.92,1.53-5.22.92-7.68a40.2,40.2,0,0,1,1.54-4.61h0a15.4,15.4,0,0,0-.62,3.69h0a20.85,20.85,0,0,1,.62,4.3h.3c2.15,0,1.54-5.53,1.85-7.68v-.31h0c0-.3.3-.61.3-.92h.31c7.07,3.69,13.21,6.76,15.67,8.29l1.84,44.24-21.2-11.06c-3.68-14.13-11.67-32.56-25.8-37.78l-.31-18.13a14,14,0,0,0,2.15.92c3.38,1.54,9.53,4.61,16.28,8-.3.92-.61,1.54-.92,2.46a9.51,9.51,0,0,0-.92,4h0a34.28,34.28,0,0,0,1.54,9.53v.3a2.32,2.32,0,0,0,.61,1.54c2.15-.31,1.23-7.06.92-10.14.31-1.23,1.23-2.15,1.84-3.38h.31a65.17,65.17,0,0,0-.61,7.38h0C169.09,274.5,170,277.57,170.63,280.34Z"/><path id="Path_277" data-name="Path 277" class="cls-8" d="M190.6,208.15c0,6.45.61,12.9-1.84,19-1.23.31-2.77.31-4,.62.31-6.15.31-12,.31-18.13C187.22,209.07,189.06,208.76,190.6,208.15Z"/><path id="Path_278" data-name="Path 278" class="cls-16" d="M187.53,328.26c.3,9.83,3.07,19,2.15,28.87-1.54,14.75-11.37,32.87-8.91,47.93a8.42,8.42,0,0,0-4,.92c.31-13.83,1.23-27.65,1.23-41.47C178,356.21,175.24,328.57,187.53,328.26Z"/><path id="Path_279" data-name="Path 279" class="cls-15" d="M182.61,119.67a68.32,68.32,0,0,1-1.23-11.06.3.3,0,0,1,.29-.3h0a33.47,33.47,0,0,0,4.91,4.3,13.34,13.34,0,0,0,2.15,1.53c.31,1.54.62,3.08,0,4.3-.92,1.54-3.07,4.61-5.22,5.23A19,19,0,0,1,182.61,119.67Z"/><path id="Path_280" data-name="Path 280" class="cls-19" d="M170.63,411.51c-1.54,3.07-1.54,7.06-2.15,10.75-1.23,5.53-2.76,8.3-7.06,9.22.61-.92.92-1.85,1.53-2.77,1.23-2.76,2.46-5.83,3.69-8.91h0c4.91-11.67-.31-80.17-.62-96.45,0-.31.17-.89.17-1.2,5.53,4.61,13.33,5,21.63,3.17,0,.92-.75,2.56-.75,3.48-12.29.31-8.76,28-8.76,36,0,13.82-.92,27.64-1.22,41.47C174,406.9,172.17,408.74,170.63,411.51Z"/><path id="Path_281" data-name="Path 281" class="cls-8" d="M179.54,152.85c2.15,18.13,5.22,37.79,5.84,56.83a119.3,119.3,0,0,1-.31,18.13,40.74,40.74,0,0,1-6.15.3c0-10.13-.92-20-1.53-30.1-.62-12.29-.92-24.58-2.15-36.86-.62-4.92-.92-11.06-3.07-15.67-1.23-2.46-4.92-9.22-8.6-8.6a10.45,10.45,0,0,1,1.84-2.77c1.23-.92,2.76-1.84,4.3-2.76a7.62,7.62,0,0,1,5.22.92C178.92,135.34,179.23,147,179.54,152.85Z"/><path id="Path_282" data-name="Path 282" class="cls-13" d="M161.11,431.17c4.3-.92,5.83-3.69,7.06-9.22.62-3.38.62-7.68,2.15-10.75a12.88,12.88,0,0,1,6.45-5.53c1.23-.31,2.46-.61,4-.92h.92c4.91,10.14-.92,23,2.15,32.87-2.15,1.84-6.76,1.23-5.22-2.15,0-4.3-.31-8.6-.31-12.9v-.31c-4,2.77-11.06,11.68-11.67,16.59-.31,0-.62.31-.92.31-4.92.61-9.83.92-14.44-.61a22.23,22.23,0,0,1,.62-8c2.76-.31,8.29-.92,10.75-2.46A28.54,28.54,0,0,1,161.11,431.17Z"/><path id="Path_284" data-name="Path 284" class="cls-20" d="M172.17,93V88.57a31.11,31.11,0,0,0,8.8,19.64l.45.56c-.92,1.84,1.05,4.68,1.05,6.83,0,1.23.36,6.54,1,8.07C178.53,119.68,172.17,102.16,172.17,93Z"/><path id="Path_285" data-name="Path 285" class="cls-8" d="M180.46,254.84c-3.07.61-8-.31-10.14-2.46-.3-.31-.61-.61-.61-.92h0v-.92c.61,0,.92.3,1.54.3,1.84.31,5.83.31,6.75-1.22.93-.93.62-4.3.62-5.84.3-4.92.3-10.45.3-15.36v-.31c1.85,0,4-.3,6.15-.3-.62,9.21-1.84,18.43-4.61,27Z"/><path id="Path_286" data-name="Path 286" class="cls-19" d="M172.78,265.28a15.11,15.11,0,0,1-2.15-.92c-.31,0-.61-.31-.92-.31h-.31a22.54,22.54,0,0,1-3.68-2.15c.3-.92.61-1.53.92-2.46,0-.3.3-.61.3-.92.93-1.84,1.85-3.38,2.77-4.91a2.32,2.32,0,0,0,.61-1.23c2.15,2.15,7.07,3.07,10.14,2.46-.61,2.76-1.23,6.14-2.15,9.21,0,.31-.31.62-.31.92s-.3.62-.3.93h0v.3c-.62,0-1.54-.3-2.15-.3h0A9.06,9.06,0,0,1,172.78,265.28Z"/><path id="Path_287" data-name="Path 287" d="M178.92,228.42c0,5.22.31,10.45-.3,15.36,0,1.23.3,4.92-.62,5.84-.92,1.53-4.91,1.53-6.75,1.53-.62,0-.93-.3-1.54-.3.92-6.76.92-15.36.92-23.35a34.58,34.58,0,0,0,8.3.92Z"/><path id="Path_288" data-name="Path 288" class="cls-8" d="M161.72,145.17c.31-3.07.62-5.84,1.85-8,3.68-.61,7.68,6.15,8.6,8.6,2.15,4.61,2.45,10.76,3.07,15.67,1.23,12.29,1.53,24.58,2.15,36.86.61,10.14,1.53,20.28,1.53,30.11a34.55,34.55,0,0,1-8.29-.92c0-7.07-.61-13.83-.61-18.13-.31-3.07-.31-4.61-.31-4.61C168.79,190.94,160.49,162.07,161.72,145.17Z"/><path id="Path_289" data-name="Path 289" class="cls-10" d="M178.31,422.57v-.39c-3.07,4-5.22,9.6-4.92,14.52-2.15,0-6,1.76-7.65,1.68C166.05,433.15,174,425,178.31,422.57Z"/><path id="Path_290" data-name="Path 290" class="cls-12" d="M177.7,266.51c-.31,2.15.3,7.68-1.85,7.68h-.3a17.79,17.79,0,0,1-.62-4.3h0a13.14,13.14,0,0,1,.62-3.68A5.22,5.22,0,0,0,177.7,266.51Z"/><path id="Path_291" data-name="Path 291" class="cls-12" d="M174,270.81c.61,2.46.92,6.76-.92,7.68h-.31a15.31,15.31,0,0,1-.61-3.68,27.14,27.14,0,0,1-.62-4.92h.31c0-1.53.92-3.07,1.23-4.91a19.67,19.67,0,0,1,2.46.92A29.41,29.41,0,0,0,174,270.81Z"/><path id="Path_292" data-name="Path 292" class="cls-21" d="M164.18,301.23l-14.75-7.68L148.82,269c14.13,5.22,22.12,23.65,25.8,37.79Z"/><path id="Path_293" data-name="Path 293" class="cls-12" d="M171.55,270.2a30,30,0,0,0,.62,4.91c0,1.54.92,5.23-1.54,5.23h0c-.61-2.77-1.54-5.84-1.54-8.6h0a30,30,0,0,1,.62-7.38c.31,0,.61.31.92.31a15.11,15.11,0,0,0,2.15.92c-.31,1.54-.92,3.07-1.23,4.61Z"/><path id="Path_294" data-name="Path 294" class="cls-14" d="M169.4,250.54c0,.31.31.61.31.92h0c.31.31.31.61.61.92a2.32,2.32,0,0,0-.61,1.23c-.92,1.23-2.46,2.77-3.69,4.3a80.34,80.34,0,0,1-7.37-3.68c-.31-11.06.61-21.2,4-30.11,1.85.92,4,1.84,6.15,2.77.61.3,1.23.3,1.84.61,0,8,0,16.59-.92,23.35C169.71,250.54,169.71,250.54,169.4,250.54Z"/><path id="Path_295" data-name="Path 295" class="cls-12" d="M167.56,267.43c.61,3.38,1.53,10.14-.92,10.14-.31-.61-.31-1.23-.62-1.53v-.31c-.61-2.77-1.23-6.76-1.53-9.52h0a18.88,18.88,0,0,1,.92-4,23,23,0,0,0,3.68,2.15C168.79,265.28,168.17,265.9,167.56,267.43Z"/><path id="Path_296" data-name="Path 296" class="cls-22" d="M170.77,253.48c-.92,1.54-2.9,3.2-3.83,5-.3-.31-.92-.31-1.22-.62C167.25,256.38,169.85,254.71,170.77,253.48Z"/><path id="Path_297" data-name="Path 297" class="cls-23" d="M165,257.14c.29.28,1.33.35,1.62.63-.29.28-.76.48-.76.76-6.32-3.06-12.06-5.55-15.22-7.22v-1.39s3.16,1.39,7.76,3.61A28.6,28.6,0,0,0,165,257.14Z"/><path id="Path_298" data-name="Path 298" class="cls-16" d="M127.62,151.31c0-.92.31-1.84.31-2.45.31-1.23.61-2.15.92-3.08v-.3a46.46,46.46,0,0,0,6.45-.61c-.61-3.38-1.84-7.68.92-7.38.93,4,2.46,6.15,5.53,8.91-1.84,1.85-4.3,6.76-4,9.22h0c-3.69.31-6.76.61-9.83.61a7,7,0,0,1-.61-2.46h0A6.85,6.85,0,0,1,127.62,151.31Z"/><path id="Path_299" data-name="Path 299" class="cls-24" d="M116,145.48c-.31-.31,0-.92.92-.92h.31a106.06,106.06,0,0,0,11.67.92v.31c-.31.92-.61,1.84-.92,3.07a66.36,66.36,0,0,1-7.68-1.23c-1.23-.31-2.76-.92-3.69-1.23C116.26,145.79,116.26,145.48,116,145.48Z"/><path id="Path_300" data-name="Path 300" class="cls-24" d="M115.64,147.32c-.92-.61-.92-1.23.31-2.15a.65.65,0,0,0,.61.61,17.2,17.2,0,0,0,3.69,1.23c2.46.93,4.91.93,7.68,1.23a6.86,6.86,0,0,0-.31,2.46c-2.46-.61-5.83-1.54-6.76-1.84A13.35,13.35,0,0,1,115.64,147.32Z"/><path id="Path_301" data-name="Path 301" class="cls-24" d="M127.62,151.31a6.85,6.85,0,0,0-.3,2.46c-2.77-1.23-5.53-2.15-8.3-3.07-1.53-.61-3.68-1.23-3.38-3.07a20.71,20.71,0,0,0,4.92,1.84C121.79,149.78,125.17,150.7,127.62,151.31Z"/><path id="Path_302" data-name="Path 302" class="cls-24" d="M127.32,153.77a4.51,4.51,0,0,0,.3,2.15,19.9,19.9,0,0,1-8.91-2.15c-1.23-1.84,3.38-.61,4-.61C123.63,153.47,126.09,153.47,127.32,153.77Z"/></g><path id="Path_242" data-name="Path 242" class="cls-16" d="M140.34,152.44c-1.57-.63-9.76-5.36-11.65-6,2.84,2.52,9.14,6.3,11.34,9.77.31.31-.32,1.26-.63,1.26-1.58,0-11.34-6.62-12.28-7.56,2.52,2.83,7.87,7.24,9.13,9.13a1.11,1.11,0,0,1-.95,1.26.81.81,0,0,1-.31,0,23.89,23.89,0,0,1-2.83-1.26,24.7,24.7,0,0,1-6.3-5.35c2.83,3.15,6,6,6,7.24a.32.32,0,0,1-.3.32h0a19.35,19.35,0,0,1-5.35-4.73c-1.89-2.2-4.41-3.46-6.3-6-3.46-4.41-3.46-10.71-1.26-15.75,3.47-1,7.88-2.84,9.45-4.73,0,0,1.26.32,1.26,2.52s-2.83,3.47-4.41,5c0,0,12.29,9.45,15.44,12.29C142.23,150.86,141.29,152.44,140.34,152.44Z"/><path id="Path_239" data-name="Path 239" class="cls-15" d="M118.93,134.8c-2.2,5-1.89,11.34,1.26,15.75,1.89,2.2,4.09,3.78,6.3,6,1.89,1.89,3.15,3.46,5.35,4.72-.63,0-1.57-.31-4.72-2.2h0a39.79,39.79,0,0,0-6.93-5c-2.2-1.26-3.78-3.47-5.67-4.73h-.32c0-4.09,0-10.08,2.2-13.86C117.35,135.11,118,135.11,118.93,134.8Z"/><path id="Path_240" data-name="Path 240" class="cls-25" d="M111.37,148.66c-.63-4.41,1.57-11.66,3.15-15.75,1.89.63.94.63,2.83,1.26a1.64,1.64,0,0,0-.63,1.26c-2.2,3.78-2.2,9.76-2.2,13.86v.31A9.11,9.11,0,0,1,111.37,148.66Z"/><path id="Path_241" data-name="Path 241" class="cls-26" d="M118.93,205.66l-7.88,6,.32-3.78.63-.63h0c2.2-1.89,4.41-3.47,6.93-5.67Z"/><path id="Path_237" data-name="Path 237" class="cls-27" d="M111.05,211.65l7.88-6c0,6.62.31,18,.31,21.42h0c0,5.35-.31,11.65-.31,16.69-3.47,2.2-6.93,5.36-9.77,7.25,0-13.86.32-28,.32-41.89l2.52-1.89-.63.63Z"/><path id="Path_238" data-name="Path 238" class="cls-28" d="M118.93,201.88c-2.52,2.2-4.73,3.78-6.93,5.67h0l-2.52,1.89v-2.52h0a105.72,105.72,0,0,1,11.34-8.5h.31v28.66c-.31.32-.63.63-.94.63h-.32c0-3.78-.31-14.8-.31-21.42A14,14,0,0,1,118.93,201.88Z"/><path id="Path_222" data-name="Path 222" class="cls-29" d="M94.68,197.79c3.46-3.15,8.5-5.36,12.6-7.56,4.4,2.52,8.81,5.35,13.22,7.87l-11.33,8.5h0c-4.1-2.83-9.14-5.66-13.86-8.5A.93.93,0,0,1,94.68,197.79Z"/><path id="Path_223" data-name="Path 223" class="cls-30" d="M108.2,251c-3.46-2.52-6.47-4.58-10.25-7.42-4.4-13.86-6.11-32.22-2.33-45.45,4.72,2.84,9.76,5.67,13.86,8.5h0v2.52Z"/><path id="Path_224" data-name="Path 224" class="cls-31" d="M96.88,186.14c.63-1.26.32-6-.63-6.93a5.86,5.86,0,0,0,.63-2.2h0c.32.31,1,.63,1.26.94.63.63,1.58,1,2.2,1.58a47.06,47.06,0,0,1,.32,6.61v5.36h-.32a3.94,3.94,0,0,1-3.46-1.9h.32v-3.15c.31-.31,0-.31-.32-.31Z"/><path id="Path_225" data-name="Path 225" class="cls-32" d="M96.88,186.14a2.37,2.37,0,0,1-2.2-1.58c-.31-.94-.63-1.89,0-2.52.63-.31.95-1.57,1.58-2.52.94.63,1.26,5.36.63,6.62Z"/><path id="Path_187" data-name="Path 187" class="cls-33" d="M36.72,77.48c4.73,5.67,12,10.08,17.33,15.12a61.68,61.68,0,0,0,6.93,6c1.89,1.57,4.09,3.15,5.66,4.72,3.15,3.15,6.3,6.93,9.77,10.08l.31.32v.94H77c.94.63,1.89,1.58,2.83,2.2,4.1,2.52,9.45,4.41,13.23,6.3.32,0,.32.32.63.32A19.87,19.87,0,0,0,97.51,125c4.41,1.89,9.13,3.46,13.54,5l-.31.63c-2.52,2.2-5,8.19-4.73,11.66-6.3-3.15-12.91-4.1-18.89-7.25-5.67-3.15-16.38-7.87-17.33-14.48a25.65,25.65,0,0,1-3.15,2.83,45.17,45.17,0,0,1-1.26-6.93A18.29,18.29,0,0,0,61.92,120c-5.35-2.52-9.45-7.24-14.17-10.7-6-3.78-14.18-8.51-17.95-15.12-3.47-6-3.47-16.06,2.83-20.16A46.83,46.83,0,0,1,36.72,77.48Z"/><path id="Path_226" data-name="Path 226" class="cls-34" d="M92.16,165.35v-5c1.89,0,3.78,0,5-.94a26.46,26.46,0,0,0,.31,5c-.31,0-.31,0-.63.32C95.62,164.72,93.73,165.67,92.16,165.35Z"/><path id="Path_227" data-name="Path 227" class="cls-35" d="M91.84,173.85v-4.09c.63,0,1.58.31,2.2.31a23.5,23.5,0,0,1-.63,4.73A7,7,0,0,0,91.84,173.85Z"/><path id="Path_228" data-name="Path 228" class="cls-33" d="M92.16,144.88c1.89.63,4.09,1.26,6,1.89,0,4.09.32,7.87.32,11.65l-.95,1c-1.57.94-3.15.94-5,.94V145.19a.3.3,0,0,1-.31-.3Z"/><path id="Path_229" data-name="Path 229" class="cls-36" d="M90.58,177.63c.63-.63,1-1.26,1.58-1.89v-1.89c.63.32.94.63,1.57,1h0a16.15,16.15,0,0,0-.63,3.78h0l-.63.31Z"/><path id="Path_230" data-name="Path 230" class="cls-12" d="M92.16,169.44V165a9.56,9.56,0,0,0,5-.94c0,2.2,1.26,11.65,1.26,13.86-.32-.32-.95-.63-1.26-.95h0a6,6,0,0,1-.63,2.2A3.92,3.92,0,0,1,95,181.72c-.63.32-.94,0-1.26-1.89v-1.89a16.15,16.15,0,0,1,.63-3.78h0a24.24,24.24,0,0,0,.63-4.72A8.4,8.4,0,0,1,92.16,169.44Z"/><path id="Path_214" data-name="Path 214" class="cls-33" d="M90.27,64.56c1.89,17.33,2.83,41,3.15,58.27-4.1-1.89-9.14-3.78-13.23-6.3,1.26-6.93,2.2-14.49,2.83-22,.32-3.78.32-7.56.32-11,0-1.26.63-4.09.31-5C83,76.85,79.87,75.9,78.93,75c.94-.95,2.2-1.26,3.15-1.89-3.15-3.78-5.35-7.56-8.19-11.34-1.57-2.52-4.09-6.3-6.3-9.13C69.79,51.34,79.24,46.3,83,46c3.78.63,5.67,4.73,6.62,9.14a53.25,53.25,0,0,1,.63,9.44Z"/><path id="Path_215" data-name="Path 215" class="cls-14" d="M91.94,147.49c-5.35,0-10.18-1.67-15.22-3.87v-4.1c4.41,1.89,9.77,3.47,15.12,5.36v.63h-.09Z"/><path id="Path_231" data-name="Path 231" class="cls-37" d="M94.68,184.56c-1,.32-2.2-.94-2.52-2.2v-3.15l.63-.63.63-.31h0v1.89c.31,1.89.94,2.2,1.26,1.89a3.43,3.43,0,0,0,0,2.52Z"/><path id="Path_232" data-name="Path 232" class="cls-2" d="M93.42,123.15c0-17.33-1-41.26-3.15-58.27h0a50.81,50.81,0,0,0-1-9.45c1,2.2,4.41,16.06,5,20.79a198.8,198.8,0,0,1,1.89,30.55c0,6,0,12.6,1,18.26a18.39,18.39,0,0,1-3.78-1.57C93.73,123.15,93.42,123.15,93.42,123.15Z"/><path id="Path_243" data-name="Path 243" class="cls-8" d="M97.19,320.59a47.54,47.54,0,0,0-6.29,1.92h0c-3.47-1.57-7.25-2.83-10.71-4.09-4.41-1.26-10.08-3.47-13.54-6.93,5.35-1.26,11-2.2,16.37-4.41,1.26-.63,2.38-.94,3.64-1.57C87.29,311.49,91.84,318.39,97.19,320.59Z"/><path id="Path_233" data-name="Path 233" class="cls-32" d="M90,182a10.94,10.94,0,0,0-.31-3.78l.63-.63,2.2,1.26-.63.63v3.15A6.28,6.28,0,0,1,90,182Z"/><path id="Path_234" data-name="Path 234" class="cls-38" d="M90,182a4.41,4.41,0,0,0,1.89.63c.63,1.26,1.58,2.52,2.52,2.2h0a2.37,2.37,0,0,0,2.2,1.58h.63v3.15h-.31a3.61,3.61,0,0,0,3.46,1.89h.32v-5.35c2.2,1.26,4.4,2.83,6.61,4.09-4.41,2.2-9.13,4.41-12.6,7.56L90,195A87.06,87.06,0,0,0,90,182Z"/><path id="Path_235" data-name="Path 235" class="cls-39" d="M90,195.27l4.73,2.83c.31,0,.9-.64.9-.64-3.78,12.92-2.16,32.77,2.24,46.63-2.83-1.89-5.67-4.1-8.5-6C90,223.3,90,207.24,90,195.27Z"/><path id="Path_236" data-name="Path 236" class="cls-33" d="M90,178.26a20.82,20.82,0,0,0,.32,3.78v13.23c0,12-.32,28.35-.63,42.83a13.23,13.23,0,0,1-2.2-1.89H84.6c0-16.69-.63-34.33,0-52.91C86.17,181.73,88.06,180.15,90,178.26Z"/><path id="Path_216" data-name="Path 216" class="cls-2" d="M89.64,237.79c-.32,16.06-.63,29.92-.63,32.75,0,11.34-2.2,22.68-1.89,34.33a1.16,1.16,0,0,0-.63.32l-3.78,1.89c.31-19.21.94-37.17,1.57-57.32V235.9h2.84C88.06,236.53,88.69,237.16,89.64,237.79Z"/><path id="Path_217" data-name="Path 217" class="cls-33" d="M80.5,185.82A158.08,158.08,0,0,0,77,164.41c0-6.93-.31-13.86,0-20.79,5,2.2,10.08,3.78,15.44,3.78v28.34c-.63.63-1,1.26-1.58,1.89l-.63.63c-1.89,1.89-3.46,3.47-5.35,5A26.82,26.82,0,0,0,80.5,185.82Z"/><path id="Path_218" data-name="Path 218" class="cls-2" d="M75.46,188A151,151,0,0,0,77,164.09a159.81,159.81,0,0,1,3.46,21.42A25.53,25.53,0,0,1,75.46,188Z"/><path id="Path_188" data-name="Path 188" class="cls-33" d="M23.81,100.15c11,9.77,32.44,27.72,45.67,35.59,1.26,1.26,3.78,2.52,7.24,3.78v4.1c-3.15-1.26-6.3-2.84-9.45-4.41-9.13-4.41-17.63-12.6-27.71-14.49.31,6.93,6,12.6,9.13,18.58-2.83-1.57-5.67-2.2-8.19-4.09,1.26,2.83,2.2,6.3,3.78,9.45a10.24,10.24,0,0,0-4.09-2.2c-2.52,14.8-1.26,31.81.63,46.93a22.79,22.79,0,0,1-6.3-2.84,45.84,45.84,0,0,1-4.73-3.46c1.58-14.8,4.1-33.07,4.1-50.71-1.26-3.46-2.52-6.93-3.47-10.39-3.77-12.29-6.29-22.69-7.87-28.67A5.69,5.69,0,0,0,23.81,100.15Z"/><path id="Path_219" data-name="Path 219" class="cls-40" d="M67.59,73.7a38.73,38.73,0,0,1,.31-6c.32.63.95,1,1.26,1.26.32-.31.63-.94,1-1.26a92.91,92.91,0,0,1,2.83,12c.32,1.26.32,2.2.63,3.47-1.26-3.78-3.46-9.14-6-9.45Z"/><path id="Path_203" data-name="Path 203" class="cls-8" d="M67.9,73.7c2.2.31,4.41,6,6,9.45h0A130,130,0,0,1,76.72,108v5.67l-.31-.32v-.63a72.14,72.14,0,0,0-7.56-16.69,100.88,100.88,0,0,1-1.26-10.39c-.32-3.78-1.89-7.56-1.58-11V75A4.86,4.86,0,0,1,67.9,73.7Z"/><path id="Path_245" data-name="Path 245" d="M66.33,318.1a8.83,8.83,0,0,1,0-4.09l.31.31c5.67,5,23.31,13.23,26.46,12,2.84-1.26,4.09-1.89,6.61-2.2,0,1.26.32,2.2.32,2.84-2.84.94-5.67,2.52-8.5,2.52h0c-3.46-.32-14.8-3.78-15.75-5.36s-2.83-6.3-4.41-3.15C69.79,320,66.33,318.1,66.33,318.1Z"/><path id="Path_204" data-name="Path 204" class="cls-14" d="M65.64,52c.32,0,.64-.32,1-.32.32.32.63.63.63,1,2.22,2.83,4.43,6.61,6.32,9.13,2.85,4.09,5.06,7.87,8.22,11.34-1,.63-2.21.94-3.16,1.89,1,.94,4.11,1.89,4.74,3.46.31,1-.32,3.78-.32,5,0,3.78-.31,7.56-.31,11-.64,7.24-1.58,14.8-2.85,22a9.81,9.81,0,0,1-2.84-2.2H76.7v-6.62a214.3,214.3,0,0,0-2.84-24.88h0c-.32-1.26-.32-2.2-.63-3.46-1-3.78-1.58-7.88-2.85-12a41.86,41.86,0,0,0-4.1-10.08h0A16.43,16.43,0,0,1,65.64,52Z"/><path id="Path_244" data-name="Path 244" d="M66.64,311.8c3.15,3.47,9.14,5.67,13.55,6.93,3.46,1.26,7.24,2.52,10.71,4.1h0a52.18,52.18,0,0,1,7.55-2.2,1.08,1.08,0,0,1,.63.31c.32,1.26.32,2.2.63,3.47a53.35,53.35,0,0,0-6.61,2.2c-3.15,1.26-20.79-6.93-26.46-12a4.32,4.32,0,0,1,0-2.84Z"/><path id="Path_205" data-name="Path 205" class="cls-8" d="M65.55,75.62c-1.26-1.26-3.94-4.44-4.89-5.07h-.31c.63-2.52,1.35-5.65,2-8.16a28,28,0,0,1,5.42,5.23,36.39,36.39,0,0,0-.48,6.08h0C67,74,66.18,75.31,65.55,75.62Z"/><path id="Path_220" data-name="Path 220" class="cls-16" d="M66.33,12.6c.32,0,.32-.32.63-.32C66.65,12.28,66.65,12.6,66.33,12.6Z"/><path id="Path_206" data-name="Path 206" class="cls-33" d="M66.33,311.8c-.63,0-1,.32-1.58.32.32-4.73-.63-38.11-.31-54.8,1.26-12.29,2.2-24.57,3.78-36.22.63-6,.63-12,1.57-17.95.32-2.84,1.26-9.45,1.89-13.55,1.26-.31,2.52-.94,3.78-1.26,1.58-.63,3.47-1.57,5-2.2a29.29,29.29,0,0,0,4.1-2.52c-.63,18.58,0,36.22,0,52.91v13.86C84,270.54,83.65,288.5,83,307.71c-5.35,1.57-11,2.83-16.69,4.09Z"/><path id="Path_193" data-name="Path 193" class="cls-16" d="M59.72,53.23c-.32-.32-.63-.32-1.26-.63h-.32c-2.83-2.84-3.46-9.14-5.67-12.29-1.26-1.57-3.15-2.52-4.72-3.78l-1.89-5.66c-.63-2.52-2.2-5-1.89-7.88h0c3.15-.63,6.3-2.2,9.45-3.15a50.6,50.6,0,0,0,9.13-4.72A24.27,24.27,0,0,1,66,12.6h0a1.16,1.16,0,0,0,.63-.32h0a75.82,75.82,0,0,0,2.52,9.14A2.41,2.41,0,0,0,68.53,23a6.63,6.63,0,0,0,1.26,3.47c.32.63.63.94.95,1.57a4.7,4.7,0,0,1,.63,1.89,48.6,48.6,0,0,1,0,6.61c-.32,4.1-.32,8.5-1,12.6-.63,1.58-2.52,2.52-4.41,3.15-.31,0-.63.32-.94.32-.63.31-1.26.31-1.89.63C62.55,53.23,61.29,53.86,59.72,53.23Z"/><path id="Path_194" data-name="Path 194" class="cls-14" d="M43,161.57c5.36-3.47,12.29-5.36,18.27-7.56q-.95,4.26-1.89,9.45c-1.57.31-4.41,1.26-7.24,2.2-3.78.94-7.25,2.2-8.19,2.2A15.5,15.5,0,0,1,43,161.57Z"/><path id="Path_207" data-name="Path 207" class="cls-24" d="M49.58,49.39c1.89.63,3.47,1,5.36,1.58a9.15,9.15,0,0,0,2.83.63h.31c.32.31.63.31,1.26.63,1.26.63,5.36.31,6.3,0-.31,1.57,0,2.2,0,4.09h0A7.81,7.81,0,0,1,62.18,61a22.07,22.07,0,0,1-6.1,2.34A23.71,23.71,0,0,1,52,56.65C50.44,54.45,50.21,51.91,49.58,49.39Z"/><path id="Path_208" data-name="Path 208" class="cls-2" d="M56.57,320a11.39,11.39,0,0,1-2.83,1.26c-.63-22.05,2.2-43.15,2.83-66.14.32-10.71,3.78-53.86,4.09-63.3,3.78-.95,7.56-1.58,10.71-2.52-.63,4.09-1.26,10.7-1.89,13.54-.63,6-.63,12-1.57,17.95-1.58,12-2.52,24.25-3.78,36.22-.32,4.41-.95,8.82-1.26,12.91-1.89,18.28-3.78,29.61-3.78,47.88h0A8.57,8.57,0,0,1,56.57,320Z"/><path id="Path_195" data-name="Path 195" class="cls-40" d="M44.44,62.44C48.14,64.35,55,73.12,57.71,72.82c.39-1.18.78-1.88,1.17-3.07h.38c1.15.59,4.22,2.66,6.14,3.85h0c-.39,3.54,1.53,7.09,1.92,10.34.76,3.25.27,7.66.65,10.61C64.9,90.71,62.71,86,59.65,82.76c-3.46-3.84-16.75-14.87-21-18.42Z"/><path id="Path_196" data-name="Path 196" class="cls-33" d="M53.73,193.38c-5,1.26-9.13,1.26-12.91,0-2.2-15.12-3.15-32.12-.63-46.93a17.74,17.74,0,0,1,4.09,2.2c-1.26-3.15-2.2-6.3-3.78-9.45,2.52,1.89,5.36,2.52,8.19,4.1-3.15-5.67-8.5-11.34-9.13-18.58,10.08,1.89,18.58,10.07,27.72,14.48,3.15,1.58,6.3,3.15,9.44,4.41V164.4a154.64,154.64,0,0,1-1.57,23.94,18,18,0,0,1-3.78,1.26,106,106,0,0,1-10.71,2.52C58.46,192.44,56.25,193.07,53.73,193.38Zm5.67-30.23c.63-3.15,1-6.62,1.89-9.45-5.67,2.52-12.91,4.09-18.27,7.56a18.59,18.59,0,0,0,.63,6c1-.32,4.73-1.26,8.19-2.2,3.15-.64,6-1.58,7.56-1.89Z"/><path id="Path_209" data-name="Path 209" class="cls-33" d="M40.82,193.38a22.52,22.52,0,0,0,12.91,0c2.52-.63,4.73-.94,6.93-1.57-.63,9.44-3.78,52.6-4.09,63.3-.63,23-3.47,44.09-2.84,66.14a46.81,46.81,0,0,1-6.3,1.58,24.5,24.5,0,0,1-8.19-.32h-.31a15.82,15.82,0,0,1-2.2-.94v-.32c-.32-11.34-2.52-21.1-2.52-30.55,0-10.71,1.57-22.68,3.15-35.59-1.58-13.23-4.41-53.86-2.84-64.56A22.76,22.76,0,0,0,40.82,193.38Z"/><path id="Path_197" data-name="Path 197" class="cls-14" d="M48.38,87.24a31.82,31.82,0,0,1-5.36-12c0-.63-.31-.94-.31-1.57-1-3.47-2.2-6.93-2.52-10.4V63c0-.32.58-.82.58-1.13A67.13,67.13,0,0,1,44,55.11a81.07,81.07,0,0,0,.31,8.82v.63c2.2,2.84,4.72,5.67,7.24,8.5a89.17,89.17,0,0,1,9.77,12c2.52,3.77,5,7.55,7.56,11.65,3.15,5.35,6.3,11,7.56,16.69V114c-3.47-3.15-6.3-6.61-9.77-10.08L61,99.21a29.28,29.28,0,0,0-3.15-3.15c-1.26-1.26-2.83-2.52-4.09-3.78-1.89-2.2-1.26-3.15-1.57-6.3A5.47,5.47,0,0,0,48.38,87.24Z"/><path id="Path_198" data-name="Path 198" class="cls-41" d="M45.68,46.24a16.24,16.24,0,0,0,4.83,3.15h0A69.85,69.85,0,0,0,52.32,57a38.75,38.75,0,0,0,3.93,6.62,1.07,1.07,0,0,0-.91.31c-3,.63-9.06,2.52-11.17-1.26a86.54,86.54,0,0,1-.3-8.82v-.63a40,40,0,0,0-.6-6c0-1.26-.3-2.52-.3-3.78a.3.3,0,0,1,.28-.32h0c.3.63.68.55,1,1.18l.57.51A4.58,4.58,0,0,0,45.68,46.24Z"/><path id="Path_248" data-name="Path 248" class="cls-8" d="M49.64,347.08c-2.2-.95-4.73-4.41-6.3-7.56l-1-1.89h0c-.32-.63-.63-.94-1-1.57-.31-1.58-.94-3.15-1.26-4.73a54.93,54.93,0,0,0,7.56,11.34c1.89,2.2,3.47,1.57,6,.94,1.89-.63,4.09-.94,6-1.57.32.94.32,1.89.63,2.52A26.77,26.77,0,0,1,49.64,347.08Z"/><path id="Path_249" data-name="Path 249" d="M43.65,339.52c1.58,3.15,4.1,6.61,6.3,7.56a26.42,26.42,0,0,0,10.91-2.57,15.34,15.34,0,0,1,.75,3.2h0c-3.15,2.2-9.31,3.27-12.6,1.89-3.15-3.15-5.36-8.19-7.25-13.86a6.84,6.84,0,0,0,1,1.58h0C43,338.26,43,338.89,43.65,339.52Z"/><path id="Path_199" data-name="Path 199" class="cls-42" d="M42.39,73.38c-.94-3.46-2.2-6.93-2.52-10.39A56,56,0,0,0,42.39,73.38Z"/><path id="Path_200" data-name="Path 200" class="cls-16" d="M40.61,43.09a22,22,0,0,1-3.26-6.2v-.34c.14-1.19.79-1.18,1.8-.38a30.33,30.33,0,0,1,3,3.44A17,17,0,0,1,43.81,44l-.34.34C42.45,45.72,41.63,44.79,40.61,43.09Z"/><path id="Path_246" data-name="Path 246" class="cls-8" d="M39.24,322.51a24.25,24.25,0,0,0,8.19.32,61.72,61.72,0,0,0,6.3-1.58A11.29,11.29,0,0,0,56.57,320a50.11,50.11,0,0,0,1.57,12.91c.63,3.15.89,6.1,1.52,8.93a16.8,16.8,0,0,1-5.3,1.47c-2.83.63-4.41,1.26-6-.95A54.14,54.14,0,0,1,40.82,331,49,49,0,0,1,39.24,322.51Z"/><path id="Path_247" data-name="Path 247" d="M38.93,326.6v-4.09h.31a50.53,50.53,0,0,0,1.26,8.82,27.38,27.38,0,0,0,1.26,4.72c-.94-1.89-1.89-3.46-2.52-5A22.41,22.41,0,0,1,38.93,326.6Z"/><path id="Path_201" data-name="Path 201" class="cls-15" d="M48.06,35.85c1.58,1.26,3.78,2.2,4.73,3.78,2.2,3.15,2.83,9.13,5.67,12.28-1-.31-1.89-.31-2.84-.63-1.89-.63-3.46-.94-5.35-1.57h0c-1.89-1-3.47-1.26-5-3.15-.32-.32-.63-1-.95-1.26h0a16.35,16.35,0,0,1-.94-2.2v.31c-.63-1.26-1-2.83-1.58-4.09-.63-.63-3.78-5.67-4.41-2.84-.31-1.89,0-4.41,2.2-2.83a18.75,18.75,0,0,1,2.52,2.52,17.43,17.43,0,0,1,1.26,2.52l1.26,2.52c.63-.63,1.89-1,2.52-1.58-.94-2.2-2.52-4.72-3.15-6.93v-.31a61.5,61.5,0,0,0-3.15-8.19.3.3,0,0,0-.3-.31h0a18.83,18.83,0,0,0,4.09-.63h0c0,2.83,1.26,5.35,1.89,7.87Z"/><path id="Path_189" data-name="Path 189" class="cls-43" d="M67.28,9.45A56.72,56.72,0,0,0,62.55,2.2C61.61,1.26,54.05,0,50.9,0A26.36,26.36,0,0,0,34.84,6.3a9.44,9.44,0,0,0-2.52,2.52A12.19,12.19,0,0,0,29.8,12c-.63,1.26-1.89,3.15-2.2,4.72,3.77,3.15,8.5,5,12.91,7.56a.3.3,0,0,0-.3-.31h0a18.92,18.92,0,0,0,4.1-.63c3.15-.63,6.3-2.2,9.45-3.15a50,50,0,0,0,9.13-4.73,25.07,25.07,0,0,1,3.46-2.52h0c.32,0,.32-.31.63-.31a4.5,4.5,0,0,0,1-1.26A3.45,3.45,0,0,0,67.28,9.45Z"/><path id="Path_190" data-name="Path 190" class="cls-33" d="M54.05,92.91c-5.36-5.35-12.6-9.45-17.32-15.12h0a23.78,23.78,0,0,0-4.41-3.46c-1.89-1.26-3.47-2.2-4.73-2.2h0c3.78-2.84,7.56-6.3,11.66-8.82l.63-.63v.94c.31,3.78,1.57,6.93,2.52,10.4,0,.63.31.94.31,1.57,1.26,4.1,2.84,8.82,5.35,12A9.92,9.92,0,0,1,51.84,86c0,3.15-.31,4.1,1.58,6.3a48.69,48.69,0,0,0,4.09,3.78l3.15,3.15A60.55,60.55,0,0,0,54.05,92.91Z"/><path id="Path_191" data-name="Path 191" class="cls-33" d="M27.91,71.81c.94,0,2.83.94,4.72,2.2-6.3,3.78-6.3,14.17-2.83,20.16,3.77,6.61,12,11.33,18,15.11,4.72,3.47,9.13,8.19,14.17,10.71a35.31,35.31,0,0,1,3.46-3.46,54.44,54.44,0,0,0,1.26,6.93,25.73,25.73,0,0,0,3.15-2.84c.95,6.93,11.34,11.34,17.33,14.49s12.6,4.09,18.9,7.24c-.32-3.78,2.2-9.76,4.72-11.65l.32-.63c1.26.63,2.83,1,4.09,1.58-.32.31-.32.63-.63,1.26-1.58,3.77-3.46,11-3.15,15.74,0,.63.31,1.26.31,1.89-.94-.31-6.92-1.57-13.85-3.78-1.89-.62-4.1-1.26-6-1.88a142.12,142.12,0,0,1-15.12-5.36,29,29,0,0,1-7.24-3.77c-13.23-7.88-34.64-25.83-45.67-35.6-.63-.94-1.26-1.57-1.89-2.52C20,94.17,19.72,90.39,19.72,86c.32-4.09,1-6.93,3.47-10.39,1.26-1.26,2.52-3.15,4.72-3.78-.32-.32,0-.32,0,0Z"/><path id="Path_221" data-name="Path 221" d="M68.8,16.69A30.42,30.42,0,0,0,67.22,11c-.31.32-.63,1-.94,1.26h0a75.82,75.82,0,0,0,2.52,9.14A2.36,2.36,0,0,0,68.17,23a6.55,6.55,0,0,0,1.26,3.47c.31.63.63.94.94,1.57A80.34,80.34,0,0,1,68.8,16.69Z"/><path id="Path_192" data-name="Path 192" d="M43.86,32.31A63.92,63.92,0,0,0,40.65,24c-4.5-2.57-9.32-4.5-13.18-7.72v.32h0a53,53,0,0,0,1,10.29c.32,1,.32,1.93.64,2.57l1,2.89h0c2.58,3.86,6.11,7.07,9,10.61a62.69,62.69,0,0,1,4.5,5.14c0-1.28-.32-2.57-.32-3.86-1,1.29-1.6.33-2.57-1.28-1.28-1.93-2.57-3.54-3.21-5.79v-.32c-.32-1.92,0-4.5,2.25-2.89a20.13,20.13,0,0,1,2.57,2.57,19.91,19.91,0,0,1,1.29,2.57l1.28,2.57c.64-.64,1.93-1,2.57-1.6-1-2.58-2.57-5.15-3.53-7.72Z"/><path id="Path_210" data-name="Path 210" d="M70.79,20.1c-.31.32-5.35,3.15-5.35,3.15l1,1.58Z"/><path id="Path_211" data-name="Path 211" d="M60.72,27.35l-.95-1.89-9.13,2.83-.32,1.57,1-.94Z"/><path id="Path_212" data-name="Path 212" class="cls-16" d="M65.76,38.37s2.52-2.2,3.46-2.2a1,1,0,0,1,1.25.59v0a4.65,4.65,0,0,1-1.89,1.89A4.82,4.82,0,0,1,65.76,38.37Z"/><path id="Path_202" data-name="Path 202" class="cls-2" d="M51.33,72.21,51,71.73c-2.52-2.84-3.68-4.06-6.14-7.14,0-.32-.71-1.83-.71-2.15,2.2,3.47,9,1.36,12.13.73a7.7,7.7,0,0,0,2.12-.55,11.75,11.75,0,0,0,4-1.75l.49.49c-.63,2.52-1.26,5.35-1.89,7.87-.31,1.26-.63,2.52-.94,3.47C57.51,73,52.58,73.79,51.33,72.21Z"/><path id="Path_213" data-name="Path 213" class="cls-44" d="M65.93,56.48l.31.09c1.89,2.84,2.92,6.37,3.87,9.83a4.5,4.5,0,0,1-1,1.26L67.9,66.4a39.27,39.27,0,0,0-5.35-5A22.5,22.5,0,0,0,65.93,56.48Z"/></g></svg>