<svg id="Layer_1" data-name="Layer 1" xmlns="http://www.w3.org/2000/svg" viewBox="0 0 28.78 23.7"><defs><style>.cls-1{fill:#2979ff;}</style></defs><title>twitterArtboard 1svg</title><g id="Group_159" data-name="Group 159"><path id="Path_28" data-name="Path 28" class="cls-1" d="M9.19.09C10.91,1.08,28,18.88,28,18.88s-.05,2.24-9.19,2.24S8.67,19.24,7.94,18.41,7.1,7.18,7.1,7.18,7.47-.91,9.19.09Z"/><path id="Path_2" data-name="Path 2" d="M9.11,23.7C20,23.7,25.9,14.75,25.9,6.91v-.8a13,13,0,0,0,2.88-3,13.47,13.47,0,0,1-3.36,1A6.27,6.27,0,0,0,28,.84,14.74,14.74,0,0,1,24.3,2.28,5.72,5.72,0,0,0,20,.36a6,6,0,0,0-5.92,5.92,3,3,0,0,0,.16,1.27A16.53,16.53,0,0,1,2.08,1.32a6.08,6.08,0,0,0-.8,3,6.35,6.35,0,0,0,2.56,5,5.45,5.45,0,0,1-2.72-.8h0a5.84,5.84,0,0,0,4.8,5.75,4.79,4.79,0,0,1-1.6.16,2.68,2.68,0,0,1-1.12-.16,6.06,6.06,0,0,0,5.6,4.16A12.11,12.11,0,0,1,1.44,21,4.69,4.69,0,0,1,0,20.83,15,15,0,0,0,9.11,23.7"/></g></svg>