<svg id="Layer_1" data-name="Layer 1" xmlns="http://www.w3.org/2000/svg" viewBox="0 0 36.18 35"><defs><style>.cls-1{fill:#2979ff;}</style></defs><title>session_genArtboard 1svg</title><g id="Group_18" data-name="Group 18"><rect id="Rectangle_21" data-name="Rectangle 21" class="cls-1" x="3.75" y="4.07" width="29.63" height="19.41"/><g id="Group_17" data-name="Group 17"><path id="Path_16" data-name="Path 16" d="M35.15,2.28H18.56c0-.4,0-.78,0-1.16a1.28,1.28,0,0,0-.41-.9A1.2,1.2,0,0,0,17.45,0h-.08a1.23,1.23,0,0,0-.69.22,1.28,1.28,0,0,0-.41.9c0,.38,0,.76,0,1.16H1a1.08,1.08,0,0,0,0,2.15h.67c0,1.09,0,15.77,0,17.28a3.7,3.7,0,0,0,1.07,2.67,3.61,3.61,0,0,0,2.59,1.07h9.13c0,.34,0,.67,0,1h0a1,1,0,0,0-.86,1v.06a.71.71,0,0,0,0,.25.84.84,0,0,0,.69.69,1,1,0,0,0,.3,0h.93l0,0a2.85,2.85,0,0,1-.22.24l-2.12,2.13L11.09,33a1.16,1.16,0,0,0-.25,1.61l.08.09a1,1,0,0,0,.7.3,1.44,1.44,0,0,0,1-.48l.37-.37c1.47-1.47,3-3,4.48-4.49a4.63,4.63,0,0,0,.4-.48l.07-.08,0,0,0,0,.06.08c.13.17.26.33.4.48L23,34.15l.37.37a1.44,1.44,0,0,0,1,.48,1,1,0,0,0,.7-.3,1.14,1.14,0,0,0-.08-1.62l-.1-.08-2.1-2.11-2.12-2.13-.22-.25h.91a.94.94,0,0,0,.3-.05.83.83,0,0,0,.7-.68,1.13,1.13,0,0,0,0-.26v-.05a1,1,0,0,0-.86-1v0c0-.32,0-.65,0-1l9.36,0a3.64,3.64,0,0,0,2.59-1.07,3.75,3.75,0,0,0,1.08-2.67c0-3.86,0-9.16,0-13V4.43h.68a1.07,1.07,0,0,0,1.05-1.09,1.09,1.09,0,0,0-1-1.05ZM32.28,22c0,.82-.45,1.28-.71,1.28H5.75c-1.4,0-1.85-.46-1.85-1.28V16.33h0V4.45H32.28C32.28,9.88,32.29,16.58,32.28,22Z"/><rect id="Rectangle_17" data-name="Rectangle 17" x="5.91" y="9.49" width="9.5" height="1.59"/><rect id="Rectangle_18" data-name="Rectangle 18" x="11.5" y="14.18" width="3.93" height="1.58"/><rect id="Rectangle_19" data-name="Rectangle 19" x="5.93" y="18.39" width="6.78" height="1.59"/><rect id="Rectangle_20" data-name="Rectangle 20" x="5.91" y="14.18" width="3.14" height="1.58"/><g id="Group_16" data-name="Group 16"><path id="Path_17" data-name="Path 17" d="M25.94,12.31l3.29-2.17a6.64,6.64,0,0,0-8.3-1.86l2.18,3.32A2.7,2.7,0,0,1,25.94,12.31Z"/><path id="Path_18" data-name="Path 18" d="M27.61,19.7a6.53,6.53,0,0,0,1.18-1l-3.2-2.37-.13.09a2.71,2.71,0,0,1-3.27-4.31L20,8.84A6.62,6.62,0,0,0,27.61,19.7Z"/><path id="Path_19" data-name="Path 19" d="M29.45,17.89A6.64,6.64,0,0,0,29.8,11L26.5,13.2a2.7,2.7,0,0,1-.2,2.35ZM27.29,13.5,29.52,12a5.92,5.92,0,0,1-.27,4.87l-2.1-1.56A3.4,3.4,0,0,0,27.29,13.5Z"/></g></g></g></svg>