<svg id="Layer_1" data-name="Layer 1" xmlns="http://www.w3.org/2000/svg" viewBox="0 0 28.54 35"><defs><style>.cls-1{fill:#2979ff;}</style></defs><title>createArtboard 1svg</title><g id="Group_166" data-name="Group 166"><path id="Path_20" data-name="Path 20" class="cls-1" d="M1.19,1.18H19.52V18.42a9.27,9.27,0,0,0-4.86,2.65,10.1,10.1,0,0,0-2,4.95H1.31Z"/><circle id="Ellipse_1" data-name="Ellipse 1" class="cls-1" cx="21" cy="28" r="6"/><g id="Group_1" data-name="Group 1"><path id="Path_1" data-name="Path 1" d="M23.47,21.15V.77A.77.77,0,0,0,22.7,0H.77A.78.78,0,0,0,0,.77V29.16a.77.77,0,0,0,.77.77H14.7a7.07,7.07,0,1,0,8.78-8.78ZM1.55,28.39V1.55H21.93v19.3c-.16,0-.31,0-.47,0a7.08,7.08,0,0,0-7.07,7.07,1.47,1.47,0,0,0,0,.47H1.55Zm19.91,5.06A5.53,5.53,0,1,1,27,27.92h0a5.52,5.52,0,0,1-5.52,5.53Z"/><path id="Path_2" data-name="Path 2" d="M24.6,27.15H22.24V24.79a.78.78,0,0,0-1.55,0v2.36H18.33a.78.78,0,0,0,0,1.55h2.36v2.35a.78.78,0,1,0,1.55,0h0V28.7H24.6a.78.78,0,0,0,0-1.55Z"/></g></g></svg>