<svg xmlns="http://www.w3.org/2000/svg" viewBox="5940 1759 30 30">
  <defs>
    <style>
      .cls-1 {
        fill: #2979ff;
      }
    </style>
  </defs>
  <g id="Group_171" data-name="Group 171" transform="translate(5640 1347)">
    <path id="Path_519" data-name="Path 519" class="cls-1" d="M5947.545,1741.013l5.667,5.667-1.5,3.5,6.5,7.167,4.167-1.333,4.5,4.167,1.167,4-4.5,2.833h-5.333l-10.667-11-6-6.667v-5.5l5.167-2.833Z" transform="translate(-5640 -1327)"/>
    <g id="Group_170" data-name="Group 170" transform="translate(300 412)">
      <path id="Path_515" data-name="Path 515" d="M22.5,30c-2.565,0-4.843-.317-8.826-4.3L4.3,16.326C.317,12.343,0,10.065,0,7.5,0,2.507,4.808,0,7.5,0A1.87,1.87,0,0,1,8.826.549l5.625,5.625A1.87,1.87,0,0,1,15,7.5a7.04,7.04,0,0,1-1.232,3.617l5.117,5.117A7.028,7.028,0,0,1,22.5,15a1.867,1.867,0,0,1,1.326.549l5.625,5.625A1.867,1.867,0,0,1,30,22.5C30,25.192,27.493,30,22.5,30ZM6.838,3.866C5.651,4.213,3.75,5.357,3.75,7.5c0,1.661,0,2.974,3.2,6.174l9.375,9.375c3.2,3.2,4.513,3.2,6.174,3.2,2.143,0,3.287-1.9,3.634-3.088l-4.26-4.26a4.84,4.84,0,0,0-1.8,1.176,1.873,1.873,0,0,1-2.651,0l-7.5-7.5a1.873,1.873,0,0,1,0-2.651,4.81,4.81,0,0,0,1.174-1.8l-4.26-4.26ZM30,13.125H26.25A9.386,9.386,0,0,0,16.875,3.75V0A13.141,13.141,0,0,1,30,13.125Z"/>
    </g>
  </g>
</svg>
