<svg xmlns="http://www.w3.org/2000/svg" viewBox="1965 268 28 28">
  <defs>
    <style>
      .cls-1 {
        fill: #2979ff;
      }
    </style>
  </defs>
  <g id="Group_39" data-name="Group 39" transform="translate(1436.5 32)">
    <rect id="Rectangle_1" data-name="Rectangle 1" class="cls-1" width="6" height="6" transform="translate(529.5 237)"/>
    <rect id="Rectangle_2" data-name="Rectangle 2" class="cls-1" width="6" height="6" transform="translate(529.5 247)"/>
    <rect id="Rectangle_3" data-name="Rectangle 3" class="cls-1" width="6" height="6" transform="translate(529.5 257)"/>
    <path id="Path_4" data-name="Path 4" d="M8,2H4A2.006,2.006,0,0,0,2,4V8a2.006,2.006,0,0,0,2,2H8a2.006,2.006,0,0,0,2-2V4A2.006,2.006,0,0,0,8,2ZM8,8H4V4H8Zm0,4H4a2.006,2.006,0,0,0-2,2v4a2.006,2.006,0,0,0,2,2H8a2.006,2.006,0,0,0,2-2V14A2.006,2.006,0,0,0,8,12Zm0,6H4V14H8Zm0,4H4a2.006,2.006,0,0,0-2,2v4a2.006,2.006,0,0,0,2,2H8a2.006,2.006,0,0,0,2-2V24A2.006,2.006,0,0,0,8,22Zm0,6H4V24H8ZM14,8H28a2,2,0,0,0,0-4H14a2,2,0,0,0,0,4Zm14,6H14a2,2,0,0,0,0,4H28a2,2,0,0,0,0-4Zm0,10H14a2,2,0,0,0,0,4H28a2,2,0,0,0,0-4Z" transform="translate(526.5 234)"/>
  </g>
</svg>
