<svg xmlns="http://www.w3.org/2000/svg" viewBox="2513.5 271.5 34 23.722">
  <defs>
    <style>
      .cls-1 {
        fill: #2699fb;
      }

      .cls-2 {
        stroke: #000;
      }
    </style>
  </defs>
  <g id="Group_12" data-name="Group 12" transform="translate(2012.708 -215)">
    <path id="Path_10" data-name="Path 10" class="cls-1" d="M461.687,474.56l15.215,13.19,15.259-13.19h.862v21.121H460.868V474.56Z" transform="translate(40.852 13.599)"/>
    <path id="Path_9" data-name="Path 9" class="cls-2" d="M34.276,30.452a.547.547,0,0,0,.016-.079V8.766a.671.671,0,0,0-.016-.079.533.533,0,0,0-.024-.114.526.526,0,0,0-.058-.1.549.549,0,0,0-.039-.068c0-.005-.011-.007-.016-.013a.589.589,0,0,0-.1-.074.612.612,0,0,0-.079-.053.558.558,0,0,0-.1-.025.527.527,0,0,0-.116-.024c-.007,0-.013,0-.019,0H1.849c-.007,0-.013,0-.019,0a.546.546,0,0,0-.118.024.56.56,0,0,0-.094.025.55.55,0,0,0-.079.054.58.58,0,0,0-.1.074c-.005,0-.012.007-.016.012a.475.475,0,0,0-.039.068.5.5,0,0,0-.059.1.548.548,0,0,0-.023.114.558.558,0,0,0-.016.078V30.373a.548.548,0,0,0,.016.077.555.555,0,0,0,.023.115.507.507,0,0,0,.059.1.519.519,0,0,0,.039.068c0,.005.01.007.016.012a.548.548,0,0,0,.141.106c.016.008.027.022.043.029a.553.553,0,0,0,.222.047H33.736a.556.556,0,0,0,.222-.047c.016-.007.028-.021.043-.029a.536.536,0,0,0,.141-.106c0-.005.011-.007.016-.012a.756.756,0,0,0,.039-.068.515.515,0,0,0,.058-.1A.633.633,0,0,0,34.276,30.452ZM2.406,9.984,13.5,19.57,2.406,29.156ZM17.792,21.805,3.346,9.323H32.238Zm-3.439-1.5,3.075,2.657a.522.522,0,0,0,.094.055.443.443,0,0,0,.06.036.563.563,0,0,0,.21.045h0a.445.445,0,0,0,.27-.081.5.5,0,0,0,.094-.055l3.075-2.657,11.006,9.51H3.346Zm7.731-.736L33.178,9.984V29.156Z" transform="translate(500 478.791)"/>
  </g>
</svg>
