<svg xmlns="http://www.w3.org/2000/svg" viewBox="2183 264 141.75 35.355">
  <defs>
    <style>
      .cls-1 {
        fill: #2979ff;
      }

      .cls-2 {
        fill: none;
        stroke: #2699fb;
        stroke-width: 5px;
      }

      .cls-3 {
        fill: #fff;
        stroke: #000;
        stroke-width: 1.5px;
      }
    </style>
  </defs>
  <g id="Group_165" data-name="Group 165" transform="translate(1433 21)">
    <g id="Group_162" data-name="Group 162">
      <path id="Path_7" data-name="Path 7" class="cls-1" d="M449.659,325.019l-3.428,7.76.238,1.9,2.19,1.952,4.285-.714,1.857-2.714v-5.9l-2.285-2Z" transform="translate(329.486 -81.03)"/>
      <path id="Path_6" data-name="Path 6" class="cls-1" d="M441.121,365.622l12.7-.141.535,1.718-8.507,8.479h-2.535l-5.888-5.944Z" transform="translate(335 -106.379)"/>
      <path id="Path_5" data-name="Path 5" d="M18.063,32.212h.421a4.964,4.964,0,0,0,4.958-4.959V23.831a4.964,4.964,0,0,0-4.958-4.959h-.421A4.965,4.965,0,0,0,13.1,23.831v3.422A4.965,4.965,0,0,0,18.063,32.212ZM14.6,23.83a3.469,3.469,0,0,1,3.465-3.465h.421a3.468,3.468,0,0,1,3.464,3.465v3.422a3.468,3.468,0,0,1-3.464,3.465h-.421A3.469,3.469,0,0,1,14.6,27.252ZM26.327,34.069h-5.5a.747.747,0,0,0,0,1.494h5.5a.782.782,0,0,1,.61.232.631.631,0,0,1,.1.523,4.218,4.218,0,0,1-1.117,1.472l-6.375,6.374a1.8,1.8,0,0,1-1.227.526h-.054l-.034,0A1.8,1.8,0,0,1,17,44.164l-6.255-6.254-.121-.12A4.219,4.219,0,0,1,9.51,36.318a.63.63,0,0,1,.1-.523.779.779,0,0,1,.609-.231h5.333a.747.747,0,0,0,0-1.494H10.22a2.259,2.259,0,0,0-1.758.771,2.089,2.089,0,0,0-.419,1.753,4.971,4.971,0,0,0,1.535,2.26l6.369,6.368a3.292,3.292,0,0,0,2.153.958.793.793,0,0,0,.095.008h.077c.016,0,.069,0,.082,0a.774.774,0,0,0,.094-.008A3.293,3.293,0,0,0,20.6,45.22l6.254-6.254.114-.113a4.97,4.97,0,0,0,1.535-2.26,2.087,2.087,0,0,0-.419-1.752A2.259,2.259,0,0,0,26.327,34.069Z" transform="translate(761.655 224.128)"/>
      <path id="Path_7-2" data-name="Path 7" class="cls-1" d="M449.659,325.019l-3.428,7.76.238,1.9,2.19,1.952,4.285-.714,1.857-2.714v-5.9l-2.285-2Z" transform="translate(348.247 -72.99)"/>
      <path id="Path_6-2" data-name="Path 6" class="cls-1" d="M441.121,365.622l12.7-.141.535,1.718-8.507,8.479h-2.535l-5.888-5.944Z" transform="translate(353.761 -98.339)"/>
      <path id="Path_5-2" data-name="Path 5" d="M18.063,32.212h.421a4.964,4.964,0,0,0,4.958-4.959V23.831a4.964,4.964,0,0,0-4.958-4.959h-.421A4.965,4.965,0,0,0,13.1,23.831v3.422A4.965,4.965,0,0,0,18.063,32.212ZM14.6,23.83a3.469,3.469,0,0,1,3.465-3.465h.421a3.468,3.468,0,0,1,3.464,3.465v3.422a3.468,3.468,0,0,1-3.464,3.465h-.421A3.469,3.469,0,0,1,14.6,27.252ZM26.327,34.069h-5.5a.747.747,0,0,0,0,1.494h5.5a.782.782,0,0,1,.61.232.631.631,0,0,1,.1.523,4.218,4.218,0,0,1-1.117,1.472l-6.375,6.374a1.8,1.8,0,0,1-1.227.526h-.054l-.034,0A1.8,1.8,0,0,1,17,44.164l-6.255-6.254-.121-.12A4.219,4.219,0,0,1,9.51,36.318a.63.63,0,0,1,.1-.523.779.779,0,0,1,.609-.231h5.333a.747.747,0,0,0,0-1.494H10.22a2.259,2.259,0,0,0-1.758.771,2.089,2.089,0,0,0-.419,1.753,4.971,4.971,0,0,0,1.535,2.26l6.369,6.368a3.292,3.292,0,0,0,2.153.958.793.793,0,0,0,.095.008h.077c.016,0,.069,0,.082,0a.774.774,0,0,0,.094-.008A3.293,3.293,0,0,0,20.6,45.22l6.254-6.254.114-.113a4.97,4.97,0,0,0,1.535-2.26,2.087,2.087,0,0,0-.419-1.752A2.259,2.259,0,0,0,26.327,34.069Z" transform="translate(780.416 232.169)"/>
      <path id="Path_7-3" data-name="Path 7" class="cls-1" d="M449.659,325.019l-3.428,7.76.238,1.9,2.19,1.952,4.285-.714,1.857-2.714v-5.9l-2.285-2Z" transform="translate(309.831 -72.99)"/>
      <path id="Path_6-3" data-name="Path 6" class="cls-1" d="M441.121,365.622l12.7-.141.535,1.718-8.507,8.479h-2.535l-5.888-5.944Z" transform="translate(315.345 -98.339)"/>
      <path id="Path_5-3" data-name="Path 5" d="M18.063,32.212h.421a4.964,4.964,0,0,0,4.958-4.959V23.831a4.964,4.964,0,0,0-4.958-4.959h-.421A4.965,4.965,0,0,0,13.1,23.831v3.422A4.965,4.965,0,0,0,18.063,32.212ZM14.6,23.83a3.469,3.469,0,0,1,3.465-3.465h.421a3.468,3.468,0,0,1,3.464,3.465v3.422a3.468,3.468,0,0,1-3.464,3.465h-.421A3.469,3.469,0,0,1,14.6,27.252ZM26.327,34.069h-5.5a.747.747,0,0,0,0,1.494h5.5a.782.782,0,0,1,.61.232.631.631,0,0,1,.1.523,4.218,4.218,0,0,1-1.117,1.472l-6.375,6.374a1.8,1.8,0,0,1-1.227.526h-.054l-.034,0A1.8,1.8,0,0,1,17,44.164l-6.255-6.254-.121-.12A4.219,4.219,0,0,1,9.51,36.318a.63.63,0,0,1,.1-.523.779.779,0,0,1,.609-.231h5.333a.747.747,0,0,0,0-1.494H10.22a2.259,2.259,0,0,0-1.758.771,2.089,2.089,0,0,0-.419,1.753,4.971,4.971,0,0,0,1.535,2.26l6.369,6.368a3.292,3.292,0,0,0,2.153.958.793.793,0,0,0,.095.008h.077c.016,0,.069,0,.082,0a.774.774,0,0,0,.094-.008A3.293,3.293,0,0,0,20.6,45.22l6.254-6.254.114-.113a4.97,4.97,0,0,0,1.535-2.26,2.087,2.087,0,0,0-.419-1.752A2.259,2.259,0,0,0,26.327,34.069Z" transform="translate(742 232.169)"/>
    </g>
    <g id="Group_164" data-name="Group 164">
      <path id="Path_8" data-name="Path 8" class="cls-2" d="M475.906,339.8s1.766-5.516,6.844-6.437a9.18,9.18,0,0,1,8.125,2.406" transform="translate(350 -73.372)"/>
      <path id="path" d="M794.6,148.8l3.6-3.6v9h-9l3.7-3.6a8.11,8.11,0,0,0-5.2-1.9,7.753,7.753,0,0,0-4.7,1.5,7.354,7.354,0,0,0-2.9,4l-2.3-.8a9.866,9.866,0,0,1,3.8-5.2,10.384,10.384,0,0,1,13,.6Z" transform="translate(47.2 112.628)"/>
    </g>
    <g id="Group_163" data-name="Group 163">
      <rect id="Rectangle_7" data-name="Rectangle 7" class="cls-1" width="22" height="4" transform="translate(865 261.628)"/>
      <rect id="Rectangle_9" data-name="Rectangle 9" class="cls-3" width="30" height="11" rx="1" transform="translate(861 265.128)"/>
      <circle id="Ellipse_3" data-name="Ellipse 3" class="cls-1" cx="3" cy="3" r="3" transform="translate(863 267.628)"/>
      <rect id="Rectangle_8" data-name="Rectangle 8" class="cls-3" width="30" height="11" rx="1" transform="translate(861 250.128)"/>
      <circle id="Ellipse_2" data-name="Ellipse 2" class="cls-1" cx="3" cy="3" r="3" transform="translate(863 252.628)"/>
    </g>
  </g>
</svg>
