<svg xmlns="http://www.w3.org/2000/svg" viewBox="1990.605 502.197 28.78 23.703">
  <defs>
    <style>
      .cls-1 {
        fill: #2979ff;
      }

      .cls-2 {
        fill-rule: evenodd;
      }
    </style>
  </defs>
  <g id="Group_159" data-name="Group 159" transform="translate(1433 21)">
    <path id="Path_28" data-name="Path 28" class="cls-1" d="M415.831,442.854c1.721.994,18.792,18.792,18.792,18.792s-.052,2.244-9.187,2.244-10.127-1.879-10.857-2.714-.835-11.223-.835-11.223S414.109,441.86,415.831,442.854Z" transform="translate(150.962 38.428)"/>
    <path id="Path_2" data-name="Path 2" class="cls-2" d="M47.114,25.344C57.986,25.344,63.9,16.39,63.9,8.555v-.8A13,13,0,0,0,66.78,4.718a13.273,13.273,0,0,1-3.358.959,6.221,6.221,0,0,0,2.558-3.2A14.665,14.665,0,0,1,62.3,3.919,5.71,5.71,0,0,0,57.986,2,6.007,6.007,0,0,0,52.07,7.916a3.117,3.117,0,0,0,.16,1.279A16.531,16.531,0,0,1,40.079,2.959,6.123,6.123,0,0,0,39.279,6a6.353,6.353,0,0,0,2.558,4.957,5.39,5.39,0,0,1-2.718-.8h0a5.843,5.843,0,0,0,4.8,5.756,4.929,4.929,0,0,1-1.6.16,2.721,2.721,0,0,1-1.119-.16,6.057,6.057,0,0,0,5.6,4.157,12.072,12.072,0,0,1-7.355,2.558A4.427,4.427,0,0,1,38,22.466a15.092,15.092,0,0,0,9.114,2.878" transform="translate(519.605 479.556)"/>
  </g>
</svg>
