<svg xmlns="http://www.w3.org/2000/svg" viewBox="1684 498 36.181 35">
  <defs>
    <style>
      .cls-1 {
        fill: #2979ff;
      }
    </style>
  </defs>
  <g id="Group_18" data-name="Group 18" transform="translate(1199.714 30)">
    <rect id="Rectangle_21" data-name="Rectangle 21" class="cls-1" width="29.63" height="19.405" transform="translate(488.039 472.067)"/>
    <g id="Group_17" data-name="Group 17" transform="translate(484.286 468)">
      <path id="Path_16" data-name="Path 16" d="M36.439,4.575c-.055,0-.113-.007-.18-.007H19.851c0-.4.007-.773-.014-1.156a1.3,1.3,0,0,0-.415-.9,1.159,1.159,0,0,0-.687-.221h-.077a1.157,1.157,0,0,0-.687.221,1.3,1.3,0,0,0-.415.9c-.022.383-.018.76-.015,1.156H2.5c-.069,0-.126,0-.181.007a1.073,1.073,0,0,0,.037,2.146c.137.006.286.009.466.009h.2c0,1.087,0,15.773-.016,17.284a3.707,3.707,0,0,0,1.073,2.668,3.618,3.618,0,0,0,2.591,1.073c.031,0,8.614-.018,9.126-.017,0,.348.007.674-.017,1a.088.088,0,0,1,0,.017,1.009,1.009,0,0,0-.863,1v.028c0,.009,0,.018,0,.026a.864.864,0,0,0,.019.256.832.832,0,0,0,.69.683,1.039,1.039,0,0,0,.3.044h.927l-.016.018c-.088.1-.152.178-.219.245l-2.125,2.127-2.111,2.112a1.148,1.148,0,0,0-.179,1.7.978.978,0,0,0,.7.3,1.442,1.442,0,0,0,1-.482l.37-.37c1.473-1.47,3-2.989,4.487-4.491a5.633,5.633,0,0,0,.4-.475l.065-.082.031.027.031-.027.065.082a5.328,5.328,0,0,0,.4.475c1.492,1.5,3.015,3.02,4.487,4.491l.371.37a1.443,1.443,0,0,0,1,.482.983.983,0,0,0,.7-.3,1.147,1.147,0,0,0-.18-1.7L24.03,33.177,21.906,31.05c-.067-.067-.13-.142-.219-.245a.2.2,0,0,1-.015-.018H22.6a1.033,1.033,0,0,0,.3-.044.832.832,0,0,0,.692-.683.927.927,0,0,0,.019-.256c0-.008,0-.017,0-.026v-.028a1.01,1.01,0,0,0-.863-1c0-.006,0-.011,0-.017-.025-.323-.022-.65-.018-1,.512,0,9.327.017,9.357.017a3.617,3.617,0,0,0,2.591-1.073,3.715,3.715,0,0,0,1.074-2.668c-.033-3.863-.027-9.154-.022-12.956,0-1.469,0-2.857,0-4.328h.206c.179,0,.327,0,.465-.009a1.074,1.074,0,0,0,.039-2.146ZM33.57,24.3c0,.824-.456,1.278-.716,1.278H7.033c-1.392,0-1.847-.454-1.848-1.278V18.624h0c0-1.58,0-10.42,0-11.881H33.569C33.57,12.17,33.572,18.874,33.57,24.3Z" transform="translate(-1.286 -2.291)"/>
      <rect id="Rectangle_17" data-name="Rectangle 17" width="9.498" height="1.585" transform="translate(5.909 9.494)"/>
      <rect id="Rectangle_18" data-name="Rectangle 18" width="3.928" height="1.579" transform="translate(11.502 14.175)"/>
      <rect id="Rectangle_19" data-name="Rectangle 19" width="6.779" height="1.585" transform="translate(5.931 18.394)"/>
      <rect id="Rectangle_20" data-name="Rectangle 20" width="3.141" height="1.579" transform="translate(5.909 14.175)"/>
      <g id="Group_16" data-name="Group 16" transform="translate(17.348 7.546)">
        <path id="Path_17" data-name="Path 17" d="M41.832,19.863,45.12,17.7a6.624,6.624,0,0,0-8.295-1.86L39,19.153A2.713,2.713,0,0,1,41.832,19.863Z" transform="translate(-33.24 -15.102)"/>
        <path id="Path_18" data-name="Path 18" d="M41,28.16a6.593,6.593,0,0,0,1.176-.985L38.98,24.8c-.042.032-.085.063-.13.092a2.71,2.71,0,0,1-3.266-4.311L33.426,17.3A6.622,6.622,0,0,0,41,28.16Z" transform="translate(-30.738 -16.006)"/>
        <path id="Path_19" data-name="Path 19" d="M49.085,27.878a6.624,6.624,0,0,0,.353-6.86l-3.3,2.171a2.708,2.708,0,0,1-.2,2.349Zm-2.157-4.395,2.226-1.465a5.909,5.909,0,0,1-.266,4.866l-2.1-1.561A3.422,3.422,0,0,0,46.928,23.483Z" transform="translate(-36.985 -17.533)"/>
      </g>
    </g>
  </g>
</svg>
