<svg xmlns="http://www.w3.org/2000/svg" viewBox="3251.44 539.544 30.312 35.431">
  <defs>
    <style>
      .cls-1 {
        fill: #2979ff;
      }
    </style>
  </defs>
  <g id="Group_172" data-name="Group 172" transform="translate(2968 21)">
    <path id="Path_327" data-name="Path 327" class="cls-1" d="M2.2.089C4.019,1.138,22.029,19.915,22.029,19.915s-.055,2.368-9.693,2.368S1.652,20.3.881,19.419,0,7.579,0,7.579.387-.959,2.2.089Z" transform="translate(313.752 534.898) rotate(120)"/>
    <g id="Group_60" data-name="Group 60" transform="translate(286.982 518.561)">
      <path id="Path_10" data-name="Path 10" d="M8.685,14.691a1.371,1.371,0,0,1-.972-.4,6.9,6.9,0,0,1,0-9.742L10.258,2A6.889,6.889,0,1,1,20,11.742,1.375,1.375,0,0,1,18.055,9.8a4.138,4.138,0,0,0,0-5.853,4.239,4.239,0,0,0-5.853,0L9.657,6.49a4.145,4.145,0,0,0,0,5.853,1.376,1.376,0,0,1-.972,2.349Zm-1.778,7.29A6.889,6.889,0,0,1,2.035,10.223a1.375,1.375,0,0,1,1.944,1.944,4.138,4.138,0,0,0,0,5.853,4.239,4.239,0,0,0,5.853,0l2.336-2.336a4.138,4.138,0,0,0,0-5.853,1.375,1.375,0,0,1,1.944-1.944,6.886,6.886,0,0,1,0,9.742l-2.336,2.336a6.843,6.843,0,0,1-4.87,2.017Z" transform="translate(0 0)"/>
    </g>
  </g>
</svg>
