<svg xmlns="http://www.w3.org/2000/svg" viewBox="5940 1620 30 32.727">
  <defs>
    <style>
      .cls-1 {
        fill: #2979ff;
      }
    </style>
  </defs>
  <g id="Group_169" data-name="Group 169" transform="translate(5640 1345)">
    <path id="Path_514" data-name="Path 514" class="cls-1" d="M5809.716,1648.93l-3.641,6.793,25.565.365,1.213-.365-4.021-6.793h-19.117Z" transform="translate(-5504 -1349.724)"/>
    <path id="Path_513" data-name="Path 513" d="M19.718,28.526a1.363,1.363,0,0,0,1.563,0c.414-.289,10.127-7.188,10.127-16.117a10.909,10.909,0,0,0-21.818,0C9.591,21.338,19.3,28.237,19.718,28.526Zm.782-24.3a8.191,8.191,0,0,1,8.182,8.182c0,6.167-6,11.534-8.182,13.284-2.184-1.75-8.182-7.117-8.182-13.284A8.191,8.191,0,0,1,20.5,4.227Zm4.091,8.182A4.091,4.091,0,1,0,20.5,16.5,4.1,4.1,0,0,0,24.591,12.409Zm-5.455,0A1.364,1.364,0,1,1,20.5,13.773,1.365,1.365,0,0,1,19.136,12.409Zm16.2,19.8-4.091-7.5a1.365,1.365,0,0,0-1.2-.711H28.682a1.364,1.364,0,1,0,0,2.727h.554l2.6,4.773H9.161l2.6-4.773h.554a1.364,1.364,0,0,0,0-2.727H10.954a1.364,1.364,0,0,0-1.2.711l-4.091,7.5a1.364,1.364,0,0,0,1.2,2.017H34.136a1.364,1.364,0,0,0,1.2-2.017Z" transform="translate(294.5 273.5)"/>
  </g>
</svg>
