<svg id="Layer_1" data-name="Layer 1" xmlns="http://www.w3.org/2000/svg" viewBox="0 0 24.9 24.9"><defs><style>.cls-1{fill:#2979ff;}</style></defs><title>instaArtboard 1svg</title><g id="Group_158" data-name="Group 158"><path id="Path_518" data-name="Path 518" class="cls-1" d="M3.24,2.84C5,3.83,22,21.63,22,21.63s-.06,2.24-9.19,2.24S2.72,22,2,21.16,1.16,9.94,1.16,9.94,1.52,1.84,3.24,2.84Z"/><path id="Path_517" data-name="Path 517" d="M12.45,2.21a39.45,39.45,0,0,1,5,.14,6.3,6.3,0,0,1,2.35.42,4.8,4.8,0,0,1,2.35,2.35,6.3,6.3,0,0,1,.42,2.35c0,1.25.14,1.66.14,5a39.45,39.45,0,0,1-.14,5,6.3,6.3,0,0,1-.42,2.35,4.8,4.8,0,0,1-2.35,2.35,6.3,6.3,0,0,1-2.35.42c-1.25,0-1.66.14-5,.14a39.45,39.45,0,0,1-5-.14,6.3,6.3,0,0,1-2.35-.42,4.8,4.8,0,0,1-2.35-2.35,6.3,6.3,0,0,1-.42-2.35c0-1.25-.14-1.66-.14-5a39.45,39.45,0,0,1,.14-5,6.3,6.3,0,0,1,.42-2.35,4.89,4.89,0,0,1,1-1.38,2.34,2.34,0,0,1,1.39-1,6.3,6.3,0,0,1,2.35-.42,39.45,39.45,0,0,1,5-.14m0-2.21A41.64,41.64,0,0,0,7.33.14a8.52,8.52,0,0,0-3,.55A5.5,5.5,0,0,0,2.07,2.08,5.48,5.48,0,0,0,.69,4.29a6.36,6.36,0,0,0-.55,3A41.64,41.64,0,0,0,0,12.45a41.64,41.64,0,0,0,.14,5.12,8.52,8.52,0,0,0,.55,3,5.38,5.38,0,0,0,1.38,2.21,5.5,5.5,0,0,0,2.22,1.39,8.52,8.52,0,0,0,3,.55,41.64,41.64,0,0,0,5.12.14,41.7,41.7,0,0,0,5.12-.14,8.52,8.52,0,0,0,3-.55,5.8,5.8,0,0,0,3.6-3.6,8.61,8.61,0,0,0,.55-3.05c0-1.38.14-1.8.14-5.11a41.64,41.64,0,0,0-.14-5.12,8.61,8.61,0,0,0-.55-3,5.51,5.51,0,0,0-1.38-2.21A5.48,5.48,0,0,0,20.61.69a8.52,8.52,0,0,0-3-.55A41.64,41.64,0,0,0,12.45,0m0,6.09a6.25,6.25,0,0,0-6.36,6.15v.21a6.36,6.36,0,1,0,6.36-6.36m0,10.51a4.08,4.08,0,0,1-4.15-4v-.15a4.08,4.08,0,0,1,4-4.15h.15a4.08,4.08,0,0,1,4.15,4v.15a4.08,4.08,0,0,1-4,4.15h-.15M19.09,4.29a1.52,1.52,0,1,0,1.52,1.52h0a1.53,1.53,0,0,0-1.52-1.52"/></g></svg>