<svg id="Layer_1" data-name="Layer 1" xmlns="http://www.w3.org/2000/svg" viewBox="0 0 72.5 54"><defs><style>.cls-1{fill:#2979ff;}</style></defs><title>certificateArtboard 1svg</title><g id="Group_156" data-name="Group 156"><path id="Path_319" data-name="Path 319" class="cls-1" d="M30.56,50.13,46.18,37.6l.85-11,13.63-.85,8.26-6.48V3.81H3.68V50.56Z"/><g id="Group_54" data-name="Group 54"><path id="Path_52" data-name="Path 52" d="M14,41.85H12.32l-.53-1.63a.27.27,0,0,0-.33-.18.26.26,0,0,0-.17.18l-.53,1.63H9.05a.27.27,0,0,0-.26.18.29.29,0,0,0,.1.3l1.39,1L9.75,45a.28.28,0,0,0,.1.3.27.27,0,0,0,.32,0l1.38-1,1.38,1a.27.27,0,0,0,.38,0,.31.31,0,0,0,0-.25l-.53-1.62,1.38-1a.26.26,0,0,0-.16-.48Z"/><path id="Path_53" data-name="Path 53" d="M24.55,41.85H22.84l-.54-1.63A.27.27,0,0,0,22,40a.26.26,0,0,0-.17.18l-.53,1.63H19.56a.25.25,0,0,0-.25.18.26.26,0,0,0,.1.3l1.38,1L20.26,45a.28.28,0,0,0,.1.3.26.26,0,0,0,.31,0l1.39-1,1.38,1a.28.28,0,0,0,.38,0,.27.27,0,0,0,0-.25l-.53-1.62,1.39-1a.27.27,0,0,0-.15-.48Z"/><path id="Path_54" data-name="Path 54" d="M10.38,22.05h32a1.6,1.6,0,1,0,0-3.2h-32a1.6,1.6,0,0,0,0,3.2Z"/><path id="Path_55" data-name="Path 55" d="M10.38,14.85h43.2a1.6,1.6,0,1,0,0-3.2H10.38a1.6,1.6,0,0,0,0,3.2Z"/><path id="Path_56" data-name="Path 56" d="M35.17,25.25H10.38a1.6,1.6,0,1,0,0,3.2H35.17a1.6,1.6,0,1,0,0-3.2Z"/><path id="Path_57" data-name="Path 57" d="M27.16,32.2H10.38a1.6,1.6,0,1,0,0,3.2H27.16a1.6,1.6,0,0,0,0-3.2Z"/><path id="Path_58" data-name="Path 58" d="M68.5,0H4A4,4,0,0,0,0,4V50a4,4,0,0,0,4,4H68.5a4,4,0,0,0,4-4V4A4,4,0,0,0,68.5,0Zm1.1,35.25a6.68,6.68,0,0,1-1.34,3.07c-.15.23-.3.46-.43.71a2.42,2.42,0,0,0,0,.47c0,.09,0,.2,0,.32a6.33,6.33,0,0,1-1,3.71,6.32,6.32,0,0,1-3.16,2,5.73,5.73,0,0,0-.81.33,6.32,6.32,0,0,0-.52.64,6.28,6.28,0,0,1-3,2.4l-.12,0a5.1,5.1,0,0,1-.68.13,4.88,4.88,0,0,1-1.08,0,10.36,10.36,0,0,1-1.84-.38,6.34,6.34,0,0,0-.86-.21,5.74,5.74,0,0,0-.91.22,8.87,8.87,0,0,1-2.28.4,4.58,4.58,0,0,1-1.42-.22,6.08,6.08,0,0,1-3-2.39,5.81,5.81,0,0,0-.56-.65,6.71,6.71,0,0,0-.78-.32,6.25,6.25,0,0,1-3.15-2,5.17,5.17,0,0,1-.93-2.66L30.35,50H4V4H68.5V19.5l-5.35,4.28a4,4,0,0,0,.47.18,6.3,6.3,0,0,1,3.15,2,6.21,6.21,0,0,1,1,3.65l0,.43a2,2,0,0,0,0,.42,5.33,5.33,0,0,0,.44.72,7.55,7.55,0,0,1,1.24,2.53,4.53,4.53,0,0,1,.12,1A3.85,3.85,0,0,1,69.6,35.25Z"/><path id="Path_59" data-name="Path 59" d="M67.79,34.14c0-.09-.05-.19-.08-.27a4.83,4.83,0,0,0-.48-1A4,4,0,0,0,67,32.5l-.19-.29c-.14-.21-.28-.41-.38-.6a3.43,3.43,0,0,1-.28-.58,2.24,2.24,0,0,1-.09-.45,1.11,1.11,0,0,1,0-.19,1.27,1.27,0,0,1,0-.2c0-.15,0-.28,0-.41A4.74,4.74,0,0,0,65.35,27l-.23-.27a2.44,2.44,0,0,0-.43-.35A6.33,6.33,0,0,0,63,25.62a6.77,6.77,0,0,1-1-.41l-.23-.14a0,0,0,0,1,0,0h0l-.12-.1-.1-.09a8.47,8.47,0,0,1-.67-.79,4.52,4.52,0,0,0-2.1-1.79h0l-.14,0-.27,0a2.49,2.49,0,0,0-.47,0,3.25,3.25,0,0,0-.44,0l-.46.08h0l-.44.11a3.74,3.74,0,0,0-.45.12,5.83,5.83,0,0,1-1.38.28,5.78,5.78,0,0,1-1.43-.3l0,0a.7.7,0,0,1-.12,0l-.07,0-.07,0-.09,0h0a5.29,5.29,0,0,0-1.73-.19,1.59,1.59,0,0,0-.3.06l-.19.05a4.68,4.68,0,0,0-2.12,1.79c-.18.23-.33.43-.48.6l-.19.2a1.12,1.12,0,0,1-.2.18,5.65,5.65,0,0,1-1.25.57,6.27,6.27,0,0,0-1.83.91,3.08,3.08,0,0,0-.26.24c-.09.09-.16.18-.24.27a4.6,4.6,0,0,0-.65,2.66,6.23,6.23,0,0,1-.15,1.36,5.2,5.2,0,0,1-.66,1.14,4.63,4.63,0,0,0-1.06,2.58,2.65,2.65,0,0,0,0,.27,2.59,2.59,0,0,0,.16.72v0a3.47,3.47,0,0,0,.27.59,1,1,0,0,0,.1.17,2.1,2.1,0,0,0,.19.31c.11.18.21.33.32.49s.29.44.4.63a2.3,2.3,0,0,1,.24.5h0a1.42,1.42,0,0,1,0,.22,5.7,5.7,0,0,1,.09.83c0,.1,0,.2,0,.31a4.5,4.5,0,0,0,.65,2.65,4.57,4.57,0,0,0,2.33,1.43,7.12,7.12,0,0,1,1,.41l.23.14a1.07,1.07,0,0,1,.23.2l.14.14.08.09c.12.14.24.28.35.43a1.47,1.47,0,0,1,.1.13,4.63,4.63,0,0,0,2.11,1.8,3.22,3.22,0,0,0,.87.13.58.58,0,0,0,.19,0,4.12,4.12,0,0,0,.48-.05l.23,0h0c.23,0,.45-.11.67-.16l.21-.06.38-.11a4.75,4.75,0,0,1,.63-.14l.39,0a5.51,5.51,0,0,1,1.33.27,9.33,9.33,0,0,0,1.16.28l.34.05h0a3.15,3.15,0,0,0,.53,0h.13l.12,0a1.87,1.87,0,0,0,.34-.08h.08a2.71,2.71,0,0,0,.92-.52,2,2,0,0,0,.27-.23l.25-.25a9.87,9.87,0,0,0,.65-.8l.39-.48.11-.12a2.28,2.28,0,0,1,.38-.38A6.12,6.12,0,0,1,63,43.93a9.14,9.14,0,0,0,1.25-.52,3.66,3.66,0,0,0,.72-.52.43.43,0,0,0,.12-.11,2.09,2.09,0,0,0,.24-.28h0A4.63,4.63,0,0,0,66,39.84c0-.21,0-.34,0-.45a3.45,3.45,0,0,1,.14-.9c0-.09.07-.18.11-.27a3.62,3.62,0,0,1,.24-.43c.08-.14.19-.29.29-.44a5.07,5.07,0,0,0,1-2.27,0,0,0,0,0,0,0,.71.71,0,0,0,0-.14.62.62,0,0,0,0-.13,2.65,2.65,0,0,0-.07-.63ZM54.73,42.2a7.46,7.46,0,0,1-5.24-2.15l-.26-.28h0a7.4,7.4,0,0,1-1.42-2.28,5,5,0,0,1-.22-.65c-.05-.17-.09-.34-.13-.52a7.35,7.35,0,0,1-.16-1.55,7,7,0,0,1,.45-2.55,2.37,2.37,0,0,1,.13-.34c0-.1.1-.22.15-.33a7.67,7.67,0,0,1,1.2-1.77l.25-.26.25-.24a0,0,0,0,0,0,0h0a7.62,7.62,0,0,1,1.06-.81h0a7.45,7.45,0,0,1,3.92-1.11,7.31,7.31,0,0,1,3.11.69,5.4,5.4,0,0,1,1,.55,4.57,4.57,0,0,1,.57.41c.19.15.36.31.53.47a7.84,7.84,0,0,1,1.49,2.08h0A7.44,7.44,0,0,1,54.73,42.2Z"/><path id="Path_60" data-name="Path 60" d="M58.74,30.78A1.34,1.34,0,0,0,57,31l-3.57,4.76-1-1a1.34,1.34,0,0,0-1.8,0,1.28,1.28,0,0,0,0,1.8l2,2.07a1.28,1.28,0,0,0,.91.38h.07a1.23,1.23,0,0,0,.94-.5L59,32.57a1.28,1.28,0,0,0-.26-1.78Z"/></g></g></svg>